{
    "tracks": [
        [{
            "time": 0,
            "duration": 83.33333333333333,
            "noteNumber": 36,
            "velocity": 70,
            "programNumber": 1
        }, {
            "time": 0,
            "duration": 119.79166666666666,
            "noteNumber": 42,
            "velocity": 24,
            "programNumber": 1
        }, {
            "time": 119.79166666666666,
            "duration": 125,
            "noteNumber": 42,
            "velocity": 57,
            "programNumber": 1
        }, {
            "time": 244.79166666666666,
            "duration": 124.99999999999997,
            "noteNumber": 42,
            "velocity": 48,
            "programNumber": 1
        }, {
            "time": 369.79166666666663,
            "duration": 119.79166666666669,
            "noteNumber": 36,
            "velocity": 66,
            "programNumber": 1
        }, {
            "time": 369.79166666666663,
            "duration": 125,
            "noteNumber": 42,
            "velocity": 44,
            "programNumber": 1
        }, {
            "time": 494.79166666666663,
            "duration": 125,
            "noteNumber": 42,
            "velocity": 55,
            "programNumber": 1
        }, {
            "time": 619.7916666666666,
            "duration": 62.5,
            "noteNumber": 38,
            "velocity": 25,
            "programNumber": 1
        }, {
            "time": 619.7916666666666,
            "duration": 125,
            "noteNumber": 42,
            "velocity": 44,
            "programNumber": 1
        }, {
            "time": 744.7916666666666,
            "duration": 161.45833333333337,
            "noteNumber": 36,
            "velocity": 73,
            "programNumber": 1
        }, {
            "time": 744.7916666666666,
            "duration": 250,
            "noteNumber": 42,
            "velocity": 48,
            "programNumber": 1
        }, {
            "time": 994.7916666666666,
            "duration": 119.79166666666663,
            "noteNumber": 36,
            "velocity": 74,
            "programNumber": 1
        }, {
            "time": 994.7916666666666,
            "duration": 124.99999999999989,
            "noteNumber": 42,
            "velocity": 46,
            "programNumber": 1
        }, {
            "time": 1119.7916666666665,
            "duration": 125,
            "noteNumber": 42,
            "velocity": 55,
            "programNumber": 1
        }, {
            "time": 1244.7916666666665,
            "duration": 130.20833333333326,
            "noteNumber": 42,
            "velocity": 47,
            "programNumber": 1
        }, {
            "time": 1374.9999999999998,
            "duration": 119.79166666666674,
            "noteNumber": 42,
            "velocity": 3,
            "programNumber": 1
        }, {
            "time": 1374.9999999999998,
            "duration": 125,
            "noteNumber": 36,
            "velocity": 51,
            "programNumber": 1
        }, {
            "time": 1494.7916666666665,
            "duration": 125,
            "noteNumber": 42,
            "velocity": 55,
            "programNumber": 1
        }, {
            "time": 1619.7916666666665,
            "duration": 125,
            "noteNumber": 42,
            "velocity": 47,
            "programNumber": 1
        }, {
            "time": 1744.7916666666665,
            "duration": 161.45833333333326,
            "noteNumber": 36,
            "velocity": 71,
            "programNumber": 1
        }, {
            "time": 1744.7916666666665,
            "duration": 250,
            "noteNumber": 42,
            "velocity": 47,
            "programNumber": 1
        }, {
            "time": 1994.7916666666665,
            "duration": 119.79166666666652,
            "noteNumber": 36,
            "velocity": 74,
            "programNumber": 1
        }, {
            "time": 1994.7916666666665,
            "duration": 125,
            "noteNumber": 42,
            "velocity": 47,
            "programNumber": 1
        }, {
            "time": 2119.7916666666665,
            "duration": 125,
            "noteNumber": 42,
            "velocity": 55,
            "programNumber": 1
        }, {
            "time": 2244.7916666666665,
            "duration": 125,
            "noteNumber": 42,
            "velocity": 46,
            "programNumber": 1
        }, {
            "time": 2369.7916666666665,
            "duration": 119.79166666666652,
            "noteNumber": 36,
            "velocity": 86,
            "programNumber": 1
        }, {
            "time": 2369.7916666666665,
            "duration": 125,
            "noteNumber": 42,
            "velocity": 47,
            "programNumber": 1
        }, {
            "time": 2494.7916666666665,
            "duration": 125,
            "noteNumber": 42,
            "velocity": 55,
            "programNumber": 1
        }, {
            "time": 2619.7916666666665,
            "duration": 62.5,
            "noteNumber": 38,
            "velocity": 29,
            "programNumber": 1
        }, {
            "time": 2619.7916666666665,
            "duration": 125,
            "noteNumber": 42,
            "velocity": 47,
            "programNumber": 1
        }, {
            "time": 2744.7916666666665,
            "duration": 161.45833333333348,
            "noteNumber": 36,
            "velocity": 53,
            "programNumber": 1
        }, {
            "time": 2744.7916666666665,
            "duration": 250,
            "noteNumber": 42,
            "velocity": 46,
            "programNumber": 1
        }, {
            "time": 2994.7916666666665,
            "duration": 125,
            "noteNumber": 42,
            "velocity": 47,
            "programNumber": 1
        }, {
            "time": 2994.7916666666665,
            "duration": 125,
            "noteNumber": 36,
            "velocity": 52,
            "programNumber": 1
        }, {
            "time": 3119.7916666666665,
            "duration": 125,
            "noteNumber": 42,
            "velocity": 56,
            "programNumber": 1
        }, {
            "time": 3244.7916666666665,
            "duration": 130.20833333333348,
            "noteNumber": 42,
            "velocity": 48,
            "programNumber": 1
        }, {
            "time": 3375,
            "duration": 114.58333333333348,
            "noteNumber": 36,
            "velocity": 65,
            "programNumber": 1
        }, {
            "time": 3375,
            "duration": 119.79166666666697,
            "noteNumber": 42,
            "velocity": 3,
            "programNumber": 1
        }, {
            "time": 3494.791666666667,
            "duration": 125,
            "noteNumber": 42,
            "velocity": 59,
            "programNumber": 1
        }, {
            "time": 3619.791666666667,
            "duration": 125,
            "noteNumber": 42,
            "velocity": 47,
            "programNumber": 1
        }, {
            "time": 3744.791666666667,
            "duration": 156.25,
            "noteNumber": 36,
            "velocity": 88,
            "programNumber": 1
        }, {
            "time": 3744.791666666667,
            "duration": 250,
            "noteNumber": 42,
            "velocity": 50,
            "programNumber": 1
        }, {
            "time": 3994.791666666667,
            "duration": 119.79166666666697,
            "noteNumber": 36,
            "velocity": 71,
            "programNumber": 1
        }, {
            "time": 3994.791666666667,
            "duration": 125,
            "noteNumber": 42,
            "velocity": 44,
            "programNumber": 1
        }, {
            "time": 4119.791666666667,
            "duration": 125,
            "noteNumber": 42,
            "velocity": 54,
            "programNumber": 1
        }, {
            "time": 4244.791666666667,
            "duration": 125,
            "noteNumber": 42,
            "velocity": 49,
            "programNumber": 1
        }, {
            "time": 4369.791666666667,
            "duration": 119.79166666666697,
            "noteNumber": 36,
            "velocity": 82,
            "programNumber": 1
        }, {
            "time": 4369.791666666667,
            "duration": 125,
            "noteNumber": 42,
            "velocity": 44,
            "programNumber": 1
        }, {
            "time": 4494.791666666667,
            "duration": 125,
            "noteNumber": 42,
            "velocity": 57,
            "programNumber": 1
        }, {
            "time": 4619.791666666667,
            "duration": 67.70833333333303,
            "noteNumber": 38,
            "velocity": 18,
            "programNumber": 1
        }, {
            "time": 4619.791666666667,
            "duration": 125,
            "noteNumber": 42,
            "velocity": 45,
            "programNumber": 1
        }, {
            "time": 4744.791666666667,
            "duration": 161.45833333333303,
            "noteNumber": 36,
            "velocity": 53,
            "programNumber": 1
        }, {
            "time": 4744.791666666667,
            "duration": 250,
            "noteNumber": 42,
            "velocity": 43,
            "programNumber": 1
        }, {
            "time": 4994.791666666667,
            "duration": 119.79166666666697,
            "noteNumber": 36,
            "velocity": 69,
            "programNumber": 1
        }, {
            "time": 4994.791666666667,
            "duration": 125,
            "noteNumber": 42,
            "velocity": 45,
            "programNumber": 1
        }, {
            "time": 5119.791666666667,
            "duration": 125,
            "noteNumber": 42,
            "velocity": 53,
            "programNumber": 1
        }, {
            "time": 5244.791666666667,
            "duration": 130.20833333333303,
            "noteNumber": 42,
            "velocity": 45,
            "programNumber": 1
        }, {
            "time": 5375,
            "duration": 114.58333333333303,
            "noteNumber": 36,
            "velocity": 79,
            "programNumber": 1
        }, {
            "time": 5375,
            "duration": 119.79166666666606,
            "noteNumber": 42,
            "velocity": 2,
            "programNumber": 1
        }, {
            "time": 5494.791666666666,
            "duration": 125,
            "noteNumber": 42,
            "velocity": 55,
            "programNumber": 1
        }, {
            "time": 5619.791666666666,
            "duration": 125,
            "noteNumber": 42,
            "velocity": 46,
            "programNumber": 1
        }, {
            "time": 5744.791666666666,
            "duration": 161.45833333333303,
            "noteNumber": 36,
            "velocity": 58,
            "programNumber": 1
        }, {
            "time": 5744.791666666666,
            "duration": 250,
            "noteNumber": 42,
            "velocity": 48,
            "programNumber": 1
        }, {
            "time": 5994.791666666666,
            "duration": 125,
            "noteNumber": 42,
            "velocity": 48,
            "programNumber": 1
        }, {
            "time": 5994.791666666666,
            "duration": 125,
            "noteNumber": 36,
            "velocity": 51,
            "programNumber": 1
        }, {
            "time": 6119.791666666666,
            "duration": 125,
            "noteNumber": 42,
            "velocity": 55,
            "programNumber": 1
        }, {
            "time": 6244.791666666666,
            "duration": 125,
            "noteNumber": 42,
            "velocity": 46,
            "programNumber": 1
        }, {
            "time": 6369.791666666666,
            "duration": 119.79166666666697,
            "noteNumber": 36,
            "velocity": 60,
            "programNumber": 1
        }, {
            "time": 6369.791666666666,
            "duration": 125,
            "noteNumber": 42,
            "velocity": 46,
            "programNumber": 1
        }, {
            "time": 6494.791666666666,
            "duration": 125,
            "noteNumber": 42,
            "velocity": 53,
            "programNumber": 1
        }, {
            "time": 6619.791666666666,
            "duration": 62.5,
            "noteNumber": 38,
            "velocity": 23,
            "programNumber": 1
        }, {
            "time": 6619.791666666666,
            "duration": 125,
            "noteNumber": 42,
            "velocity": 45,
            "programNumber": 1
        }, {
            "time": 6744.791666666666,
            "duration": 161.45833333333303,
            "noteNumber": 36,
            "velocity": 70,
            "programNumber": 1
        }, {
            "time": 6744.791666666666,
            "duration": 250,
            "noteNumber": 42,
            "velocity": 45,
            "programNumber": 1
        }, {
            "time": 6994.791666666666,
            "duration": 119.79166666666697,
            "noteNumber": 36,
            "velocity": 71,
            "programNumber": 1
        }, {
            "time": 6994.791666666666,
            "duration": 125,
            "noteNumber": 42,
            "velocity": 46,
            "programNumber": 1
        }, {
            "time": 7119.791666666666,
            "duration": 125,
            "noteNumber": 42,
            "velocity": 57,
            "programNumber": 1
        }, {
            "time": 7244.791666666666,
            "duration": 125,
            "noteNumber": 42,
            "velocity": 46,
            "programNumber": 1
        }, {
            "time": 7369.791666666666,
            "duration": 125,
            "noteNumber": 42,
            "velocity": 3,
            "programNumber": 1
        }, {
            "time": 7369.791666666666,
            "duration": 125,
            "noteNumber": 36,
            "velocity": 57,
            "programNumber": 1
        }, {
            "time": 7494.791666666666,
            "duration": 125,
            "noteNumber": 42,
            "velocity": 59,
            "programNumber": 1
        }, {
            "time": 7619.791666666666,
            "duration": 125,
            "noteNumber": 42,
            "velocity": 47,
            "programNumber": 1
        }, {
            "time": 7744.791666666666,
            "duration": 161.45833333333303,
            "noteNumber": 36,
            "velocity": 71,
            "programNumber": 1
        }, {
            "time": 7744.791666666666,
            "duration": 250,
            "noteNumber": 42,
            "velocity": 49,
            "programNumber": 1
        }, {
            "time": 7994.791666666666,
            "duration": 119.79166666666697,
            "noteNumber": 36,
            "velocity": 71,
            "programNumber": 1
        }, {
            "time": 7994.791666666666,
            "duration": 125,
            "noteNumber": 42,
            "velocity": 47,
            "programNumber": 1
        }, {
            "time": 8119.791666666666,
            "duration": 125,
            "noteNumber": 42,
            "velocity": 54,
            "programNumber": 1
        }, {
            "time": 8244.791666666666,
            "duration": 125,
            "noteNumber": 42,
            "velocity": 47,
            "programNumber": 1
        }, {
            "time": 8369.791666666666,
            "duration": 119.79166666666606,
            "noteNumber": 36,
            "velocity": 79,
            "programNumber": 1
        }, {
            "time": 8369.791666666666,
            "duration": 125,
            "noteNumber": 42,
            "velocity": 43,
            "programNumber": 1
        }, {
            "time": 8494.791666666666,
            "duration": 125,
            "noteNumber": 42,
            "velocity": 57,
            "programNumber": 1
        }, {
            "time": 8619.791666666666,
            "duration": 57.29166666666606,
            "noteNumber": 38,
            "velocity": 29,
            "programNumber": 1
        }, {
            "time": 8619.791666666666,
            "duration": 125,
            "noteNumber": 42,
            "velocity": 44,
            "programNumber": 1
        }, {
            "time": 8744.791666666666,
            "duration": 161.45833333333394,
            "noteNumber": 36,
            "velocity": 49,
            "programNumber": 1
        }, {
            "time": 8744.791666666666,
            "duration": 250,
            "noteNumber": 42,
            "velocity": 45,
            "programNumber": 1
        }, {
            "time": 8994.791666666666,
            "duration": 125,
            "noteNumber": 42,
            "velocity": 47,
            "programNumber": 1
        }, {
            "time": 8994.791666666666,
            "duration": 125,
            "noteNumber": 36,
            "velocity": 49,
            "programNumber": 1
        }, {
            "time": 9119.791666666666,
            "duration": 125,
            "noteNumber": 42,
            "velocity": 54,
            "programNumber": 1
        }, {
            "time": 9244.791666666666,
            "duration": 125,
            "noteNumber": 42,
            "velocity": 46,
            "programNumber": 1
        }, {
            "time": 9369.791666666666,
            "duration": 119.79166666666606,
            "noteNumber": 36,
            "velocity": 62,
            "programNumber": 1
        }, {
            "time": 9369.791666666666,
            "duration": 125,
            "noteNumber": 42,
            "velocity": 3,
            "programNumber": 1
        }, {
            "time": 9494.791666666666,
            "duration": 125,
            "noteNumber": 42,
            "velocity": 53,
            "programNumber": 1
        }, {
            "time": 9619.791666666666,
            "duration": 125,
            "noteNumber": 42,
            "velocity": 46,
            "programNumber": 1
        }, {
            "time": 9744.791666666666,
            "duration": 151.04166666666606,
            "noteNumber": 36,
            "velocity": 82,
            "programNumber": 1
        }, {
            "time": 9744.791666666666,
            "duration": 250,
            "noteNumber": 42,
            "velocity": 50,
            "programNumber": 1
        }, {
            "time": 9994.791666666666,
            "duration": 119.79166666666606,
            "noteNumber": 36,
            "velocity": 90,
            "programNumber": 1
        }, {
            "time": 9994.791666666666,
            "duration": 119.79166666666606,
            "noteNumber": 42,
            "velocity": 52,
            "programNumber": 1
        }, {
            "time": 10114.583333333332,
            "duration": 130.20833333333394,
            "noteNumber": 42,
            "velocity": 56,
            "programNumber": 1
        }, {
            "time": 10244.791666666666,
            "duration": 125,
            "noteNumber": 42,
            "velocity": 47,
            "programNumber": 1
        }, {
            "time": 10369.791666666666,
            "duration": 125,
            "noteNumber": 42,
            "velocity": 47,
            "programNumber": 1
        }, {
            "time": 10369.791666666666,
            "duration": 125,
            "noteNumber": 36,
            "velocity": 57,
            "programNumber": 1
        }, {
            "time": 10494.791666666666,
            "duration": 125,
            "noteNumber": 42,
            "velocity": 60,
            "programNumber": 1
        }, {
            "time": 10619.791666666666,
            "duration": 125,
            "noteNumber": 42,
            "velocity": 50,
            "programNumber": 1
        }, {
            "time": 10744.791666666666,
            "duration": 161.45833333333394,
            "noteNumber": 36,
            "velocity": 68,
            "programNumber": 1
        }, {
            "time": 10744.791666666666,
            "duration": 250,
            "noteNumber": 42,
            "velocity": 47,
            "programNumber": 1
        }, {
            "time": 10994.791666666666,
            "duration": 119.79166666666606,
            "noteNumber": 36,
            "velocity": 66,
            "programNumber": 1
        }, {
            "time": 10994.791666666666,
            "duration": 125,
            "noteNumber": 42,
            "velocity": 44,
            "programNumber": 1
        }, {
            "time": 11119.791666666666,
            "duration": 125,
            "noteNumber": 42,
            "velocity": 58,
            "programNumber": 1
        }, {
            "time": 11244.791666666666,
            "duration": 104.16666666666606,
            "noteNumber": 42,
            "velocity": 49,
            "programNumber": 1
        }, {
            "time": 11369.791666666666,
            "duration": 119.79166666666606,
            "noteNumber": 42,
            "velocity": 1,
            "programNumber": 1
        }, {
            "time": 11489.583333333332,
            "duration": 130.20833333333394,
            "noteNumber": 42,
            "velocity": 53,
            "programNumber": 1
        }, {
            "time": 11619.791666666666,
            "duration": 125,
            "noteNumber": 42,
            "velocity": 45,
            "programNumber": 1
        }, {
            "time": 11744.791666666666,
            "duration": 151.04166666666606,
            "noteNumber": 36,
            "velocity": 84,
            "programNumber": 1
        }, {
            "time": 11744.791666666666,
            "duration": 250,
            "noteNumber": 42,
            "velocity": 49,
            "programNumber": 1
        }, {
            "time": 11994.791666666666,
            "duration": 119.79166666666606,
            "noteNumber": 36,
            "velocity": 72,
            "programNumber": 1
        }, {
            "time": 11994.791666666666,
            "duration": 125,
            "noteNumber": 42,
            "velocity": 45,
            "programNumber": 1
        }, {
            "time": 12119.791666666666,
            "duration": 125,
            "noteNumber": 42,
            "velocity": 56,
            "programNumber": 1
        }, {
            "time": 12244.791666666666,
            "duration": 125,
            "noteNumber": 42,
            "velocity": 45,
            "programNumber": 1
        }, {
            "time": 12369.791666666666,
            "duration": 119.79166666666606,
            "noteNumber": 36,
            "velocity": 82,
            "programNumber": 1
        }, {
            "time": 12369.791666666666,
            "duration": 125,
            "noteNumber": 42,
            "velocity": 49,
            "programNumber": 1
        }, {
            "time": 12494.791666666666,
            "duration": 125,
            "noteNumber": 42,
            "velocity": 54,
            "programNumber": 1
        }, {
            "time": 12619.791666666666,
            "duration": 57.29166666666606,
            "noteNumber": 38,
            "velocity": 33,
            "programNumber": 1
        }, {
            "time": 12619.791666666666,
            "duration": 125,
            "noteNumber": 42,
            "velocity": 48,
            "programNumber": 1
        }, {
            "time": 12744.791666666666,
            "duration": 156.25,
            "noteNumber": 36,
            "velocity": 54,
            "programNumber": 1
        }, {
            "time": 12744.791666666666,
            "duration": 250,
            "noteNumber": 42,
            "velocity": 44,
            "programNumber": 1
        }, {
            "time": 12994.791666666666,
            "duration": 119.79166666666606,
            "noteNumber": 36,
            "velocity": 75,
            "programNumber": 1
        }, {
            "time": 12994.791666666666,
            "duration": 119.79166666666606,
            "noteNumber": 42,
            "velocity": 51,
            "programNumber": 1
        }, {
            "time": 13114.583333333332,
            "duration": 130.20833333333394,
            "noteNumber": 42,
            "velocity": 56,
            "programNumber": 1
        }, {
            "time": 13244.791666666666,
            "duration": 125,
            "noteNumber": 42,
            "velocity": 47,
            "programNumber": 1
        }, {
            "time": 13369.791666666666,
            "duration": 119.79166666666606,
            "noteNumber": 36,
            "velocity": 78,
            "programNumber": 1
        }, {
            "time": 13369.791666666666,
            "duration": 125,
            "noteNumber": 42,
            "velocity": 2,
            "programNumber": 1
        }, {
            "time": 13494.791666666666,
            "duration": 125,
            "noteNumber": 42,
            "velocity": 56,
            "programNumber": 1
        }, {
            "time": 13619.791666666666,
            "duration": 125,
            "noteNumber": 42,
            "velocity": 48,
            "programNumber": 1
        }, {
            "time": 13744.791666666666,
            "duration": 156.25,
            "noteNumber": 36,
            "velocity": 55,
            "programNumber": 1
        }, {
            "time": 13744.791666666666,
            "duration": 250,
            "noteNumber": 42,
            "velocity": 51,
            "programNumber": 1
        }, {
            "time": 13994.791666666666,
            "duration": 125,
            "noteNumber": 42,
            "velocity": 45,
            "programNumber": 1
        }, {
            "time": 13994.791666666666,
            "duration": 125,
            "noteNumber": 36,
            "velocity": 52,
            "programNumber": 1
        }, {
            "time": 14119.791666666666,
            "duration": 125,
            "noteNumber": 42,
            "velocity": 55,
            "programNumber": 1
        }, {
            "time": 14244.791666666666,
            "duration": 125,
            "noteNumber": 42,
            "velocity": 48,
            "programNumber": 1
        }, {
            "time": 14369.791666666666,
            "duration": 119.79166666666606,
            "noteNumber": 36,
            "velocity": 62,
            "programNumber": 1
        }, {
            "time": 14369.791666666666,
            "duration": 125,
            "noteNumber": 42,
            "velocity": 46,
            "programNumber": 1
        }, {
            "time": 14494.791666666666,
            "duration": 125,
            "noteNumber": 42,
            "velocity": 56,
            "programNumber": 1
        }, {
            "time": 14619.791666666666,
            "duration": 62.5,
            "noteNumber": 38,
            "velocity": 21,
            "programNumber": 1
        }, {
            "time": 14619.791666666666,
            "duration": 125,
            "noteNumber": 42,
            "velocity": 47,
            "programNumber": 1
        }, {
            "time": 14744.791666666666,
            "duration": 156.25,
            "noteNumber": 36,
            "velocity": 71,
            "programNumber": 1
        }, {
            "time": 14744.791666666666,
            "duration": 250,
            "noteNumber": 42,
            "velocity": 49,
            "programNumber": 1
        }, {
            "time": 14994.791666666666,
            "duration": 119.79166666666606,
            "noteNumber": 36,
            "velocity": 69,
            "programNumber": 1
        }, {
            "time": 14994.791666666666,
            "duration": 119.79166666666606,
            "noteNumber": 42,
            "velocity": 47,
            "programNumber": 1
        }, {
            "time": 15114.583333333332,
            "duration": 130.20833333333394,
            "noteNumber": 42,
            "velocity": 58,
            "programNumber": 1
        }, {
            "time": 15244.791666666666,
            "duration": 125,
            "noteNumber": 42,
            "velocity": 46,
            "programNumber": 1
        }, {
            "time": 15369.791666666666,
            "duration": 119.79166666666606,
            "noteNumber": 36,
            "velocity": 84,
            "programNumber": 1
        }, {
            "time": 15369.791666666666,
            "duration": 119.79166666666606,
            "noteNumber": 42,
            "velocity": 4,
            "programNumber": 1
        }, {
            "time": 15489.583333333332,
            "duration": 130.20833333333394,
            "noteNumber": 42,
            "velocity": 55,
            "programNumber": 1
        }, {
            "time": 15619.791666666666,
            "duration": 125,
            "noteNumber": 42,
            "velocity": 48,
            "programNumber": 1
        }, {
            "time": 15744.791666666666,
            "duration": 156.25,
            "noteNumber": 36,
            "velocity": 68,
            "programNumber": 1
        }, {
            "time": 15744.791666666666,
            "duration": 250,
            "noteNumber": 42,
            "velocity": 51,
            "programNumber": 1
        }, {
            "time": 15994.791666666666,
            "duration": 119.79166666666606,
            "noteNumber": 36,
            "velocity": 74,
            "programNumber": 1
        }, {
            "time": 15994.791666666666,
            "duration": 119.79166666666606,
            "noteNumber": 42,
            "velocity": 52,
            "programNumber": 1
        }, {
            "time": 16114.583333333332,
            "duration": 130.20833333333394,
            "noteNumber": 42,
            "velocity": 56,
            "programNumber": 1
        }, {
            "time": 16244.791666666666,
            "duration": 125,
            "noteNumber": 42,
            "velocity": 46,
            "programNumber": 1
        }, {
            "time": 16369.791666666666,
            "duration": 119.79166666666606,
            "noteNumber": 36,
            "velocity": 85,
            "programNumber": 1
        }, {
            "time": 16369.791666666666,
            "duration": 119.79166666666606,
            "noteNumber": 42,
            "velocity": 46,
            "programNumber": 1
        }, {
            "time": 16489.583333333332,
            "duration": 130.20833333333212,
            "noteNumber": 42,
            "velocity": 53,
            "programNumber": 1
        }, {
            "time": 16619.791666666664,
            "duration": 125,
            "noteNumber": 42,
            "velocity": 46,
            "programNumber": 1
        }, {
            "time": 16744.791666666664,
            "duration": 156.25,
            "noteNumber": 36,
            "velocity": 52,
            "programNumber": 1
        }, {
            "time": 16744.791666666664,
            "duration": 250,
            "noteNumber": 42,
            "velocity": 48,
            "programNumber": 1
        }, {
            "time": 16994.791666666664,
            "duration": 125,
            "noteNumber": 42,
            "velocity": 48,
            "programNumber": 1
        }, {
            "time": 16994.791666666664,
            "duration": 125,
            "noteNumber": 36,
            "velocity": 52,
            "programNumber": 1
        }, {
            "time": 17119.791666666664,
            "duration": 125,
            "noteNumber": 42,
            "velocity": 55,
            "programNumber": 1
        }, {
            "time": 17244.791666666664,
            "duration": 125,
            "noteNumber": 42,
            "velocity": 46,
            "programNumber": 1
        }, {
            "time": 17369.791666666664,
            "duration": 119.79166666666788,
            "noteNumber": 36,
            "velocity": 61,
            "programNumber": 1
        }, {
            "time": 17369.791666666664,
            "duration": 125,
            "noteNumber": 42,
            "velocity": 3,
            "programNumber": 1
        }, {
            "time": 17494.791666666664,
            "duration": 125,
            "noteNumber": 42,
            "velocity": 58,
            "programNumber": 1
        }, {
            "time": 17619.791666666664,
            "duration": 125,
            "noteNumber": 42,
            "velocity": 47,
            "programNumber": 1
        }, {
            "time": 17744.791666666664,
            "duration": 119.79166666666788,
            "noteNumber": 36,
            "velocity": 80,
            "programNumber": 1
        }, {
            "time": 17744.791666666664,
            "duration": 119.79166666666788,
            "noteNumber": 42,
            "velocity": 52,
            "programNumber": 1
        }, {
            "time": 17864.583333333332,
            "duration": 130.20833333333212,
            "noteNumber": 42,
            "velocity": 56,
            "programNumber": 1
        }, {
            "time": 17994.791666666664,
            "duration": 119.79166666666788,
            "noteNumber": 36,
            "velocity": 68,
            "programNumber": 1
        }, {
            "time": 17994.791666666664,
            "duration": 125,
            "noteNumber": 42,
            "velocity": 47,
            "programNumber": 1
        }, {
            "time": 18119.791666666664,
            "duration": 125,
            "noteNumber": 42,
            "velocity": 59,
            "programNumber": 1
        }, {
            "time": 18244.791666666664,
            "duration": 125,
            "noteNumber": 42,
            "velocity": 47,
            "programNumber": 1
        }, {
            "time": 18369.791666666664,
            "duration": 119.79166666666788,
            "noteNumber": 36,
            "velocity": 79,
            "programNumber": 1
        }, {
            "time": 18369.791666666664,
            "duration": 119.79166666666788,
            "noteNumber": 42,
            "velocity": 45,
            "programNumber": 1
        }, {
            "time": 18489.583333333332,
            "duration": 130.20833333333212,
            "noteNumber": 42,
            "velocity": 56,
            "programNumber": 1
        }, {
            "time": 18619.791666666664,
            "duration": 125,
            "noteNumber": 42,
            "velocity": 47,
            "programNumber": 1
        }, {
            "time": 18744.791666666664,
            "duration": 156.25,
            "noteNumber": 36,
            "velocity": 51,
            "programNumber": 1
        }, {
            "time": 18744.791666666664,
            "duration": 250,
            "noteNumber": 42,
            "velocity": 43,
            "programNumber": 1
        }, {
            "time": 18994.791666666664,
            "duration": 119.79166666666788,
            "noteNumber": 36,
            "velocity": 71,
            "programNumber": 1
        }, {
            "time": 18994.791666666664,
            "duration": 125,
            "noteNumber": 42,
            "velocity": 48,
            "programNumber": 1
        }, {
            "time": 19119.791666666664,
            "duration": 125,
            "noteNumber": 42,
            "velocity": 53,
            "programNumber": 1
        }, {
            "time": 19244.791666666664,
            "duration": 125,
            "noteNumber": 42,
            "velocity": 46,
            "programNumber": 1
        }, {
            "time": 19369.791666666664,
            "duration": 119.79166666666788,
            "noteNumber": 36,
            "velocity": 75,
            "programNumber": 1
        }, {
            "time": 19369.791666666664,
            "duration": 125,
            "noteNumber": 42,
            "velocity": 2,
            "programNumber": 1
        }, {
            "time": 19494.791666666664,
            "duration": 125,
            "noteNumber": 42,
            "velocity": 58,
            "programNumber": 1
        }, {
            "time": 19619.791666666664,
            "duration": 125,
            "noteNumber": 42,
            "velocity": 50,
            "programNumber": 1
        }, {
            "time": 19744.791666666664,
            "duration": 156.25,
            "noteNumber": 36,
            "velocity": 52,
            "programNumber": 1
        }, {
            "time": 19744.791666666664,
            "duration": 250,
            "noteNumber": 42,
            "velocity": 47,
            "programNumber": 1
        }, {
            "time": 19994.791666666664,
            "duration": 119.79166666666788,
            "noteNumber": 36,
            "velocity": 90,
            "programNumber": 1
        }, {
            "time": 19994.791666666664,
            "duration": 119.79166666666788,
            "noteNumber": 42,
            "velocity": 47,
            "programNumber": 1
        }, {
            "time": 20114.583333333332,
            "duration": 130.20833333333212,
            "noteNumber": 42,
            "velocity": 56,
            "programNumber": 1
        }, {
            "time": 20244.791666666664,
            "duration": 125,
            "noteNumber": 42,
            "velocity": 45,
            "programNumber": 1
        }, {
            "time": 20369.791666666664,
            "duration": 125,
            "noteNumber": 42,
            "velocity": 50,
            "programNumber": 1
        }, {
            "time": 20369.791666666664,
            "duration": 125,
            "noteNumber": 36,
            "velocity": 59,
            "programNumber": 1
        }, {
            "time": 20494.791666666664,
            "duration": 125,
            "noteNumber": 42,
            "velocity": 55,
            "programNumber": 1
        }, {
            "time": 20619.791666666664,
            "duration": 62.5,
            "noteNumber": 38,
            "velocity": 19,
            "programNumber": 1
        }, {
            "time": 20619.791666666664,
            "duration": 125,
            "noteNumber": 42,
            "velocity": 48,
            "programNumber": 1
        }, {
            "time": 20744.791666666664,
            "duration": 156.25,
            "noteNumber": 36,
            "velocity": 67,
            "programNumber": 1
        }, {
            "time": 20744.791666666664,
            "duration": 250,
            "noteNumber": 42,
            "velocity": 48,
            "programNumber": 1
        }, {
            "time": 20994.791666666664,
            "duration": 119.79166666666788,
            "noteNumber": 36,
            "velocity": 68,
            "programNumber": 1
        }, {
            "time": 20994.791666666664,
            "duration": 125,
            "noteNumber": 42,
            "velocity": 46,
            "programNumber": 1
        }, {
            "time": 21119.791666666664,
            "duration": 125,
            "noteNumber": 42,
            "velocity": 59,
            "programNumber": 1
        }, {
            "time": 21244.791666666664,
            "duration": 125,
            "noteNumber": 42,
            "velocity": 46,
            "programNumber": 1
        }, {
            "time": 21369.791666666664,
            "duration": 119.79166666666788,
            "noteNumber": 36,
            "velocity": 81,
            "programNumber": 1
        }, {
            "time": 21369.791666666664,
            "duration": 125,
            "noteNumber": 42,
            "velocity": 2,
            "programNumber": 1
        }, {
            "time": 21494.791666666664,
            "duration": 125,
            "noteNumber": 42,
            "velocity": 55,
            "programNumber": 1
        }, {
            "time": 21619.791666666664,
            "duration": 125,
            "noteNumber": 42,
            "velocity": 46,
            "programNumber": 1
        }, {
            "time": 21744.791666666664,
            "duration": 156.25,
            "noteNumber": 36,
            "velocity": 62,
            "programNumber": 1
        }, {
            "time": 21744.791666666664,
            "duration": 250,
            "noteNumber": 42,
            "velocity": 50,
            "programNumber": 1
        }, {
            "time": 21994.791666666664,
            "duration": 119.79166666666788,
            "noteNumber": 36,
            "velocity": 69,
            "programNumber": 1
        }, {
            "time": 21994.791666666664,
            "duration": 119.79166666666788,
            "noteNumber": 42,
            "velocity": 49,
            "programNumber": 1
        }, {
            "time": 22114.583333333332,
            "duration": 130.20833333333212,
            "noteNumber": 42,
            "velocity": 56,
            "programNumber": 1
        }, {
            "time": 22244.791666666664,
            "duration": 125,
            "noteNumber": 42,
            "velocity": 48,
            "programNumber": 1
        }, {
            "time": 22369.791666666664,
            "duration": 114.58333333333212,
            "noteNumber": 36,
            "velocity": 78,
            "programNumber": 1
        }, {
            "time": 22369.791666666664,
            "duration": 119.79166666666424,
            "noteNumber": 42,
            "velocity": 48,
            "programNumber": 1
        }, {
            "time": 22489.58333333333,
            "duration": 130.20833333333212,
            "noteNumber": 42,
            "velocity": 54,
            "programNumber": 1
        }, {
            "time": 22619.79166666666,
            "duration": 109.375,
            "noteNumber": 42,
            "velocity": 48,
            "programNumber": 1
        }, {
            "time": 22744.79166666666,
            "duration": 250,
            "noteNumber": 42,
            "velocity": 10,
            "programNumber": 1
        }, {
            "time": 22994.79166666666,
            "duration": 114.58333333333212,
            "noteNumber": 36,
            "velocity": 69,
            "programNumber": 1
        }, {
            "time": 22994.79166666666,
            "duration": 125,
            "noteNumber": 42,
            "velocity": 48,
            "programNumber": 1
        }, {
            "time": 23119.79166666666,
            "duration": 125,
            "noteNumber": 42,
            "velocity": 57,
            "programNumber": 1
        }, {
            "time": 23244.79166666666,
            "duration": 125,
            "noteNumber": 42,
            "velocity": 45,
            "programNumber": 1
        }, {
            "time": 23369.79166666666,
            "duration": 119.79166666666788,
            "noteNumber": 36,
            "velocity": 78,
            "programNumber": 1
        }, {
            "time": 23369.79166666666,
            "duration": 119.79166666666788,
            "noteNumber": 42,
            "velocity": 2,
            "programNumber": 1
        }, {
            "time": 23489.58333333333,
            "duration": 130.20833333333212,
            "noteNumber": 42,
            "velocity": 53,
            "programNumber": 1
        }, {
            "time": 23619.79166666666,
            "duration": 125,
            "noteNumber": 42,
            "velocity": 45,
            "programNumber": 1
        }, {
            "time": 23744.79166666666,
            "duration": 151.04166666666788,
            "noteNumber": 36,
            "velocity": 60,
            "programNumber": 1
        }, {
            "time": 23744.79166666666,
            "duration": 250,
            "noteNumber": 42,
            "velocity": 45,
            "programNumber": 1
        }, {
            "time": 23994.79166666666,
            "duration": 109.375,
            "noteNumber": 36,
            "velocity": 93,
            "programNumber": 1
        }, {
            "time": 23994.79166666666,
            "duration": 125,
            "noteNumber": 42,
            "velocity": 42,
            "programNumber": 1
        }, {
            "time": 24119.79166666666,
            "duration": 125,
            "noteNumber": 42,
            "velocity": 53,
            "programNumber": 1
        }, {
            "time": 24244.79166666666,
            "duration": 125,
            "noteNumber": 42,
            "velocity": 45,
            "programNumber": 1
        }, {
            "time": 24369.79166666666,
            "duration": 114.58333333333212,
            "noteNumber": 36,
            "velocity": 62,
            "programNumber": 1
        }, {
            "time": 24369.79166666666,
            "duration": 119.79166666666424,
            "noteNumber": 42,
            "velocity": 39,
            "programNumber": 1
        }, {
            "time": 24489.583333333325,
            "duration": 125,
            "noteNumber": 42,
            "velocity": 56,
            "programNumber": 1
        }, {
            "time": 24614.583333333325,
            "duration": 130.20833333333212,
            "noteNumber": 42,
            "velocity": 44,
            "programNumber": 1
        }, {
            "time": 24744.791666666657,
            "duration": 114.58333333333212,
            "noteNumber": 36,
            "velocity": 68,
            "programNumber": 1
        }, {
            "time": 24744.791666666657,
            "duration": 119.79166666666424,
            "noteNumber": 42,
            "velocity": 45,
            "programNumber": 1
        }, {
            "time": 24864.58333333332,
            "duration": 130.20833333333212,
            "noteNumber": 42,
            "velocity": 56,
            "programNumber": 1
        }, {
            "time": 24994.791666666653,
            "duration": 125,
            "noteNumber": 42,
            "velocity": 44,
            "programNumber": 1
        }, {
            "time": 25119.791666666653,
            "duration": 114.58333333333212,
            "noteNumber": 36,
            "velocity": 81,
            "programNumber": 1
        }, {
            "time": 25119.791666666653,
            "duration": 125,
            "noteNumber": 42,
            "velocity": 40,
            "programNumber": 1
        }, {
            "time": 25244.791666666653,
            "duration": 119.79166666666788,
            "noteNumber": 42,
            "velocity": 57,
            "programNumber": 1
        }, {
            "time": 25364.58333333332,
            "duration": 130.20833333333212,
            "noteNumber": 42,
            "velocity": 45,
            "programNumber": 1
        }, {
            "time": 25494.791666666653,
            "duration": 140.625,
            "noteNumber": 36,
            "velocity": 92,
            "programNumber": 1
        }, {
            "time": 25494.791666666653,
            "duration": 250,
            "noteNumber": 42,
            "velocity": 41,
            "programNumber": 1
        }, {
            "time": 25744.791666666653,
            "duration": 151.04166666666788,
            "noteNumber": 36,
            "velocity": 70,
            "programNumber": 1
        }, {
            "time": 25744.791666666653,
            "duration": 250,
            "noteNumber": 42,
            "velocity": 47,
            "programNumber": 1
        }, {
            "time": 25994.791666666653,
            "duration": 114.58333333333212,
            "noteNumber": 36,
            "velocity": 72,
            "programNumber": 1
        }, {
            "time": 25994.791666666653,
            "duration": 125,
            "noteNumber": 42,
            "velocity": 45,
            "programNumber": 1
        }, {
            "time": 26119.791666666653,
            "duration": 125,
            "noteNumber": 42,
            "velocity": 54,
            "programNumber": 1
        }, {
            "time": 26244.791666666653,
            "duration": 125,
            "noteNumber": 42,
            "velocity": 45,
            "programNumber": 1
        }, {
            "time": 26369.791666666653,
            "duration": 114.58333333333212,
            "noteNumber": 36,
            "velocity": 84,
            "programNumber": 1
        }, {
            "time": 26369.791666666653,
            "duration": 119.79166666666424,
            "noteNumber": 42,
            "velocity": 44,
            "programNumber": 1
        }, {
            "time": 26489.583333333318,
            "duration": 130.20833333333212,
            "noteNumber": 42,
            "velocity": 59,
            "programNumber": 1
        }, {
            "time": 26619.79166666665,
            "duration": 125,
            "noteNumber": 42,
            "velocity": 47,
            "programNumber": 1
        }, {
            "time": 26744.79166666665,
            "duration": 109.375,
            "noteNumber": 36,
            "velocity": 94,
            "programNumber": 1
        }, {
            "time": 26744.79166666665,
            "duration": 125,
            "noteNumber": 42,
            "velocity": 42,
            "programNumber": 1
        }, {
            "time": 26869.79166666665,
            "duration": 119.79166666666788,
            "noteNumber": 42,
            "velocity": 56,
            "programNumber": 1
        }, {
            "time": 26989.583333333318,
            "duration": 130.20833333333212,
            "noteNumber": 42,
            "velocity": 43,
            "programNumber": 1
        }, {
            "time": 27119.79166666665,
            "duration": 114.58333333333212,
            "noteNumber": 36,
            "velocity": 60,
            "programNumber": 1
        }, {
            "time": 27119.79166666665,
            "duration": 119.79166666666424,
            "noteNumber": 42,
            "velocity": 44,
            "programNumber": 1
        }, {
            "time": 27239.583333333314,
            "duration": 125,
            "noteNumber": 42,
            "velocity": 56,
            "programNumber": 1
        }, {
            "time": 27364.583333333314,
            "duration": 125,
            "noteNumber": 42,
            "velocity": 48,
            "programNumber": 1
        }, {
            "time": 27489.583333333314,
            "duration": 156.25,
            "noteNumber": 36,
            "velocity": 69,
            "programNumber": 1
        }, {
            "time": 27489.583333333314,
            "duration": 250,
            "noteNumber": 42,
            "velocity": 45,
            "programNumber": 1
        }, {
            "time": 27739.583333333314,
            "duration": 156.25,
            "noteNumber": 36,
            "velocity": 86,
            "programNumber": 1
        }, {
            "time": 27739.583333333314,
            "duration": 250,
            "noteNumber": 42,
            "velocity": 48,
            "programNumber": 1
        }, {
            "time": 27989.583333333314,
            "duration": 119.79166666666788,
            "noteNumber": 36,
            "velocity": 93,
            "programNumber": 1
        }, {
            "time": 27989.583333333314,
            "duration": 125,
            "noteNumber": 42,
            "velocity": 47,
            "programNumber": 1
        }, {
            "time": 28114.583333333314,
            "duration": 125,
            "noteNumber": 42,
            "velocity": 57,
            "programNumber": 1
        }, {
            "time": 28239.583333333314,
            "duration": 125,
            "noteNumber": 42,
            "velocity": 51,
            "programNumber": 1
        }, {
            "time": 28364.583333333314,
            "duration": 119.79166666666788,
            "noteNumber": 36,
            "velocity": 59,
            "programNumber": 1
        }, {
            "time": 28364.583333333314,
            "duration": 125,
            "noteNumber": 42,
            "velocity": 46,
            "programNumber": 1
        }, {
            "time": 28489.583333333314,
            "duration": 125,
            "noteNumber": 42,
            "velocity": 53,
            "programNumber": 1
        }, {
            "time": 28614.583333333314,
            "duration": 125,
            "noteNumber": 42,
            "velocity": 45,
            "programNumber": 1
        }, {
            "time": 28739.583333333314,
            "duration": 119.79166666666788,
            "noteNumber": 36,
            "velocity": 68,
            "programNumber": 1
        }, {
            "time": 28739.583333333314,
            "duration": 125,
            "noteNumber": 42,
            "velocity": 47,
            "programNumber": 1
        }, {
            "time": 28864.583333333314,
            "duration": 125,
            "noteNumber": 42,
            "velocity": 55,
            "programNumber": 1
        }, {
            "time": 28989.583333333314,
            "duration": 125,
            "noteNumber": 42,
            "velocity": 40,
            "programNumber": 1
        }, {
            "time": 29114.583333333314,
            "duration": 119.79166666666788,
            "noteNumber": 36,
            "velocity": 80,
            "programNumber": 1
        }, {
            "time": 29114.583333333314,
            "duration": 125,
            "noteNumber": 42,
            "velocity": 47,
            "programNumber": 1
        }, {
            "time": 29239.583333333314,
            "duration": 125,
            "noteNumber": 42,
            "velocity": 57,
            "programNumber": 1
        }, {
            "time": 29364.583333333314,
            "duration": 125,
            "noteNumber": 42,
            "velocity": 45,
            "programNumber": 1
        }, {
            "time": 29489.583333333314,
            "duration": 156.25,
            "noteNumber": 36,
            "velocity": 94,
            "programNumber": 1
        }, {
            "time": 29489.583333333314,
            "duration": 250,
            "noteNumber": 42,
            "velocity": 46,
            "programNumber": 1
        }, {
            "time": 29739.583333333314,
            "duration": 145.83333333333212,
            "noteNumber": 36,
            "velocity": 100,
            "programNumber": 1
        }, {
            "time": 29739.583333333314,
            "duration": 250,
            "noteNumber": 42,
            "velocity": 46,
            "programNumber": 1
        }, {
            "time": 29989.583333333314,
            "duration": 119.79166666666788,
            "noteNumber": 36,
            "velocity": 90,
            "programNumber": 1
        }, {
            "time": 29989.583333333314,
            "duration": 125,
            "noteNumber": 42,
            "velocity": 41,
            "programNumber": 1
        }, {
            "time": 30114.583333333314,
            "duration": 125,
            "noteNumber": 42,
            "velocity": 56,
            "programNumber": 1
        }, {
            "time": 30239.583333333314,
            "duration": 125,
            "noteNumber": 42,
            "velocity": 42,
            "programNumber": 1
        }, {
            "time": 30364.583333333314,
            "duration": 119.79166666666788,
            "noteNumber": 36,
            "velocity": 93,
            "programNumber": 1
        }, {
            "time": 30364.583333333314,
            "duration": 125,
            "noteNumber": 42,
            "velocity": 39,
            "programNumber": 1
        }, {
            "time": 30489.583333333314,
            "duration": 125,
            "noteNumber": 42,
            "velocity": 44,
            "programNumber": 1
        }, {
            "time": 30614.583333333314,
            "duration": 125,
            "noteNumber": 42,
            "velocity": 55,
            "programNumber": 1
        }, {
            "time": 30739.583333333314,
            "duration": 119.79166666666788,
            "noteNumber": 36,
            "velocity": 86,
            "programNumber": 1
        }, {
            "time": 30739.583333333314,
            "duration": 125,
            "noteNumber": 42,
            "velocity": 49,
            "programNumber": 1
        }, {
            "time": 30864.583333333314,
            "duration": 125,
            "noteNumber": 42,
            "velocity": 59,
            "programNumber": 1
        }, {
            "time": 30989.583333333314,
            "duration": 125,
            "noteNumber": 42,
            "velocity": 45,
            "programNumber": 1
        }, {
            "time": 31114.583333333314,
            "duration": 119.79166666666788,
            "noteNumber": 36,
            "velocity": 74,
            "programNumber": 1
        }, {
            "time": 31114.583333333314,
            "duration": 125,
            "noteNumber": 42,
            "velocity": 44,
            "programNumber": 1
        }, {
            "time": 31239.583333333314,
            "duration": 125,
            "noteNumber": 42,
            "velocity": 57,
            "programNumber": 1
        }, {
            "time": 31364.583333333314,
            "duration": 125,
            "noteNumber": 42,
            "velocity": 45,
            "programNumber": 1
        }, {
            "time": 31489.583333333314,
            "duration": 114.58333333333212,
            "noteNumber": 36,
            "velocity": 87,
            "programNumber": 1
        }, {
            "time": 31489.583333333314,
            "duration": 125,
            "noteNumber": 42,
            "velocity": 42,
            "programNumber": 1
        }, {
            "time": 31614.583333333314,
            "duration": 125,
            "noteNumber": 42,
            "velocity": 51,
            "programNumber": 1
        }, {
            "time": 31739.583333333314,
            "duration": 119.79166666666788,
            "noteNumber": 36,
            "velocity": 66,
            "programNumber": 1
        }, {
            "time": 31739.583333333314,
            "duration": 125,
            "noteNumber": 42,
            "velocity": 46,
            "programNumber": 1
        }, {
            "time": 31864.583333333314,
            "duration": 125,
            "noteNumber": 42,
            "velocity": 51,
            "programNumber": 1
        }, {
            "time": 31989.583333333314,
            "duration": 119.79166666666788,
            "noteNumber": 36,
            "velocity": 67,
            "programNumber": 1
        }, {
            "time": 31989.583333333314,
            "duration": 125,
            "noteNumber": 42,
            "velocity": 44,
            "programNumber": 1
        }, {
            "time": 32114.583333333314,
            "duration": 125,
            "noteNumber": 42,
            "velocity": 55,
            "programNumber": 1
        }, {
            "time": 32239.583333333314,
            "duration": 62.5,
            "noteNumber": 38,
            "velocity": 23,
            "programNumber": 1
        }, {
            "time": 32239.583333333314,
            "duration": 125,
            "noteNumber": 42,
            "velocity": 46,
            "programNumber": 1
        }, {
            "time": 32364.583333333314,
            "duration": 119.79166666666788,
            "noteNumber": 36,
            "velocity": 77,
            "programNumber": 1
        }, {
            "time": 32364.583333333314,
            "duration": 125,
            "noteNumber": 42,
            "velocity": 45,
            "programNumber": 1
        }, {
            "time": 32489.583333333314,
            "duration": 125,
            "noteNumber": 42,
            "velocity": 53,
            "programNumber": 1
        }, {
            "time": 32614.583333333314,
            "duration": 125,
            "noteNumber": 42,
            "velocity": 43,
            "programNumber": 1
        }, {
            "time": 32739.583333333314,
            "duration": 151.04166666666424,
            "noteNumber": 36,
            "velocity": 89,
            "programNumber": 1
        }, {
            "time": 32739.583333333314,
            "duration": 250,
            "noteNumber": 42,
            "velocity": 42,
            "programNumber": 1
        }, {
            "time": 32989.583333333314,
            "duration": 114.58333333333576,
            "noteNumber": 36,
            "velocity": 86,
            "programNumber": 1
        }, {
            "time": 32989.583333333314,
            "duration": 125,
            "noteNumber": 42,
            "velocity": 44,
            "programNumber": 1
        }, {
            "time": 33114.583333333314,
            "duration": 125,
            "noteNumber": 42,
            "velocity": 54,
            "programNumber": 1
        }, {
            "time": 33239.583333333314,
            "duration": 130.20833333333576,
            "noteNumber": 42,
            "velocity": 42,
            "programNumber": 1
        }, {
            "time": 33369.79166666665,
            "duration": 114.58333333333576,
            "noteNumber": 36,
            "velocity": 57,
            "programNumber": 1
        }, {
            "time": 33369.79166666665,
            "duration": 119.79166666667152,
            "noteNumber": 42,
            "velocity": 3,
            "programNumber": 1
        }, {
            "time": 33489.58333333332,
            "duration": 125,
            "noteNumber": 42,
            "velocity": 53,
            "programNumber": 1
        }, {
            "time": 33614.58333333332,
            "duration": 125,
            "noteNumber": 42,
            "velocity": 43,
            "programNumber": 1
        }, {
            "time": 33739.58333333332,
            "duration": 119.79166666666424,
            "noteNumber": 36,
            "velocity": 78,
            "programNumber": 1
        }, {
            "time": 33739.58333333332,
            "duration": 125,
            "noteNumber": 42,
            "velocity": 45,
            "programNumber": 1
        }, {
            "time": 33864.58333333332,
            "duration": 125,
            "noteNumber": 42,
            "velocity": 54,
            "programNumber": 1
        }, {
            "time": 33989.58333333332,
            "duration": 119.79166666666424,
            "noteNumber": 36,
            "velocity": 65,
            "programNumber": 1
        }, {
            "time": 33989.58333333332,
            "duration": 119.79166666666424,
            "noteNumber": 42,
            "velocity": 37,
            "programNumber": 1
        }, {
            "time": 34114.58333333332,
            "duration": 125,
            "noteNumber": 42,
            "velocity": 8,
            "programNumber": 1
        }, {
            "time": 34239.58333333332,
            "duration": 62.5,
            "noteNumber": 38,
            "velocity": 22,
            "programNumber": 1
        }, {
            "time": 34239.58333333332,
            "duration": 125,
            "noteNumber": 42,
            "velocity": 47,
            "programNumber": 1
        }, {
            "time": 34364.58333333332,
            "duration": 119.79166666666424,
            "noteNumber": 36,
            "velocity": 66,
            "programNumber": 1
        }, {
            "time": 34364.58333333332,
            "duration": 125,
            "noteNumber": 42,
            "velocity": 44,
            "programNumber": 1
        }, {
            "time": 34489.58333333332,
            "duration": 125,
            "noteNumber": 42,
            "velocity": 58,
            "programNumber": 1
        }, {
            "time": 34614.58333333332,
            "duration": 125,
            "noteNumber": 42,
            "velocity": 47,
            "programNumber": 1
        }, {
            "time": 34739.58333333332,
            "duration": 151.04166666666424,
            "noteNumber": 36,
            "velocity": 76,
            "programNumber": 1
        }, {
            "time": 34739.58333333332,
            "duration": 250,
            "noteNumber": 42,
            "velocity": 43,
            "programNumber": 1
        }, {
            "time": 34989.58333333332,
            "duration": 119.79166666666424,
            "noteNumber": 36,
            "velocity": 57,
            "programNumber": 1
        }, {
            "time": 34989.58333333332,
            "duration": 125,
            "noteNumber": 42,
            "velocity": 44,
            "programNumber": 1
        }, {
            "time": 35114.58333333332,
            "duration": 125,
            "noteNumber": 42,
            "velocity": 52,
            "programNumber": 1
        }, {
            "time": 35239.58333333332,
            "duration": 125,
            "noteNumber": 42,
            "velocity": 46,
            "programNumber": 1
        }, {
            "time": 35364.58333333332,
            "duration": 119.79166666666424,
            "noteNumber": 36,
            "velocity": 62,
            "programNumber": 1
        }, {
            "time": 35364.58333333332,
            "duration": 125,
            "noteNumber": 42,
            "velocity": 3,
            "programNumber": 1
        }, {
            "time": 35489.58333333332,
            "duration": 125,
            "noteNumber": 42,
            "velocity": 50,
            "programNumber": 1
        }, {
            "time": 35614.58333333332,
            "duration": 125,
            "noteNumber": 42,
            "velocity": 47,
            "programNumber": 1
        }, {
            "time": 35739.58333333332,
            "duration": 119.79166666666424,
            "noteNumber": 36,
            "velocity": 83,
            "programNumber": 1
        }, {
            "time": 35739.58333333332,
            "duration": 125,
            "noteNumber": 42,
            "velocity": 49,
            "programNumber": 1
        }, {
            "time": 35864.58333333332,
            "duration": 125,
            "noteNumber": 42,
            "velocity": 57,
            "programNumber": 1
        }, {
            "time": 35989.58333333332,
            "duration": 119.79166666666424,
            "noteNumber": 36,
            "velocity": 72,
            "programNumber": 1
        }, {
            "time": 35989.58333333332,
            "duration": 125,
            "noteNumber": 42,
            "velocity": 42,
            "programNumber": 1
        }, {
            "time": 36114.58333333332,
            "duration": 125,
            "noteNumber": 42,
            "velocity": 58,
            "programNumber": 1
        }, {
            "time": 36239.58333333332,
            "duration": 125,
            "noteNumber": 42,
            "velocity": 48,
            "programNumber": 1
        }, {
            "time": 36364.58333333332,
            "duration": 119.79166666666424,
            "noteNumber": 36,
            "velocity": 87,
            "programNumber": 1
        }, {
            "time": 36364.58333333332,
            "duration": 125,
            "noteNumber": 42,
            "velocity": 44,
            "programNumber": 1
        }, {
            "time": 36489.58333333332,
            "duration": 125,
            "noteNumber": 42,
            "velocity": 56,
            "programNumber": 1
        }, {
            "time": 36614.58333333332,
            "duration": 125,
            "noteNumber": 42,
            "velocity": 48,
            "programNumber": 1
        }, {
            "time": 36739.58333333332,
            "duration": 161.45833333333576,
            "noteNumber": 36,
            "velocity": 56,
            "programNumber": 1
        }, {
            "time": 36739.58333333332,
            "duration": 250,
            "noteNumber": 42,
            "velocity": 46,
            "programNumber": 1
        }, {
            "time": 36989.58333333332,
            "duration": 119.79166666666424,
            "noteNumber": 36,
            "velocity": 55,
            "programNumber": 1
        }, {
            "time": 36989.58333333332,
            "duration": 125,
            "noteNumber": 42,
            "velocity": 44,
            "programNumber": 1
        }, {
            "time": 37114.58333333332,
            "duration": 125,
            "noteNumber": 42,
            "velocity": 55,
            "programNumber": 1
        }, {
            "time": 37239.58333333332,
            "duration": 130.20833333333576,
            "noteNumber": 42,
            "velocity": 46,
            "programNumber": 1
        }, {
            "time": 37369.79166666666,
            "duration": 114.58333333333576,
            "noteNumber": 36,
            "velocity": 67,
            "programNumber": 1
        }, {
            "time": 37369.79166666666,
            "duration": 119.79166666667152,
            "noteNumber": 42,
            "velocity": 2,
            "programNumber": 1
        }, {
            "time": 37489.58333333333,
            "duration": 125,
            "noteNumber": 42,
            "velocity": 56,
            "programNumber": 1
        }, {
            "time": 37614.58333333333,
            "duration": 125,
            "noteNumber": 42,
            "velocity": 44,
            "programNumber": 1
        }, {
            "time": 37739.58333333333,
            "duration": 119.79166666666424,
            "noteNumber": 42,
            "velocity": 47,
            "programNumber": 1
        }, {
            "time": 37739.58333333333,
            "duration": 125,
            "noteNumber": 36,
            "velocity": 53,
            "programNumber": 1
        }, {
            "time": 37859.37499999999,
            "duration": 130.20833333333576,
            "noteNumber": 42,
            "velocity": 56,
            "programNumber": 1
        }, {
            "time": 37989.58333333333,
            "duration": 125,
            "noteNumber": 42,
            "velocity": 47,
            "programNumber": 1
        }, {
            "time": 37989.58333333333,
            "duration": 125,
            "noteNumber": 36,
            "velocity": 54,
            "programNumber": 1
        }, {
            "time": 38114.58333333333,
            "duration": 125,
            "noteNumber": 42,
            "velocity": 52,
            "programNumber": 1
        }, {
            "time": 38239.58333333333,
            "duration": 125,
            "noteNumber": 42,
            "velocity": 47,
            "programNumber": 1
        }, {
            "time": 38364.58333333333,
            "duration": 119.79166666666424,
            "noteNumber": 36,
            "velocity": 65,
            "programNumber": 1
        }, {
            "time": 38364.58333333333,
            "duration": 125,
            "noteNumber": 42,
            "velocity": 43,
            "programNumber": 1
        }, {
            "time": 38489.58333333333,
            "duration": 125,
            "noteNumber": 42,
            "velocity": 56,
            "programNumber": 1
        }, {
            "time": 38614.58333333333,
            "duration": 57.29166666666424,
            "noteNumber": 38,
            "velocity": 20,
            "programNumber": 1
        }, {
            "time": 38614.58333333333,
            "duration": 125,
            "noteNumber": 42,
            "velocity": 45,
            "programNumber": 1
        }, {
            "time": 38739.58333333333,
            "duration": 151.04166666666424,
            "noteNumber": 36,
            "velocity": 76,
            "programNumber": 1
        }, {
            "time": 38739.58333333333,
            "duration": 250,
            "noteNumber": 42,
            "velocity": 45,
            "programNumber": 1
        }, {
            "time": 38989.58333333333,
            "duration": 119.79166666666424,
            "noteNumber": 36,
            "velocity": 71,
            "programNumber": 1
        }, {
            "time": 38989.58333333333,
            "duration": 125,
            "noteNumber": 42,
            "velocity": 42,
            "programNumber": 1
        }, {
            "time": 39114.58333333333,
            "duration": 125,
            "noteNumber": 42,
            "velocity": 57,
            "programNumber": 1
        }, {
            "time": 39239.58333333333,
            "duration": 125,
            "noteNumber": 42,
            "velocity": 49,
            "programNumber": 1
        }, {
            "time": 39364.58333333333,
            "duration": 119.79166666666424,
            "noteNumber": 36,
            "velocity": 81,
            "programNumber": 1
        }, {
            "time": 39364.58333333333,
            "duration": 125,
            "noteNumber": 42,
            "velocity": 4,
            "programNumber": 1
        }, {
            "time": 39489.58333333333,
            "duration": 125,
            "noteNumber": 42,
            "velocity": 55,
            "programNumber": 1
        }, {
            "time": 39614.58333333333,
            "duration": 125,
            "noteNumber": 42,
            "velocity": 41,
            "programNumber": 1
        }, {
            "time": 39739.58333333333,
            "duration": 119.79166666666424,
            "noteNumber": 36,
            "velocity": 65,
            "programNumber": 1
        }, {
            "time": 39739.58333333333,
            "duration": 125,
            "noteNumber": 42,
            "velocity": 46,
            "programNumber": 1
        }, {
            "time": 39864.58333333333,
            "duration": 125,
            "noteNumber": 42,
            "velocity": 56,
            "programNumber": 1
        }, {
            "time": 39989.58333333333,
            "duration": 119.79166666666424,
            "noteNumber": 36,
            "velocity": 55,
            "programNumber": 1
        }, {
            "time": 39989.58333333333,
            "duration": 125,
            "noteNumber": 42,
            "velocity": 45,
            "programNumber": 1
        }, {
            "time": 40114.58333333333,
            "duration": 125,
            "noteNumber": 42,
            "velocity": 55,
            "programNumber": 1
        }, {
            "time": 40239.58333333333,
            "duration": 125,
            "noteNumber": 42,
            "velocity": 45,
            "programNumber": 1
        }, {
            "time": 40364.58333333333,
            "duration": 119.79166666666424,
            "noteNumber": 36,
            "velocity": 64,
            "programNumber": 1
        }, {
            "time": 40364.58333333333,
            "duration": 125,
            "noteNumber": 42,
            "velocity": 40,
            "programNumber": 1
        }, {
            "time": 40489.58333333333,
            "duration": 125,
            "noteNumber": 42,
            "velocity": 55,
            "programNumber": 1
        }, {
            "time": 40614.58333333333,
            "duration": 57.29166666666424,
            "noteNumber": 38,
            "velocity": 25,
            "programNumber": 1
        }, {
            "time": 40614.58333333333,
            "duration": 125,
            "noteNumber": 42,
            "velocity": 43,
            "programNumber": 1
        }, {
            "time": 40739.58333333333,
            "duration": 119.79166666666424,
            "noteNumber": 36,
            "velocity": 76,
            "programNumber": 1
        }, {
            "time": 40739.58333333333,
            "duration": 125,
            "noteNumber": 42,
            "velocity": 44,
            "programNumber": 1
        }, {
            "time": 40864.58333333333,
            "duration": 125,
            "noteNumber": 42,
            "velocity": 53,
            "programNumber": 1
        }, {
            "time": 40989.58333333333,
            "duration": 125,
            "noteNumber": 42,
            "velocity": 45,
            "programNumber": 1
        }, {
            "time": 41114.58333333333,
            "duration": 119.79166666666424,
            "noteNumber": 36,
            "velocity": 85,
            "programNumber": 1
        }, {
            "time": 41114.58333333333,
            "duration": 125,
            "noteNumber": 42,
            "velocity": 42,
            "programNumber": 1
        }, {
            "time": 41239.58333333333,
            "duration": 125,
            "noteNumber": 42,
            "velocity": 56,
            "programNumber": 1
        }, {
            "time": 41364.58333333333,
            "duration": 125,
            "noteNumber": 42,
            "velocity": 46,
            "programNumber": 1
        }, {
            "time": 41489.58333333333,
            "duration": 156.25,
            "noteNumber": 36,
            "velocity": 56,
            "programNumber": 1
        }, {
            "time": 41489.58333333333,
            "duration": 250,
            "noteNumber": 42,
            "velocity": 44,
            "programNumber": 1
        }, {
            "time": 41739.58333333333,
            "duration": 151.04166666666424,
            "noteNumber": 36,
            "velocity": 77,
            "programNumber": 1
        }, {
            "time": 41739.58333333333,
            "duration": 250,
            "noteNumber": 42,
            "velocity": 46,
            "programNumber": 1
        }, {
            "time": 41989.58333333333,
            "duration": 119.79166666666424,
            "noteNumber": 36,
            "velocity": 73,
            "programNumber": 1
        }, {
            "time": 41989.58333333333,
            "duration": 125,
            "noteNumber": 42,
            "velocity": 43,
            "programNumber": 1
        }, {
            "time": 42114.58333333333,
            "duration": 125,
            "noteNumber": 42,
            "velocity": 55,
            "programNumber": 1
        }, {
            "time": 42239.58333333333,
            "duration": 125,
            "noteNumber": 42,
            "velocity": 47,
            "programNumber": 1
        }, {
            "time": 42364.58333333333,
            "duration": 119.79166666666424,
            "noteNumber": 36,
            "velocity": 84,
            "programNumber": 1
        }, {
            "time": 42364.58333333333,
            "duration": 125,
            "noteNumber": 42,
            "velocity": 43,
            "programNumber": 1
        }, {
            "time": 42489.58333333333,
            "duration": 125,
            "noteNumber": 42,
            "velocity": 58,
            "programNumber": 1
        }, {
            "time": 42614.58333333333,
            "duration": 57.29166666666424,
            "noteNumber": 38,
            "velocity": 32,
            "programNumber": 1
        }, {
            "time": 42614.58333333333,
            "duration": 125,
            "noteNumber": 42,
            "velocity": 47,
            "programNumber": 1
        }, {
            "time": 42739.58333333333,
            "duration": 125,
            "noteNumber": 42,
            "velocity": 43,
            "programNumber": 1
        }, {
            "time": 42739.58333333333,
            "duration": 125,
            "noteNumber": 36,
            "velocity": 52,
            "programNumber": 1
        }, {
            "time": 42864.58333333333,
            "duration": 125,
            "noteNumber": 42,
            "velocity": 54,
            "programNumber": 1
        }, {
            "time": 42989.58333333333,
            "duration": 125,
            "noteNumber": 42,
            "velocity": 44,
            "programNumber": 1
        }, {
            "time": 43114.58333333333,
            "duration": 119.79166666666424,
            "noteNumber": 36,
            "velocity": 62,
            "programNumber": 1
        }, {
            "time": 43114.58333333333,
            "duration": 125,
            "noteNumber": 42,
            "velocity": 43,
            "programNumber": 1
        }, {
            "time": 43239.58333333333,
            "duration": 125,
            "noteNumber": 42,
            "velocity": 55,
            "programNumber": 1
        }, {
            "time": 43364.58333333333,
            "duration": 125,
            "noteNumber": 42,
            "velocity": 46,
            "programNumber": 1
        }, {
            "time": 43489.58333333333,
            "duration": 145.83333333333576,
            "noteNumber": 36,
            "velocity": 73,
            "programNumber": 1
        }, {
            "time": 43489.58333333333,
            "duration": 161.45833333333576,
            "noteNumber": 42,
            "velocity": 44,
            "programNumber": 1
        }, {
            "time": 43651.041666666664,
            "duration": 88.54166666666424,
            "noteNumber": 42,
            "velocity": 51,
            "programNumber": 1
        }, {
            "time": 43739.58333333333,
            "duration": 119.79166666666424,
            "noteNumber": 36,
            "velocity": 94,
            "programNumber": 1
        }, {
            "time": 43739.58333333333,
            "duration": 125,
            "noteNumber": 42,
            "velocity": 51,
            "programNumber": 1
        }, {
            "time": 43864.58333333333,
            "duration": 125,
            "noteNumber": 42,
            "velocity": 55,
            "programNumber": 1
        }, {
            "time": 43989.58333333333,
            "duration": 125,
            "noteNumber": 42,
            "velocity": 45,
            "programNumber": 1
        }, {
            "time": 43989.58333333333,
            "duration": 125,
            "noteNumber": 36,
            "velocity": 54,
            "programNumber": 1
        }, {
            "time": 44114.58333333333,
            "duration": 125,
            "noteNumber": 42,
            "velocity": 55,
            "programNumber": 1
        }, {
            "time": 44239.58333333333,
            "duration": 125,
            "noteNumber": 42,
            "velocity": 42,
            "programNumber": 1
        }, {
            "time": 44364.58333333333,
            "duration": 119.79166666666424,
            "noteNumber": 36,
            "velocity": 66,
            "programNumber": 1
        }, {
            "time": 44364.58333333333,
            "duration": 125,
            "noteNumber": 42,
            "velocity": 45,
            "programNumber": 1
        }, {
            "time": 44489.58333333333,
            "duration": 125,
            "noteNumber": 42,
            "velocity": 58,
            "programNumber": 1
        }, {
            "time": 44614.58333333333,
            "duration": 125,
            "noteNumber": 42,
            "velocity": 46,
            "programNumber": 1
        }, {
            "time": 44739.58333333333,
            "duration": 119.79166666666424,
            "noteNumber": 36,
            "velocity": 77,
            "programNumber": 1
        }, {
            "time": 44739.58333333333,
            "duration": 125,
            "noteNumber": 42,
            "velocity": 45,
            "programNumber": 1
        }, {
            "time": 44864.58333333333,
            "duration": 125,
            "noteNumber": 42,
            "velocity": 59,
            "programNumber": 1
        }, {
            "time": 44989.58333333333,
            "duration": 57.29166666666424,
            "noteNumber": 38,
            "velocity": 23,
            "programNumber": 1
        }, {
            "time": 44989.58333333333,
            "duration": 125,
            "noteNumber": 42,
            "velocity": 43,
            "programNumber": 1
        }, {
            "time": 45114.58333333333,
            "duration": 119.79166666666424,
            "noteNumber": 36,
            "velocity": 87,
            "programNumber": 1
        }, {
            "time": 45114.58333333333,
            "duration": 125,
            "noteNumber": 42,
            "velocity": 47,
            "programNumber": 1
        }, {
            "time": 45239.58333333333,
            "duration": 125,
            "noteNumber": 42,
            "velocity": 60,
            "programNumber": 1
        }, {
            "time": 45364.58333333333,
            "duration": 125,
            "noteNumber": 42,
            "velocity": 48,
            "programNumber": 1
        }, {
            "time": 45489.58333333333,
            "duration": 250,
            "noteNumber": 42,
            "velocity": 4,
            "programNumber": 1
        }, {
            "time": 45739.58333333333,
            "duration": 151.04166666666424,
            "noteNumber": 36,
            "velocity": 83,
            "programNumber": 1
        }, {
            "time": 45739.58333333333,
            "duration": 250,
            "noteNumber": 42,
            "velocity": 50,
            "programNumber": 1
        }, {
            "time": 45989.58333333333,
            "duration": 119.79166666666424,
            "noteNumber": 36,
            "velocity": 73,
            "programNumber": 1
        }, {
            "time": 45989.58333333333,
            "duration": 125,
            "noteNumber": 42,
            "velocity": 44,
            "programNumber": 1
        }, {
            "time": 46114.58333333333,
            "duration": 125,
            "noteNumber": 42,
            "velocity": 56,
            "programNumber": 1
        }, {
            "time": 46239.58333333333,
            "duration": 125,
            "noteNumber": 42,
            "velocity": 51,
            "programNumber": 1
        }, {
            "time": 46364.58333333333,
            "duration": 119.79166666666424,
            "noteNumber": 36,
            "velocity": 84,
            "programNumber": 1
        }, {
            "time": 46364.58333333333,
            "duration": 125,
            "noteNumber": 42,
            "velocity": 42,
            "programNumber": 1
        }, {
            "time": 46489.58333333333,
            "duration": 125,
            "noteNumber": 42,
            "velocity": 56,
            "programNumber": 1
        }, {
            "time": 46614.58333333333,
            "duration": 57.29166666666424,
            "noteNumber": 38,
            "velocity": 33,
            "programNumber": 1
        }, {
            "time": 46614.58333333333,
            "duration": 125,
            "noteNumber": 42,
            "velocity": 46,
            "programNumber": 1
        }, {
            "time": 46739.58333333333,
            "duration": 119.79166666666424,
            "noteNumber": 36,
            "velocity": 55,
            "programNumber": 1
        }, {
            "time": 46739.58333333333,
            "duration": 125,
            "noteNumber": 42,
            "velocity": 45,
            "programNumber": 1
        }, {
            "time": 46864.58333333333,
            "duration": 125,
            "noteNumber": 42,
            "velocity": 59,
            "programNumber": 1
        }, {
            "time": 46989.58333333333,
            "duration": 125,
            "noteNumber": 42,
            "velocity": 44,
            "programNumber": 1
        }, {
            "time": 47114.58333333333,
            "duration": 119.79166666666424,
            "noteNumber": 36,
            "velocity": 65,
            "programNumber": 1
        }, {
            "time": 47114.58333333333,
            "duration": 125,
            "noteNumber": 42,
            "velocity": 45,
            "programNumber": 1
        }, {
            "time": 47239.58333333333,
            "duration": 125,
            "noteNumber": 42,
            "velocity": 58,
            "programNumber": 1
        }, {
            "time": 47364.58333333333,
            "duration": 125,
            "noteNumber": 42,
            "velocity": 48,
            "programNumber": 1
        }, {
            "time": 47489.58333333333,
            "duration": 119.79166666666424,
            "noteNumber": 36,
            "velocity": 73,
            "programNumber": 1
        }, {
            "time": 47489.58333333333,
            "duration": 125,
            "noteNumber": 42,
            "velocity": 47,
            "programNumber": 1
        }, {
            "time": 47614.58333333333,
            "duration": 125,
            "noteNumber": 42,
            "velocity": 57,
            "programNumber": 1
        }, {
            "time": 47739.58333333333,
            "duration": 125,
            "noteNumber": 42,
            "velocity": 49,
            "programNumber": 1
        }, {
            "time": 47739.58333333333,
            "duration": 125,
            "noteNumber": 36,
            "velocity": 55,
            "programNumber": 1
        }, {
            "time": 47864.58333333333,
            "duration": 125,
            "noteNumber": 42,
            "velocity": 56,
            "programNumber": 1
        }, {
            "time": 47989.58333333333,
            "duration": 119.79166666666424,
            "noteNumber": 36,
            "velocity": 52,
            "programNumber": 1
        }, {
            "time": 47989.58333333333,
            "duration": 125,
            "noteNumber": 42,
            "velocity": 46,
            "programNumber": 1
        }, {
            "time": 48114.58333333333,
            "duration": 125,
            "noteNumber": 42,
            "velocity": 57,
            "programNumber": 1
        }, {
            "time": 48239.58333333333,
            "duration": 125,
            "noteNumber": 42,
            "velocity": 45,
            "programNumber": 1
        }, {
            "time": 48364.58333333333,
            "duration": 119.79166666666424,
            "noteNumber": 36,
            "velocity": 62,
            "programNumber": 1
        }, {
            "time": 48364.58333333333,
            "duration": 119.79166666666424,
            "noteNumber": 42,
            "velocity": 46,
            "programNumber": 1
        }, {
            "time": 48484.37499999999,
            "duration": 130.20833333333576,
            "noteNumber": 42,
            "velocity": 58,
            "programNumber": 1
        }, {
            "time": 48614.58333333333,
            "duration": 125,
            "noteNumber": 42,
            "velocity": 45,
            "programNumber": 1
        }, {
            "time": 48739.58333333333,
            "duration": 156.25,
            "noteNumber": 36,
            "velocity": 72,
            "programNumber": 1
        }, {
            "time": 48739.58333333333,
            "duration": 250,
            "noteNumber": 42,
            "velocity": 47,
            "programNumber": 1
        }, {
            "time": 48989.58333333333,
            "duration": 119.79166666666424,
            "noteNumber": 36,
            "velocity": 70,
            "programNumber": 1
        }, {
            "time": 48989.58333333333,
            "duration": 125,
            "noteNumber": 42,
            "velocity": 44,
            "programNumber": 1
        }, {
            "time": 49114.58333333333,
            "duration": 125,
            "noteNumber": 42,
            "velocity": 56,
            "programNumber": 1
        }, {
            "time": 49239.58333333333,
            "duration": 125,
            "noteNumber": 42,
            "velocity": 47,
            "programNumber": 1
        }, {
            "time": 49364.58333333333,
            "duration": 125,
            "noteNumber": 42,
            "velocity": 3,
            "programNumber": 1
        }, {
            "time": 49364.58333333333,
            "duration": 125,
            "noteNumber": 36,
            "velocity": 50,
            "programNumber": 1
        }, {
            "time": 49489.58333333333,
            "duration": 125,
            "noteNumber": 42,
            "velocity": 55,
            "programNumber": 1
        }, {
            "time": 49614.58333333333,
            "duration": 125,
            "noteNumber": 42,
            "velocity": 46,
            "programNumber": 1
        }, {
            "time": 49739.58333333333,
            "duration": 156.25,
            "noteNumber": 36,
            "velocity": 67,
            "programNumber": 1
        }, {
            "time": 49739.58333333333,
            "duration": 250,
            "noteNumber": 42,
            "velocity": 51,
            "programNumber": 1
        }, {
            "time": 49989.58333333333,
            "duration": 119.79166666666424,
            "noteNumber": 36,
            "velocity": 73,
            "programNumber": 1
        }, {
            "time": 49989.58333333333,
            "duration": 119.79166666666424,
            "noteNumber": 42,
            "velocity": 47,
            "programNumber": 1
        }, {
            "time": 50109.37499999999,
            "duration": 130.20833333333576,
            "noteNumber": 42,
            "velocity": 55,
            "programNumber": 1
        }, {
            "time": 50239.58333333333,
            "duration": 125,
            "noteNumber": 42,
            "velocity": 47,
            "programNumber": 1
        }, {
            "time": 50364.58333333333,
            "duration": 119.79166666666424,
            "noteNumber": 36,
            "velocity": 86,
            "programNumber": 1
        }, {
            "time": 50364.58333333333,
            "duration": 119.79166666666424,
            "noteNumber": 42,
            "velocity": 49,
            "programNumber": 1
        }, {
            "time": 50484.37499999999,
            "duration": 130.20833333333576,
            "noteNumber": 42,
            "velocity": 58,
            "programNumber": 1
        }, {
            "time": 50614.58333333333,
            "duration": 125,
            "noteNumber": 42,
            "velocity": 46,
            "programNumber": 1
        }, {
            "time": 50739.58333333333,
            "duration": 156.25,
            "noteNumber": 36,
            "velocity": 55,
            "programNumber": 1
        }, {
            "time": 50739.58333333333,
            "duration": 250,
            "noteNumber": 42,
            "velocity": 47,
            "programNumber": 1
        }, {
            "time": 50989.58333333333,
            "duration": 119.79166666666424,
            "noteNumber": 42,
            "velocity": 48,
            "programNumber": 1
        }, {
            "time": 50989.58333333333,
            "duration": 125,
            "noteNumber": 36,
            "velocity": 54,
            "programNumber": 1
        }, {
            "time": 51109.37499999999,
            "duration": 130.20833333333576,
            "noteNumber": 42,
            "velocity": 51,
            "programNumber": 1
        }, {
            "time": 51239.58333333333,
            "duration": 125,
            "noteNumber": 42,
            "velocity": 43,
            "programNumber": 1
        }, {
            "time": 51364.58333333333,
            "duration": 119.79166666666424,
            "noteNumber": 36,
            "velocity": 63,
            "programNumber": 1
        }, {
            "time": 51364.58333333333,
            "duration": 125,
            "noteNumber": 42,
            "velocity": 3,
            "programNumber": 1
        }, {
            "time": 51489.58333333333,
            "duration": 125,
            "noteNumber": 42,
            "velocity": 55,
            "programNumber": 1
        }, {
            "time": 51614.58333333333,
            "duration": 125,
            "noteNumber": 42,
            "velocity": 46,
            "programNumber": 1
        }, {
            "time": 51739.58333333333,
            "duration": 119.79166666666424,
            "noteNumber": 36,
            "velocity": 79,
            "programNumber": 1
        }, {
            "time": 51739.58333333333,
            "duration": 125,
            "noteNumber": 42,
            "velocity": 48,
            "programNumber": 1
        }, {
            "time": 51864.58333333333,
            "duration": 125,
            "noteNumber": 42,
            "velocity": 54,
            "programNumber": 1
        }, {
            "time": 51989.58333333333,
            "duration": 119.79166666666424,
            "noteNumber": 36,
            "velocity": 71,
            "programNumber": 1
        }, {
            "time": 51989.58333333333,
            "duration": 119.79166666666424,
            "noteNumber": 42,
            "velocity": 45,
            "programNumber": 1
        }, {
            "time": 52109.37499999999,
            "duration": 130.20833333333576,
            "noteNumber": 42,
            "velocity": 55,
            "programNumber": 1
        }, {
            "time": 52239.58333333333,
            "duration": 125,
            "noteNumber": 42,
            "velocity": 48,
            "programNumber": 1
        }, {
            "time": 52364.58333333333,
            "duration": 119.79166666666424,
            "noteNumber": 36,
            "velocity": 81,
            "programNumber": 1
        }, {
            "time": 52364.58333333333,
            "duration": 125,
            "noteNumber": 42,
            "velocity": 44,
            "programNumber": 1
        }, {
            "time": 52489.58333333333,
            "duration": 125,
            "noteNumber": 42,
            "velocity": 57,
            "programNumber": 1
        }, {
            "time": 52614.58333333333,
            "duration": 125,
            "noteNumber": 42,
            "velocity": 47,
            "programNumber": 1
        }, {
            "time": 52739.58333333333,
            "duration": 156.25,
            "noteNumber": 36,
            "velocity": 53,
            "programNumber": 1
        }, {
            "time": 52739.58333333333,
            "duration": 250,
            "noteNumber": 42,
            "velocity": 43,
            "programNumber": 1
        }, {
            "time": 52989.58333333333,
            "duration": 119.79166666666424,
            "noteNumber": 36,
            "velocity": 53,
            "programNumber": 1
        }, {
            "time": 52989.58333333333,
            "duration": 119.79166666666424,
            "noteNumber": 42,
            "velocity": 45,
            "programNumber": 1
        }, {
            "time": 53109.37499999999,
            "duration": 130.20833333333576,
            "noteNumber": 42,
            "velocity": 53,
            "programNumber": 1
        }, {
            "time": 53239.58333333333,
            "duration": 125,
            "noteNumber": 42,
            "velocity": 45,
            "programNumber": 1
        }, {
            "time": 53364.58333333333,
            "duration": 119.79166666666424,
            "noteNumber": 36,
            "velocity": 69,
            "programNumber": 1
        }, {
            "time": 53364.58333333333,
            "duration": 119.79166666666424,
            "noteNumber": 42,
            "velocity": 2,
            "programNumber": 1
        }, {
            "time": 53484.37499999999,
            "duration": 130.20833333333576,
            "noteNumber": 42,
            "velocity": 55,
            "programNumber": 1
        }, {
            "time": 53614.58333333333,
            "duration": 125,
            "noteNumber": 42,
            "velocity": 50,
            "programNumber": 1
        }, {
            "time": 53739.58333333333,
            "duration": 156.25,
            "noteNumber": 36,
            "velocity": 50,
            "programNumber": 1
        }, {
            "time": 53739.58333333333,
            "duration": 250,
            "noteNumber": 42,
            "velocity": 47,
            "programNumber": 1
        }, {
            "time": 53989.58333333333,
            "duration": 125,
            "noteNumber": 42,
            "velocity": 49,
            "programNumber": 1
        }, {
            "time": 53989.58333333333,
            "duration": 125,
            "noteNumber": 36,
            "velocity": 53,
            "programNumber": 1
        }, {
            "time": 54114.58333333333,
            "duration": 125,
            "noteNumber": 42,
            "velocity": 57,
            "programNumber": 1
        }, {
            "time": 54239.58333333333,
            "duration": 125,
            "noteNumber": 42,
            "velocity": 47,
            "programNumber": 1
        }, {
            "time": 54364.58333333333,
            "duration": 114.58333333333576,
            "noteNumber": 36,
            "velocity": 62,
            "programNumber": 1
        }, {
            "time": 54364.58333333333,
            "duration": 125,
            "noteNumber": 42,
            "velocity": 48,
            "programNumber": 1
        }, {
            "time": 54489.58333333333,
            "duration": 125,
            "noteNumber": 42,
            "velocity": 55,
            "programNumber": 1
        }, {
            "time": 54614.58333333333,
            "duration": 125,
            "noteNumber": 42,
            "velocity": 52,
            "programNumber": 1
        }, {
            "time": 54739.58333333333,
            "duration": 156.25,
            "noteNumber": 36,
            "velocity": 69,
            "programNumber": 1
        }, {
            "time": 54739.58333333333,
            "duration": 250,
            "noteNumber": 42,
            "velocity": 44,
            "programNumber": 1
        }, {
            "time": 54989.58333333333,
            "duration": 114.58333333333576,
            "noteNumber": 36,
            "velocity": 68,
            "programNumber": 1
        }, {
            "time": 54989.58333333333,
            "duration": 125,
            "noteNumber": 42,
            "velocity": 44,
            "programNumber": 1
        }, {
            "time": 55114.58333333333,
            "duration": 125,
            "noteNumber": 42,
            "velocity": 59,
            "programNumber": 1
        }, {
            "time": 55239.58333333333,
            "duration": 125,
            "noteNumber": 42,
            "velocity": 45,
            "programNumber": 1
        }, {
            "time": 55364.58333333333,
            "duration": 119.79166666666424,
            "noteNumber": 36,
            "velocity": 83,
            "programNumber": 1
        }, {
            "time": 55364.58333333333,
            "duration": 125,
            "noteNumber": 42,
            "velocity": 4,
            "programNumber": 1
        }, {
            "time": 55489.58333333333,
            "duration": 125,
            "noteNumber": 42,
            "velocity": 58,
            "programNumber": 1
        }, {
            "time": 55614.58333333333,
            "duration": 125,
            "noteNumber": 42,
            "velocity": 46,
            "programNumber": 1
        }, {
            "time": 55739.58333333333,
            "duration": 125,
            "noteNumber": 42,
            "velocity": 46,
            "programNumber": 1
        }, {
            "time": 55739.58333333333,
            "duration": 125,
            "noteNumber": 36,
            "velocity": 63,
            "programNumber": 1
        }, {
            "time": 55864.58333333333,
            "duration": 125,
            "noteNumber": 42,
            "velocity": 56,
            "programNumber": 1
        }, {
            "time": 55989.58333333333,
            "duration": 119.79166666666424,
            "noteNumber": 42,
            "velocity": 50,
            "programNumber": 1
        }, {
            "time": 55989.58333333333,
            "duration": 125,
            "noteNumber": 36,
            "velocity": 54,
            "programNumber": 1
        }, {
            "time": 56109.37499999999,
            "duration": 130.20833333333576,
            "noteNumber": 42,
            "velocity": 55,
            "programNumber": 1
        }, {
            "time": 56239.58333333333,
            "duration": 125,
            "noteNumber": 42,
            "velocity": 35,
            "programNumber": 1
        }, {
            "time": 56364.58333333333,
            "duration": 119.79166666666424,
            "noteNumber": 36,
            "velocity": 50,
            "programNumber": 1
        }, {
            "time": 56364.58333333333,
            "duration": 125,
            "noteNumber": 42,
            "velocity": 32,
            "programNumber": 1
        }, {
            "time": 56489.58333333333,
            "duration": 125,
            "noteNumber": 42,
            "velocity": 76,
            "programNumber": 1
        }, {
            "time": 56614.58333333333,
            "duration": 57.29166666666424,
            "noteNumber": 38,
            "velocity": 20,
            "programNumber": 1
        }, {
            "time": 56614.58333333333,
            "duration": 125,
            "noteNumber": 42,
            "velocity": 36,
            "programNumber": 1
        }, {
            "time": 56739.58333333333,
            "duration": 130.20833333333576,
            "noteNumber": 42,
            "velocity": 30,
            "programNumber": 1
        }, {
            "time": 56739.58333333333,
            "duration": 135.41666666667152,
            "noteNumber": 36,
            "velocity": 73,
            "programNumber": 1
        }, {
            "time": 56989.583333333336,
            "duration": 114.58333333333576,
            "noteNumber": 36,
            "velocity": 93,
            "programNumber": 1
        }, {
            "time": 56989.583333333336,
            "duration": 119.79166666667152,
            "noteNumber": 42,
            "velocity": 56,
            "programNumber": 1
        }, {
            "time": 57109.37500000001,
            "duration": 130.20833333333576,
            "noteNumber": 42,
            "velocity": 54,
            "programNumber": 1
        }, {
            "time": 57239.58333333334,
            "duration": 125,
            "noteNumber": 42,
            "velocity": 45,
            "programNumber": 1
        }, {
            "time": 57364.58333333334,
            "duration": 119.79166666666424,
            "noteNumber": 36,
            "velocity": 87,
            "programNumber": 1
        }, {
            "time": 57364.58333333334,
            "duration": 125,
            "noteNumber": 42,
            "velocity": 4,
            "programNumber": 1
        }, {
            "time": 57489.58333333334,
            "duration": 125,
            "noteNumber": 42,
            "velocity": 57,
            "programNumber": 1
        }, {
            "time": 57614.58333333334,
            "duration": 125,
            "noteNumber": 42,
            "velocity": 46,
            "programNumber": 1
        }, {
            "time": 57739.58333333334,
            "duration": 151.04166666666424,
            "noteNumber": 36,
            "velocity": 63,
            "programNumber": 1
        }, {
            "time": 57739.58333333334,
            "duration": 250,
            "noteNumber": 42,
            "velocity": 49,
            "programNumber": 1
        }, {
            "time": 57989.58333333334,
            "duration": 114.58333333333576,
            "noteNumber": 36,
            "velocity": 58,
            "programNumber": 1
        }, {
            "time": 57989.58333333334,
            "duration": 125,
            "noteNumber": 42,
            "velocity": 49,
            "programNumber": 1
        }, {
            "time": 58114.58333333334,
            "duration": 119.79166666666424,
            "noteNumber": 42,
            "velocity": 52,
            "programNumber": 1
        }, {
            "time": 58234.37500000001,
            "duration": 130.20833333333576,
            "noteNumber": 42,
            "velocity": 43,
            "programNumber": 1
        }, {
            "time": 58364.58333333334,
            "duration": 114.58333333333576,
            "noteNumber": 36,
            "velocity": 68,
            "programNumber": 1
        }, {
            "time": 58364.58333333334,
            "duration": 119.79166666667152,
            "noteNumber": 42,
            "velocity": 47,
            "programNumber": 1
        }, {
            "time": 58484.375000000015,
            "duration": 125,
            "noteNumber": 42,
            "velocity": 53,
            "programNumber": 1
        }, {
            "time": 58609.375000000015,
            "duration": 67.70833333333576,
            "noteNumber": 38,
            "velocity": 25,
            "programNumber": 1
        }, {
            "time": 58609.375000000015,
            "duration": 130.20833333333576,
            "noteNumber": 42,
            "velocity": 45,
            "programNumber": 1
        }, {
            "time": 58739.58333333335,
            "duration": 151.04166666666424,
            "noteNumber": 36,
            "velocity": 77,
            "programNumber": 1
        }, {
            "time": 58739.58333333335,
            "duration": 250,
            "noteNumber": 42,
            "velocity": 50,
            "programNumber": 1
        }, {
            "time": 58989.58333333335,
            "duration": 114.58333333333576,
            "noteNumber": 36,
            "velocity": 74,
            "programNumber": 1
        }, {
            "time": 58989.58333333335,
            "duration": 125,
            "noteNumber": 42,
            "velocity": 46,
            "programNumber": 1
        }, {
            "time": 59114.58333333335,
            "duration": 119.79166666666424,
            "noteNumber": 42,
            "velocity": 55,
            "programNumber": 1
        }, {
            "time": 59234.375000000015,
            "duration": 130.20833333333576,
            "noteNumber": 42,
            "velocity": 46,
            "programNumber": 1
        }, {
            "time": 59364.58333333335,
            "duration": 119.79166666666424,
            "noteNumber": 36,
            "velocity": 55,
            "programNumber": 1
        }, {
            "time": 59364.58333333335,
            "duration": 125,
            "noteNumber": 42,
            "velocity": 3,
            "programNumber": 1
        }, {
            "time": 59489.58333333335,
            "duration": 119.79166666666424,
            "noteNumber": 42,
            "velocity": 55,
            "programNumber": 1
        }, {
            "time": 59609.375000000015,
            "duration": 130.20833333333576,
            "noteNumber": 42,
            "velocity": 46,
            "programNumber": 1
        }, {
            "time": 59739.58333333335,
            "duration": 114.58333333333576,
            "noteNumber": 36,
            "velocity": 71,
            "programNumber": 1
        }, {
            "time": 59739.58333333335,
            "duration": 119.79166666667152,
            "noteNumber": 42,
            "velocity": 54,
            "programNumber": 1
        }, {
            "time": 59859.37500000002,
            "duration": 125,
            "noteNumber": 42,
            "velocity": 52,
            "programNumber": 1
        }, {
            "time": 59984.37500000002,
            "duration": 119.79166666666424,
            "noteNumber": 36,
            "velocity": 78,
            "programNumber": 1
        }, {
            "time": 59984.37500000002,
            "duration": 130.20833333332848,
            "noteNumber": 42,
            "velocity": 56,
            "programNumber": 1
        }, {
            "time": 60114.58333333335,
            "duration": 125,
            "noteNumber": 42,
            "velocity": 54,
            "programNumber": 1
        }, {
            "time": 60239.58333333335,
            "duration": 125,
            "noteNumber": 42,
            "velocity": 43,
            "programNumber": 1
        }, {
            "time": 60364.58333333335,
            "duration": 114.58333333333576,
            "noteNumber": 36,
            "velocity": 89,
            "programNumber": 1
        }, {
            "time": 60364.58333333335,
            "duration": 125,
            "noteNumber": 42,
            "velocity": 49,
            "programNumber": 1
        }, {
            "time": 60489.58333333335,
            "duration": 119.79166666666424,
            "noteNumber": 42,
            "velocity": 59,
            "programNumber": 1
        }, {
            "time": 60609.375000000015,
            "duration": 125,
            "noteNumber": 42,
            "velocity": 44,
            "programNumber": 1
        }, {
            "time": 60734.375000000015,
            "duration": 156.25,
            "noteNumber": 36,
            "velocity": 59,
            "programNumber": 1
        }, {
            "time": 60734.375000000015,
            "duration": 250,
            "noteNumber": 42,
            "velocity": 50,
            "programNumber": 1
        }, {
            "time": 60984.375000000015,
            "duration": 119.79166666666424,
            "noteNumber": 36,
            "velocity": 57,
            "programNumber": 1
        }, {
            "time": 60984.375000000015,
            "duration": 125,
            "noteNumber": 42,
            "velocity": 46,
            "programNumber": 1
        }, {
            "time": 61109.375000000015,
            "duration": 125,
            "noteNumber": 42,
            "velocity": 55,
            "programNumber": 1
        }, {
            "time": 61234.375000000015,
            "duration": 130.20833333333576,
            "noteNumber": 42,
            "velocity": 46,
            "programNumber": 1
        }, {
            "time": 61364.58333333335,
            "duration": 119.79166666666424,
            "noteNumber": 36,
            "velocity": 69,
            "programNumber": 1
        }, {
            "time": 61364.58333333335,
            "duration": 119.79166666666424,
            "noteNumber": 42,
            "velocity": 2,
            "programNumber": 1
        }, {
            "time": 61484.375000000015,
            "duration": 125,
            "noteNumber": 42,
            "velocity": 55,
            "programNumber": 1
        }, {
            "time": 61609.375000000015,
            "duration": 125,
            "noteNumber": 42,
            "velocity": 45,
            "programNumber": 1
        }, {
            "time": 61734.375000000015,
            "duration": 156.25,
            "noteNumber": 36,
            "velocity": 85,
            "programNumber": 1
        }, {
            "time": 61734.375000000015,
            "duration": 250,
            "noteNumber": 42,
            "velocity": 51,
            "programNumber": 1
        }, {
            "time": 61984.375000000015,
            "duration": 119.79166666666424,
            "noteNumber": 36,
            "velocity": 76,
            "programNumber": 1
        }, {
            "time": 61984.375000000015,
            "duration": 125,
            "noteNumber": 42,
            "velocity": 48,
            "programNumber": 1
        }, {
            "time": 62109.375000000015,
            "duration": 125,
            "noteNumber": 42,
            "velocity": 52,
            "programNumber": 1
        }, {
            "time": 62234.375000000015,
            "duration": 125,
            "noteNumber": 42,
            "velocity": 44,
            "programNumber": 1
        }, {
            "time": 62359.375000000015,
            "duration": 119.79166666666424,
            "noteNumber": 36,
            "velocity": 89,
            "programNumber": 1
        }, {
            "time": 62359.375000000015,
            "duration": 125,
            "noteNumber": 42,
            "velocity": 45,
            "programNumber": 1
        }, {
            "time": 62484.375000000015,
            "duration": 125,
            "noteNumber": 42,
            "velocity": 51,
            "programNumber": 1
        }, {
            "time": 62609.375000000015,
            "duration": 67.70833333333576,
            "noteNumber": 38,
            "velocity": 18,
            "programNumber": 1
        }, {
            "time": 62609.375000000015,
            "duration": 125,
            "noteNumber": 42,
            "velocity": 44,
            "programNumber": 1
        }, {
            "time": 62734.375000000015,
            "duration": 156.25,
            "noteNumber": 36,
            "velocity": 61,
            "programNumber": 1
        }, {
            "time": 62734.375000000015,
            "duration": 250,
            "noteNumber": 42,
            "velocity": 52,
            "programNumber": 1
        }, {
            "time": 62984.375000000015,
            "duration": 125,
            "noteNumber": 42,
            "velocity": 56,
            "programNumber": 1
        }, {
            "time": 62984.375000000015,
            "duration": 130.20833333333576,
            "noteNumber": 36,
            "velocity": 64,
            "programNumber": 1
        }, {
            "time": 63109.375000000015,
            "duration": 125,
            "noteNumber": 42,
            "velocity": 65,
            "programNumber": 1
        }, {
            "time": 63234.375000000015,
            "duration": 130.20833333333576,
            "noteNumber": 42,
            "velocity": 57,
            "programNumber": 1
        }, {
            "time": 63364.58333333335,
            "duration": 119.79166666666424,
            "noteNumber": 42,
            "velocity": 3,
            "programNumber": 1
        }, {
            "time": 63364.58333333335,
            "duration": 125,
            "noteNumber": 36,
            "velocity": 74,
            "programNumber": 1
        }, {
            "time": 63484.375000000015,
            "duration": 125,
            "noteNumber": 42,
            "velocity": 65,
            "programNumber": 1
        }, {
            "time": 63609.375000000015,
            "duration": 125,
            "noteNumber": 42,
            "velocity": 57,
            "programNumber": 1
        }, {
            "time": 63734.375000000015,
            "duration": 156.25,
            "noteNumber": 36,
            "velocity": 57,
            "programNumber": 1
        }, {
            "time": 63734.375000000015,
            "duration": 250,
            "noteNumber": 42,
            "velocity": 57,
            "programNumber": 1
        }, {
            "time": 63984.375000000015,
            "duration": 125,
            "noteNumber": 42,
            "velocity": 55,
            "programNumber": 1
        }, {
            "time": 63984.375000000015,
            "duration": 130.20833333333576,
            "noteNumber": 36,
            "velocity": 61,
            "programNumber": 1
        }, {
            "time": 64109.375000000015,
            "duration": 125,
            "noteNumber": 42,
            "velocity": 63,
            "programNumber": 1
        }, {
            "time": 64234.375000000015,
            "duration": 125,
            "noteNumber": 42,
            "velocity": 59,
            "programNumber": 1
        }, {
            "time": 64359.375000000015,
            "duration": 130.20833333333576,
            "noteNumber": 36,
            "velocity": 71,
            "programNumber": 1
        }, {
            "time": 64359.375000000015,
            "duration": 130.20833333333576,
            "noteNumber": 42,
            "velocity": 53,
            "programNumber": 1
        }, {
            "time": 64489.58333333335,
            "duration": 119.79166666666424,
            "noteNumber": 42,
            "velocity": 65,
            "programNumber": 1
        }, {
            "time": 64609.375000000015,
            "duration": 125,
            "noteNumber": 42,
            "velocity": 57,
            "programNumber": 1
        }, {
            "time": 64734.375000000015,
            "duration": 156.25,
            "noteNumber": 36,
            "velocity": 79,
            "programNumber": 1
        }, {
            "time": 64734.375000000015,
            "duration": 250,
            "noteNumber": 42,
            "velocity": 44,
            "programNumber": 1
        }, {
            "time": 64984.375000000015,
            "duration": 119.79166666666424,
            "noteNumber": 36,
            "velocity": 75,
            "programNumber": 1
        }, {
            "time": 64984.375000000015,
            "duration": 125,
            "noteNumber": 42,
            "velocity": 48,
            "programNumber": 1
        }, {
            "time": 65109.375000000015,
            "duration": 125,
            "noteNumber": 42,
            "velocity": 54,
            "programNumber": 1
        }, {
            "time": 65234.375000000015,
            "duration": 62.5,
            "noteNumber": 38,
            "velocity": 44,
            "programNumber": 1
        }, {
            "time": 65234.375000000015,
            "duration": 130.20833333333576,
            "noteNumber": 42,
            "velocity": 46,
            "programNumber": 1
        }, {
            "time": 65364.58333333335,
            "duration": 114.58333333333576,
            "noteNumber": 36,
            "velocity": 89,
            "programNumber": 1
        }, {
            "time": 65364.58333333335,
            "duration": 119.79166666667152,
            "noteNumber": 42,
            "velocity": 4,
            "programNumber": 1
        }, {
            "time": 65484.37500000002,
            "duration": 125.00000000000728,
            "noteNumber": 42,
            "velocity": 53,
            "programNumber": 1
        }, {
            "time": 65609.37500000003,
            "duration": 62.5,
            "noteNumber": 38,
            "velocity": 44,
            "programNumber": 1
        }, {
            "time": 65609.37500000003,
            "duration": 125,
            "noteNumber": 42,
            "velocity": 45,
            "programNumber": 1
        }, {
            "time": 65734.37500000003,
            "duration": 156.25,
            "noteNumber": 36,
            "velocity": 67,
            "programNumber": 1
        }, {
            "time": 65734.37500000003,
            "duration": 250,
            "noteNumber": 42,
            "velocity": 48,
            "programNumber": 1
        }, {
            "time": 65984.37500000003,
            "duration": 119.79166666667152,
            "noteNumber": 36,
            "velocity": 58,
            "programNumber": 1
        }, {
            "time": 65984.37500000003,
            "duration": 125,
            "noteNumber": 42,
            "velocity": 46,
            "programNumber": 1
        }, {
            "time": 66109.37500000003,
            "duration": 125,
            "noteNumber": 42,
            "velocity": 54,
            "programNumber": 1
        }, {
            "time": 66234.37500000003,
            "duration": 125,
            "noteNumber": 42,
            "velocity": 50,
            "programNumber": 1
        }, {
            "time": 66234.37500000003,
            "duration": 166.66666666667152,
            "noteNumber": 38,
            "velocity": 46,
            "programNumber": 1
        }, {
            "time": 66359.37500000003,
            "duration": 119.79166666667152,
            "noteNumber": 36,
            "velocity": 66,
            "programNumber": 1
        }, {
            "time": 66359.37500000003,
            "duration": 125,
            "noteNumber": 42,
            "velocity": 45,
            "programNumber": 1
        }, {
            "time": 66484.37500000003,
            "duration": 125,
            "noteNumber": 42,
            "velocity": 58,
            "programNumber": 1
        }, {
            "time": 66609.37500000003,
            "duration": 125,
            "noteNumber": 42,
            "velocity": 43,
            "programNumber": 1
        }, {
            "time": 66609.37500000003,
            "duration": 187.5,
            "noteNumber": 38,
            "velocity": 27,
            "programNumber": 1
        }, {
            "time": 66734.37500000003,
            "duration": 156.25,
            "noteNumber": 36,
            "velocity": 77,
            "programNumber": 1
        }, {
            "time": 66734.37500000003,
            "duration": 250,
            "noteNumber": 42,
            "velocity": 46,
            "programNumber": 1
        }, {
            "time": 66984.37500000003,
            "duration": 62.5,
            "noteNumber": 38,
            "velocity": 22,
            "programNumber": 1
        }, {
            "time": 66984.37500000003,
            "duration": 119.79166666667152,
            "noteNumber": 36,
            "velocity": 58,
            "programNumber": 1
        }, {
            "time": 66984.37500000003,
            "duration": 125,
            "noteNumber": 42,
            "velocity": 52,
            "programNumber": 1
        }, {
            "time": 67109.37500000003,
            "duration": 93.75,
            "noteNumber": 38,
            "velocity": 31,
            "programNumber": 1
        }, {
            "time": 67109.37500000003,
            "duration": 125,
            "noteNumber": 42,
            "velocity": 55,
            "programNumber": 1
        }, {
            "time": 67234.37500000003,
            "duration": 130.20833333332848,
            "noteNumber": 42,
            "velocity": 45,
            "programNumber": 1
        }, {
            "time": 67234.37500000003,
            "duration": 145.83333333332848,
            "noteNumber": 38,
            "velocity": 45,
            "programNumber": 1
        }, {
            "time": 67364.58333333336,
            "duration": 114.58333333332848,
            "noteNumber": 36,
            "velocity": 66,
            "programNumber": 1
        }, {
            "time": 67364.58333333336,
            "duration": 119.79166666665697,
            "noteNumber": 42,
            "velocity": 5,
            "programNumber": 1
        }, {
            "time": 67484.37500000001,
            "duration": 109.375,
            "noteNumber": 38,
            "velocity": 26,
            "programNumber": 1
        }, {
            "time": 67484.37500000001,
            "duration": 125,
            "noteNumber": 42,
            "velocity": 55,
            "programNumber": 1
        }, {
            "time": 67609.37500000001,
            "duration": 125,
            "noteNumber": 42,
            "velocity": 44,
            "programNumber": 1
        }, {
            "time": 67609.37500000001,
            "duration": 187.5,
            "noteNumber": 38,
            "velocity": 47,
            "programNumber": 1
        }, {
            "time": 67734.37500000001,
            "duration": 156.25,
            "noteNumber": 36,
            "velocity": 79,
            "programNumber": 1
        }, {
            "time": 67734.37500000001,
            "duration": 250,
            "noteNumber": 42,
            "velocity": 50,
            "programNumber": 1
        }, {
            "time": 67984.37500000001,
            "duration": 72.91666666667152,
            "noteNumber": 38,
            "velocity": 23,
            "programNumber": 1
        }, {
            "time": 67984.37500000001,
            "duration": 119.79166666667152,
            "noteNumber": 36,
            "velocity": 80,
            "programNumber": 1
        }, {
            "time": 67984.37500000001,
            "duration": 125,
            "noteNumber": 42,
            "velocity": 49,
            "programNumber": 1
        }, {
            "time": 68109.37500000001,
            "duration": 93.75,
            "noteNumber": 38,
            "velocity": 29,
            "programNumber": 1
        }, {
            "time": 68109.37500000001,
            "duration": 140.625,
            "noteNumber": 42,
            "velocity": 55,
            "programNumber": 1
        }, {
            "time": 68359.37500000001,
            "duration": 93.75,
            "noteNumber": 38,
            "velocity": 25,
            "programNumber": 1
        }, {
            "time": 68359.37500000001,
            "duration": 119.79166666667152,
            "noteNumber": 36,
            "velocity": 89,
            "programNumber": 1
        }, {
            "time": 68359.37500000001,
            "duration": 125,
            "noteNumber": 42,
            "velocity": 46,
            "programNumber": 1
        }, {
            "time": 68484.37500000001,
            "duration": 93.75,
            "noteNumber": 38,
            "velocity": 31,
            "programNumber": 1
        }, {
            "time": 68484.37500000001,
            "duration": 125,
            "noteNumber": 42,
            "velocity": 54,
            "programNumber": 1
        }, {
            "time": 68609.37500000001,
            "duration": 125,
            "noteNumber": 42,
            "velocity": 37,
            "programNumber": 1
        }, {
            "time": 68609.37500000001,
            "duration": 208.33333333332848,
            "noteNumber": 38,
            "velocity": 49,
            "programNumber": 1
        }, {
            "time": 68734.37500000001,
            "duration": 161.45833333332848,
            "noteNumber": 36,
            "velocity": 59,
            "programNumber": 1
        }, {
            "time": 68734.37500000001,
            "duration": 250,
            "noteNumber": 42,
            "velocity": 50,
            "programNumber": 1
        }, {
            "time": 68984.37500000001,
            "duration": 98.95833333332848,
            "noteNumber": 38,
            "velocity": 28,
            "programNumber": 1
        }, {
            "time": 68984.37500000001,
            "duration": 125,
            "noteNumber": 42,
            "velocity": 46,
            "programNumber": 1
        }, {
            "time": 68984.37500000001,
            "duration": 125,
            "noteNumber": 36,
            "velocity": 55,
            "programNumber": 1
        }, {
            "time": 69109.37500000001,
            "duration": 98.95833333332848,
            "noteNumber": 38,
            "velocity": 30,
            "programNumber": 1
        }, {
            "time": 69109.37500000001,
            "duration": 125,
            "noteNumber": 42,
            "velocity": 52,
            "programNumber": 1
        }, {
            "time": 69234.37500000001,
            "duration": 130.20833333332848,
            "noteNumber": 42,
            "velocity": 37,
            "programNumber": 1
        }, {
            "time": 69234.37500000001,
            "duration": 145.83333333332848,
            "noteNumber": 38,
            "velocity": 53,
            "programNumber": 1
        }, {
            "time": 69364.58333333334,
            "duration": 119.79166666667152,
            "noteNumber": 42,
            "velocity": 3,
            "programNumber": 1
        }, {
            "time": 69364.58333333334,
            "duration": 125,
            "noteNumber": 36,
            "velocity": 61,
            "programNumber": 1
        }, {
            "time": 69484.37500000001,
            "duration": 125,
            "noteNumber": 38,
            "velocity": 27,
            "programNumber": 1
        }, {
            "time": 69484.37500000001,
            "duration": 125,
            "noteNumber": 42,
            "velocity": 51,
            "programNumber": 1
        }, {
            "time": 69609.37500000001,
            "duration": 125,
            "noteNumber": 42,
            "velocity": 39,
            "programNumber": 1
        }, {
            "time": 69609.37500000001,
            "duration": 213.54166666667152,
            "noteNumber": 38,
            "velocity": 50,
            "programNumber": 1
        }, {
            "time": 69734.37500000001,
            "duration": 161.45833333334303,
            "noteNumber": 36,
            "velocity": 88,
            "programNumber": 1
        }, {
            "time": 69734.37500000001,
            "duration": 250.00000000001455,
            "noteNumber": 42,
            "velocity": 52,
            "programNumber": 1
        }, {
            "time": 69984.37500000003,
            "duration": 109.375,
            "noteNumber": 38,
            "velocity": 24,
            "programNumber": 1
        }, {
            "time": 69984.37500000003,
            "duration": 119.79166666667152,
            "noteNumber": 36,
            "velocity": 76,
            "programNumber": 1
        }, {
            "time": 69984.37500000003,
            "duration": 125,
            "noteNumber": 42,
            "velocity": 48,
            "programNumber": 1
        }, {
            "time": 70109.37500000003,
            "duration": 125,
            "noteNumber": 38,
            "velocity": 30,
            "programNumber": 1
        }, {
            "time": 70109.37500000003,
            "duration": 125,
            "noteNumber": 42,
            "velocity": 54,
            "programNumber": 1
        }, {
            "time": 70234.37500000003,
            "duration": 125,
            "noteNumber": 38,
            "velocity": 49,
            "programNumber": 1
        }, {
            "time": 70234.37500000003,
            "duration": 125,
            "noteNumber": 42,
            "velocity": 41,
            "programNumber": 1
        }, {
            "time": 70359.37500000003,
            "duration": 88.54166666667152,
            "noteNumber": 38,
            "velocity": 27,
            "programNumber": 1
        }, {
            "time": 70359.37500000003,
            "duration": 119.79166666667152,
            "noteNumber": 36,
            "velocity": 86,
            "programNumber": 1
        }, {
            "time": 70359.37500000003,
            "duration": 125,
            "noteNumber": 42,
            "velocity": 46,
            "programNumber": 1
        }, {
            "time": 70484.37500000003,
            "duration": 125,
            "noteNumber": 42,
            "velocity": 55,
            "programNumber": 1
        }, {
            "time": 70609.37500000003,
            "duration": 125,
            "noteNumber": 38,
            "velocity": 33,
            "programNumber": 1
        }, {
            "time": 70609.37500000003,
            "duration": 125,
            "noteNumber": 42,
            "velocity": 37,
            "programNumber": 1
        }, {
            "time": 70734.37500000003,
            "duration": 98.95833333332848,
            "noteNumber": 38,
            "velocity": 41,
            "programNumber": 1
        }, {
            "time": 70734.37500000003,
            "duration": 161.45833333332848,
            "noteNumber": 36,
            "velocity": 57,
            "programNumber": 1
        }, {
            "time": 70734.37500000003,
            "duration": 250,
            "noteNumber": 42,
            "velocity": 43,
            "programNumber": 1
        }, {
            "time": 70984.37500000003,
            "duration": 62.5,
            "noteNumber": 38,
            "velocity": 18,
            "programNumber": 1
        }, {
            "time": 70984.37500000003,
            "duration": 125,
            "noteNumber": 42,
            "velocity": 50,
            "programNumber": 1
        }, {
            "time": 70984.37500000003,
            "duration": 125,
            "noteNumber": 36,
            "velocity": 77,
            "programNumber": 1
        }, {
            "time": 71109.37500000003,
            "duration": 93.75,
            "noteNumber": 38,
            "velocity": 29,
            "programNumber": 1
        }, {
            "time": 71109.37500000003,
            "duration": 125,
            "noteNumber": 42,
            "velocity": 50,
            "programNumber": 1
        }, {
            "time": 71234.37500000003,
            "duration": 125,
            "noteNumber": 42,
            "velocity": 40,
            "programNumber": 1
        }, {
            "time": 71234.37500000003,
            "duration": 135.41666666667152,
            "noteNumber": 38,
            "velocity": 42,
            "programNumber": 1
        }, {
            "time": 71359.37500000003,
            "duration": 119.79166666667152,
            "noteNumber": 36,
            "velocity": 75,
            "programNumber": 1
        }, {
            "time": 71359.37500000003,
            "duration": 125,
            "noteNumber": 42,
            "velocity": 3,
            "programNumber": 1
        }, {
            "time": 71484.37500000003,
            "duration": 125,
            "noteNumber": 38,
            "velocity": 19,
            "programNumber": 1
        }, {
            "time": 71484.37500000003,
            "duration": 125,
            "noteNumber": 42,
            "velocity": 52,
            "programNumber": 1
        }, {
            "time": 71609.37500000003,
            "duration": 125,
            "noteNumber": 42,
            "velocity": 37,
            "programNumber": 1
        }, {
            "time": 71609.37500000003,
            "duration": 218.75,
            "noteNumber": 38,
            "velocity": 43,
            "programNumber": 1
        }, {
            "time": 71734.37500000003,
            "duration": 125,
            "noteNumber": 42,
            "velocity": 50,
            "programNumber": 1
        }, {
            "time": 71734.37500000003,
            "duration": 125,
            "noteNumber": 36,
            "velocity": 56,
            "programNumber": 1
        }, {
            "time": 71859.37500000003,
            "duration": 125,
            "noteNumber": 38,
            "velocity": 22,
            "programNumber": 1
        }, {
            "time": 71859.37500000003,
            "duration": 125,
            "noteNumber": 42,
            "velocity": 54,
            "programNumber": 1
        }, {
            "time": 71984.37500000003,
            "duration": 62.5,
            "noteNumber": 38,
            "velocity": 27,
            "programNumber": 1
        }, {
            "time": 71984.37500000003,
            "duration": 125,
            "noteNumber": 42,
            "velocity": 51,
            "programNumber": 1
        }, {
            "time": 71984.37500000003,
            "duration": 125,
            "noteNumber": 36,
            "velocity": 56,
            "programNumber": 1
        }, {
            "time": 72109.37500000003,
            "duration": 125,
            "noteNumber": 38,
            "velocity": 30,
            "programNumber": 1
        }, {
            "time": 72109.37500000003,
            "duration": 125,
            "noteNumber": 42,
            "velocity": 51,
            "programNumber": 1
        }, {
            "time": 72234.37500000003,
            "duration": 125,
            "noteNumber": 42,
            "velocity": 40,
            "programNumber": 1
        }, {
            "time": 72234.37500000003,
            "duration": 145.83333333332848,
            "noteNumber": 38,
            "velocity": 40,
            "programNumber": 1
        }, {
            "time": 72359.37500000003,
            "duration": 125,
            "noteNumber": 42,
            "velocity": 46,
            "programNumber": 1
        }, {
            "time": 72359.37500000003,
            "duration": 125,
            "noteNumber": 36,
            "velocity": 66,
            "programNumber": 1
        }, {
            "time": 72484.37500000003,
            "duration": 98.95833333332848,
            "noteNumber": 38,
            "velocity": 17,
            "programNumber": 1
        }, {
            "time": 72484.37500000003,
            "duration": 125,
            "noteNumber": 42,
            "velocity": 50,
            "programNumber": 1
        }, {
            "time": 72609.37500000003,
            "duration": 125,
            "noteNumber": 38,
            "velocity": 22,
            "programNumber": 1
        }, {
            "time": 72609.37500000003,
            "duration": 125,
            "noteNumber": 42,
            "velocity": 40,
            "programNumber": 1
        }, {
            "time": 72734.37500000003,
            "duration": 72.91666666667152,
            "noteNumber": 38,
            "velocity": 26,
            "programNumber": 1
        }, {
            "time": 72734.37500000003,
            "duration": 161.45833333334303,
            "noteNumber": 36,
            "velocity": 78,
            "programNumber": 1
        }, {
            "time": 72734.37500000003,
            "duration": 250.00000000001455,
            "noteNumber": 42,
            "velocity": 47,
            "programNumber": 1
        }, {
            "time": 72984.37500000004,
            "duration": 125,
            "noteNumber": 42,
            "velocity": 51,
            "programNumber": 1
        }, {
            "time": 72984.37500000004,
            "duration": 125,
            "noteNumber": 36,
            "velocity": 74,
            "programNumber": 1
        }, {
            "time": 73109.37500000004,
            "duration": 125,
            "noteNumber": 42,
            "velocity": 53,
            "programNumber": 1
        }, {
            "time": 73234.37500000004,
            "duration": 125,
            "noteNumber": 42,
            "velocity": 40,
            "programNumber": 1
        }, {
            "time": 73359.37500000004,
            "duration": 119.79166666667152,
            "noteNumber": 36,
            "velocity": 79,
            "programNumber": 1
        }, {
            "time": 73234.37500000004,
            "duration": 250,
            "noteNumber": 38,
            "velocity": 51,
            "programNumber": 1
        }, {
            "time": 73359.37500000004,
            "duration": 125,
            "noteNumber": 42,
            "velocity": 1,
            "programNumber": 1
        }, {
            "time": 73484.37500000004,
            "duration": 104.16666666667152,
            "noteNumber": 38,
            "velocity": 22,
            "programNumber": 1
        }, {
            "time": 73484.37500000004,
            "duration": 125,
            "noteNumber": 42,
            "velocity": 53,
            "programNumber": 1
        }, {
            "time": 73609.37500000004,
            "duration": 125,
            "noteNumber": 42,
            "velocity": 38,
            "programNumber": 1
        }, {
            "time": 73609.37500000004,
            "duration": 213.54166666667152,
            "noteNumber": 38,
            "velocity": 46,
            "programNumber": 1
        }, {
            "time": 73734.37500000004,
            "duration": 161.45833333334303,
            "noteNumber": 36,
            "velocity": 69,
            "programNumber": 1
        }, {
            "time": 73734.37500000004,
            "duration": 250.00000000001455,
            "noteNumber": 42,
            "velocity": 48,
            "programNumber": 1
        }, {
            "time": 73984.37500000006,
            "duration": 109.375,
            "noteNumber": 38,
            "velocity": 18,
            "programNumber": 1
        }, {
            "time": 73984.37500000006,
            "duration": 125,
            "noteNumber": 42,
            "velocity": 47,
            "programNumber": 1
        }, {
            "time": 73984.37500000006,
            "duration": 125,
            "noteNumber": 36,
            "velocity": 56,
            "programNumber": 1
        }, {
            "time": 74109.37500000006,
            "duration": 104.16666666667152,
            "noteNumber": 38,
            "velocity": 25,
            "programNumber": 1
        }, {
            "time": 74109.37500000006,
            "duration": 125,
            "noteNumber": 42,
            "velocity": 51,
            "programNumber": 1
        }, {
            "time": 74234.37500000006,
            "duration": 125,
            "noteNumber": 42,
            "velocity": 39,
            "programNumber": 1
        }, {
            "time": 74234.37500000006,
            "duration": 166.66666666667152,
            "noteNumber": 38,
            "velocity": 46,
            "programNumber": 1
        }, {
            "time": 74359.37500000006,
            "duration": 119.79166666667152,
            "noteNumber": 36,
            "velocity": 66,
            "programNumber": 1
        }, {
            "time": 74359.37500000006,
            "duration": 125,
            "noteNumber": 42,
            "velocity": 45,
            "programNumber": 1
        }, {
            "time": 74484.37500000006,
            "duration": 125,
            "noteNumber": 42,
            "velocity": 55,
            "programNumber": 1
        }, {
            "time": 74609.37500000006,
            "duration": 125,
            "noteNumber": 42,
            "velocity": 37,
            "programNumber": 1
        }, {
            "time": 74609.37500000006,
            "duration": 166.66666666667152,
            "noteNumber": 38,
            "velocity": 24,
            "programNumber": 1
        }, {
            "time": 74734.37500000006,
            "duration": 151.04166666667152,
            "noteNumber": 36,
            "velocity": 76,
            "programNumber": 1
        }, {
            "time": 74734.37500000006,
            "duration": 250,
            "noteNumber": 42,
            "velocity": 45,
            "programNumber": 1
        }, {
            "time": 74984.37500000006,
            "duration": 125,
            "noteNumber": 42,
            "velocity": 51,
            "programNumber": 1
        }, {
            "time": 74984.37500000006,
            "duration": 125,
            "noteNumber": 36,
            "velocity": 59,
            "programNumber": 1
        }, {
            "time": 75109.37500000006,
            "duration": 125,
            "noteNumber": 42,
            "velocity": 55,
            "programNumber": 1
        }, {
            "time": 75234.37500000006,
            "duration": 125,
            "noteNumber": 42,
            "velocity": 39,
            "programNumber": 1
        }, {
            "time": 75234.37500000006,
            "duration": 135.41666666667152,
            "noteNumber": 38,
            "velocity": 43,
            "programNumber": 1
        }, {
            "time": 75359.37500000006,
            "duration": 125,
            "noteNumber": 42,
            "velocity": 3,
            "programNumber": 1
        }, {
            "time": 75359.37500000006,
            "duration": 130.20833333332848,
            "noteNumber": 36,
            "velocity": 58,
            "programNumber": 1
        }, {
            "time": 75484.37500000006,
            "duration": 125,
            "noteNumber": 42,
            "velocity": 55,
            "programNumber": 1
        }, {
            "time": 75609.37500000006,
            "duration": 125,
            "noteNumber": 42,
            "velocity": 39,
            "programNumber": 1
        }, {
            "time": 75609.37500000006,
            "duration": 145.83333333332848,
            "noteNumber": 38,
            "velocity": 48,
            "programNumber": 1
        }, {
            "time": 75734.37500000006,
            "duration": 161.45833333332848,
            "noteNumber": 36,
            "velocity": 81,
            "programNumber": 1
        }, {
            "time": 75734.37500000006,
            "duration": 250,
            "noteNumber": 42,
            "velocity": 51,
            "programNumber": 1
        }, {
            "time": 75984.37500000006,
            "duration": 119.79166666667152,
            "noteNumber": 36,
            "velocity": 79,
            "programNumber": 1
        }, {
            "time": 75984.37500000006,
            "duration": 125,
            "noteNumber": 42,
            "velocity": 47,
            "programNumber": 1
        }, {
            "time": 76109.37500000006,
            "duration": 125,
            "noteNumber": 42,
            "velocity": 56,
            "programNumber": 1
        }, {
            "time": 76234.37500000006,
            "duration": 125,
            "noteNumber": 42,
            "velocity": 38,
            "programNumber": 1
        }, {
            "time": 76234.37500000006,
            "duration": 140.625,
            "noteNumber": 38,
            "velocity": 45,
            "programNumber": 1
        }, {
            "time": 76359.37500000006,
            "duration": 119.79166666667152,
            "noteNumber": 36,
            "velocity": 90,
            "programNumber": 1
        }, {
            "time": 76359.37500000006,
            "duration": 125,
            "noteNumber": 42,
            "velocity": 47,
            "programNumber": 1
        }, {
            "time": 76484.37500000006,
            "duration": 125,
            "noteNumber": 42,
            "velocity": 55,
            "programNumber": 1
        }, {
            "time": 76609.37500000006,
            "duration": 125,
            "noteNumber": 42,
            "velocity": 38,
            "programNumber": 1
        }, {
            "time": 76609.37500000006,
            "duration": 151.04166666667152,
            "noteNumber": 38,
            "velocity": 47,
            "programNumber": 1
        }, {
            "time": 76734.37500000006,
            "duration": 161.45833333334303,
            "noteNumber": 36,
            "velocity": 60,
            "programNumber": 1
        }, {
            "time": 76734.37500000006,
            "duration": 250.00000000001455,
            "noteNumber": 42,
            "velocity": 46,
            "programNumber": 1
        }, {
            "time": 76984.37500000007,
            "duration": 125,
            "noteNumber": 42,
            "velocity": 45,
            "programNumber": 1
        }, {
            "time": 76984.37500000007,
            "duration": 125,
            "noteNumber": 36,
            "velocity": 57,
            "programNumber": 1
        }, {
            "time": 77109.37500000007,
            "duration": 125,
            "noteNumber": 42,
            "velocity": 50,
            "programNumber": 1
        }, {
            "time": 77234.37500000007,
            "duration": 125,
            "noteNumber": 42,
            "velocity": 37,
            "programNumber": 1
        }, {
            "time": 77234.37500000007,
            "duration": 145.83333333332848,
            "noteNumber": 38,
            "velocity": 49,
            "programNumber": 1
        }, {
            "time": 77359.37500000007,
            "duration": 119.79166666665697,
            "noteNumber": 36,
            "velocity": 64,
            "programNumber": 1
        }, {
            "time": 77359.37500000007,
            "duration": 124.99999999998545,
            "noteNumber": 42,
            "velocity": 1,
            "programNumber": 1
        }, {
            "time": 77484.37500000006,
            "duration": 125,
            "noteNumber": 42,
            "velocity": 54,
            "programNumber": 1
        }, {
            "time": 77609.37500000006,
            "duration": 125,
            "noteNumber": 42,
            "velocity": 39,
            "programNumber": 1
        }, {
            "time": 77609.37500000006,
            "duration": 145.83333333332848,
            "noteNumber": 38,
            "velocity": 52,
            "programNumber": 1
        }, {
            "time": 77734.37500000006,
            "duration": 161.45833333332848,
            "noteNumber": 36,
            "velocity": 93,
            "programNumber": 1
        }, {
            "time": 77734.37500000006,
            "duration": 250,
            "noteNumber": 42,
            "velocity": 48,
            "programNumber": 1
        }, {
            "time": 77984.37500000006,
            "duration": 119.79166666667152,
            "noteNumber": 36,
            "velocity": 79,
            "programNumber": 1
        }, {
            "time": 77984.37500000006,
            "duration": 125,
            "noteNumber": 42,
            "velocity": 45,
            "programNumber": 1
        }, {
            "time": 78109.37500000006,
            "duration": 125,
            "noteNumber": 42,
            "velocity": 56,
            "programNumber": 1
        }, {
            "time": 78234.37500000006,
            "duration": 125,
            "noteNumber": 42,
            "velocity": 38,
            "programNumber": 1
        }, {
            "time": 78234.37500000006,
            "duration": 145.83333333332848,
            "noteNumber": 38,
            "velocity": 49,
            "programNumber": 1
        }, {
            "time": 78359.37500000006,
            "duration": 119.79166666665697,
            "noteNumber": 36,
            "velocity": 90,
            "programNumber": 1
        }, {
            "time": 78359.37500000006,
            "duration": 124.99999999998545,
            "noteNumber": 42,
            "velocity": 46,
            "programNumber": 1
        }, {
            "time": 78484.37500000004,
            "duration": 125,
            "noteNumber": 42,
            "velocity": 52,
            "programNumber": 1
        }, {
            "time": 78609.37500000004,
            "duration": 125,
            "noteNumber": 42,
            "velocity": 39,
            "programNumber": 1
        }, {
            "time": 78609.37500000004,
            "duration": 156.25,
            "noteNumber": 38,
            "velocity": 35,
            "programNumber": 1
        }, {
            "time": 78734.37500000004,
            "duration": 161.45833333332848,
            "noteNumber": 36,
            "velocity": 60,
            "programNumber": 1
        }, {
            "time": 78734.37500000004,
            "duration": 250,
            "noteNumber": 42,
            "velocity": 45,
            "programNumber": 1
        }, {
            "time": 78984.37500000004,
            "duration": 125,
            "noteNumber": 42,
            "velocity": 49,
            "programNumber": 1
        }, {
            "time": 78984.37500000004,
            "duration": 125,
            "noteNumber": 36,
            "velocity": 82,
            "programNumber": 1
        }, {
            "time": 79109.37500000004,
            "duration": 125,
            "noteNumber": 42,
            "velocity": 53,
            "programNumber": 1
        }, {
            "time": 79234.37500000004,
            "duration": 125,
            "noteNumber": 42,
            "velocity": 38,
            "programNumber": 1
        }, {
            "time": 79234.37500000004,
            "duration": 171.875,
            "noteNumber": 38,
            "velocity": 45,
            "programNumber": 1
        }, {
            "time": 79359.37500000004,
            "duration": 119.79166666667152,
            "noteNumber": 36,
            "velocity": 78,
            "programNumber": 1
        }, {
            "time": 79359.37500000004,
            "duration": 125,
            "noteNumber": 42,
            "velocity": 2,
            "programNumber": 1
        }, {
            "time": 79484.37500000004,
            "duration": 62.5,
            "noteNumber": 38,
            "velocity": 19,
            "programNumber": 1
        }, {
            "time": 79484.37500000004,
            "duration": 145.83333333332848,
            "noteNumber": 42,
            "velocity": 53,
            "programNumber": 1
        }, {
            "time": 79734.37500000004,
            "duration": 119.79166666667152,
            "noteNumber": 36,
            "velocity": 78,
            "programNumber": 1
        }, {
            "time": 79734.37500000004,
            "duration": 119.79166666667152,
            "noteNumber": 42,
            "velocity": 49,
            "programNumber": 1
        }, {
            "time": 79854.16666666672,
            "duration": 130.20833333332848,
            "noteNumber": 42,
            "velocity": 52,
            "programNumber": 1
        }, {
            "time": 79984.37500000004,
            "duration": 119.79166666667152,
            "noteNumber": 36,
            "velocity": 71,
            "programNumber": 1
        }, {
            "time": 79984.37500000004,
            "duration": 125,
            "noteNumber": 42,
            "velocity": 46,
            "programNumber": 1
        }, {
            "time": 80109.37500000004,
            "duration": 125,
            "noteNumber": 42,
            "velocity": 54,
            "programNumber": 1
        }, {
            "time": 80234.37500000004,
            "duration": 67.70833333332848,
            "noteNumber": 38,
            "velocity": 27,
            "programNumber": 1
        }, {
            "time": 80234.37500000004,
            "duration": 125,
            "noteNumber": 42,
            "velocity": 44,
            "programNumber": 1
        }, {
            "time": 80359.37500000004,
            "duration": 119.79166666667152,
            "noteNumber": 36,
            "velocity": 84,
            "programNumber": 1
        }, {
            "time": 80359.37500000004,
            "duration": 125,
            "noteNumber": 42,
            "velocity": 44,
            "programNumber": 1
        }, {
            "time": 80484.37500000004,
            "duration": 125,
            "noteNumber": 42,
            "velocity": 53,
            "programNumber": 1
        }, {
            "time": 80609.37500000004,
            "duration": 125,
            "noteNumber": 42,
            "velocity": 45,
            "programNumber": 1
        }, {
            "time": 80734.37500000004,
            "duration": 140.625,
            "noteNumber": 36,
            "velocity": 53,
            "programNumber": 1
        }, {
            "time": 80734.37500000004,
            "duration": 250,
            "noteNumber": 42,
            "velocity": 47,
            "programNumber": 1
        }, {
            "time": 80984.37500000004,
            "duration": 119.79166666667152,
            "noteNumber": 36,
            "velocity": 53,
            "programNumber": 1
        }, {
            "time": 80984.37500000004,
            "duration": 125,
            "noteNumber": 42,
            "velocity": 42,
            "programNumber": 1
        }, {
            "time": 81109.37500000004,
            "duration": 125,
            "noteNumber": 42,
            "velocity": 55,
            "programNumber": 1
        }, {
            "time": 81234.37500000004,
            "duration": 130.20833333332848,
            "noteNumber": 42,
            "velocity": 43,
            "programNumber": 1
        }, {
            "time": 81364.58333333337,
            "duration": 114.58333333332848,
            "noteNumber": 36,
            "velocity": 65,
            "programNumber": 1
        }, {
            "time": 81364.58333333337,
            "duration": 119.79166666665697,
            "noteNumber": 42,
            "velocity": 2,
            "programNumber": 1
        }, {
            "time": 81484.37500000003,
            "duration": 62.5,
            "noteNumber": 38,
            "velocity": 19,
            "programNumber": 1
        }, {
            "time": 81484.37500000003,
            "duration": 125,
            "noteNumber": 42,
            "velocity": 53,
            "programNumber": 1
        }, {
            "time": 81609.37500000003,
            "duration": 125,
            "noteNumber": 42,
            "velocity": 45,
            "programNumber": 1
        }, {
            "time": 81734.37500000003,
            "duration": 135.41666666667152,
            "noteNumber": 36,
            "velocity": 88,
            "programNumber": 1
        }, {
            "time": 81734.37500000003,
            "duration": 250,
            "noteNumber": 42,
            "velocity": 48,
            "programNumber": 1
        }, {
            "time": 81984.37500000003,
            "duration": 119.79166666667152,
            "noteNumber": 36,
            "velocity": 74,
            "programNumber": 1
        }, {
            "time": 81984.37500000003,
            "duration": 125,
            "noteNumber": 42,
            "velocity": 45,
            "programNumber": 1
        }, {
            "time": 82109.37500000003,
            "duration": 125,
            "noteNumber": 42,
            "velocity": 57,
            "programNumber": 1
        }, {
            "time": 82234.37500000003,
            "duration": 125,
            "noteNumber": 42,
            "velocity": 45,
            "programNumber": 1
        }, {
            "time": 82359.37500000003,
            "duration": 114.58333333332848,
            "noteNumber": 36,
            "velocity": 86,
            "programNumber": 1
        }, {
            "time": 82359.37500000003,
            "duration": 125,
            "noteNumber": 42,
            "velocity": 44,
            "programNumber": 1
        }, {
            "time": 82484.37500000003,
            "duration": 125,
            "noteNumber": 42,
            "velocity": 51,
            "programNumber": 1
        }, {
            "time": 82609.37500000003,
            "duration": 67.70833333332848,
            "noteNumber": 38,
            "velocity": 19,
            "programNumber": 1
        }, {
            "time": 82609.37500000003,
            "duration": 125,
            "noteNumber": 42,
            "velocity": 44,
            "programNumber": 1
        }, {
            "time": 82734.37500000003,
            "duration": 130.20833333332848,
            "noteNumber": 36,
            "velocity": 57,
            "programNumber": 1
        }, {
            "time": 82734.37500000003,
            "duration": 250,
            "noteNumber": 42,
            "velocity": 41,
            "programNumber": 1
        }, {
            "time": 82984.37500000003,
            "duration": 119.79166666667152,
            "noteNumber": 36,
            "velocity": 75,
            "programNumber": 1
        }, {
            "time": 82984.37500000003,
            "duration": 125,
            "noteNumber": 42,
            "velocity": 47,
            "programNumber": 1
        }, {
            "time": 83109.37500000003,
            "duration": 125,
            "noteNumber": 42,
            "velocity": 53,
            "programNumber": 1
        }, {
            "time": 83234.37500000003,
            "duration": 125,
            "noteNumber": 42,
            "velocity": 46,
            "programNumber": 1
        }, {
            "time": 83359.37500000003,
            "duration": 119.79166666667152,
            "noteNumber": 36,
            "velocity": 79,
            "programNumber": 1
        }, {
            "time": 83359.37500000003,
            "duration": 125,
            "noteNumber": 42,
            "velocity": 2,
            "programNumber": 1
        }, {
            "time": 83484.37500000003,
            "duration": 62.5,
            "noteNumber": 38,
            "velocity": 21,
            "programNumber": 1
        }, {
            "time": 83484.37500000003,
            "duration": 125,
            "noteNumber": 42,
            "velocity": 54,
            "programNumber": 1
        }, {
            "time": 83609.37500000003,
            "duration": 125,
            "noteNumber": 42,
            "velocity": 45,
            "programNumber": 1
        }, {
            "time": 83734.37500000003,
            "duration": 140.625,
            "noteNumber": 36,
            "velocity": 59,
            "programNumber": 1
        }, {
            "time": 83734.37500000003,
            "duration": 250,
            "noteNumber": 42,
            "velocity": 47,
            "programNumber": 1
        }, {
            "time": 83984.37500000003,
            "duration": 119.79166666667152,
            "noteNumber": 36,
            "velocity": 55,
            "programNumber": 1
        }, {
            "time": 83984.37500000003,
            "duration": 119.79166666667152,
            "noteNumber": 42,
            "velocity": 45,
            "programNumber": 1
        }, {
            "time": 84104.1666666667,
            "duration": 130.20833333332848,
            "noteNumber": 42,
            "velocity": 56,
            "programNumber": 1
        }, {
            "time": 84234.37500000003,
            "duration": 125,
            "noteNumber": 42,
            "velocity": 45,
            "programNumber": 1
        }, {
            "time": 84359.37500000003,
            "duration": 119.79166666667152,
            "noteNumber": 36,
            "velocity": 64,
            "programNumber": 1
        }, {
            "time": 84359.37500000003,
            "duration": 125,
            "noteNumber": 42,
            "velocity": 41,
            "programNumber": 1
        }, {
            "time": 84484.37500000003,
            "duration": 125,
            "noteNumber": 42,
            "velocity": 54,
            "programNumber": 1
        }, {
            "time": 84609.37500000003,
            "duration": 67.70833333332848,
            "noteNumber": 38,
            "velocity": 23,
            "programNumber": 1
        }, {
            "time": 84609.37500000003,
            "duration": 125,
            "noteNumber": 42,
            "velocity": 45,
            "programNumber": 1
        }, {
            "time": 84734.37500000003,
            "duration": 130.20833333332848,
            "noteNumber": 36,
            "velocity": 73,
            "programNumber": 1
        }, {
            "time": 84734.37500000003,
            "duration": 250,
            "noteNumber": 42,
            "velocity": 43,
            "programNumber": 1
        }, {
            "time": 84984.37500000003,
            "duration": 119.79166666667152,
            "noteNumber": 36,
            "velocity": 72,
            "programNumber": 1
        }, {
            "time": 84984.37500000003,
            "duration": 125,
            "noteNumber": 42,
            "velocity": 46,
            "programNumber": 1
        }, {
            "time": 85109.37500000003,
            "duration": 125,
            "noteNumber": 42,
            "velocity": 59,
            "programNumber": 1
        }, {
            "time": 85234.37500000003,
            "duration": 125,
            "noteNumber": 42,
            "velocity": 44,
            "programNumber": 1
        }, {
            "time": 85359.37500000003,
            "duration": 125,
            "noteNumber": 42,
            "velocity": 3,
            "programNumber": 1
        }, {
            "time": 85359.37500000003,
            "duration": 130.20833333332848,
            "noteNumber": 36,
            "velocity": 49,
            "programNumber": 1
        }, {
            "time": 85484.37500000003,
            "duration": 62.5,
            "noteNumber": 38,
            "velocity": 24,
            "programNumber": 1
        }, {
            "time": 85484.37500000003,
            "duration": 125,
            "noteNumber": 42,
            "velocity": 54,
            "programNumber": 1
        }, {
            "time": 85609.37500000003,
            "duration": 125,
            "noteNumber": 42,
            "velocity": 45,
            "programNumber": 1
        }, {
            "time": 85734.37500000003,
            "duration": 140.625,
            "noteNumber": 36,
            "velocity": 68,
            "programNumber": 1
        }, {
            "time": 85734.37500000003,
            "duration": 250,
            "noteNumber": 42,
            "velocity": 48,
            "programNumber": 1
        }, {
            "time": 85984.37500000003,
            "duration": 119.79166666667152,
            "noteNumber": 36,
            "velocity": 55,
            "programNumber": 1
        }, {
            "time": 85984.37500000003,
            "duration": 125,
            "noteNumber": 42,
            "velocity": 44,
            "programNumber": 1
        }, {
            "time": 86109.37500000003,
            "duration": 125,
            "noteNumber": 42,
            "velocity": 54,
            "programNumber": 1
        }, {
            "time": 86234.37500000003,
            "duration": 125,
            "noteNumber": 42,
            "velocity": 44,
            "programNumber": 1
        }, {
            "time": 86359.37500000003,
            "duration": 119.79166666667152,
            "noteNumber": 36,
            "velocity": 66,
            "programNumber": 1
        }, {
            "time": 86359.37500000003,
            "duration": 125,
            "noteNumber": 42,
            "velocity": 47,
            "programNumber": 1
        }, {
            "time": 86484.37500000003,
            "duration": 125,
            "noteNumber": 42,
            "velocity": 55,
            "programNumber": 1
        }, {
            "time": 86609.37500000003,
            "duration": 57.29166666667152,
            "noteNumber": 38,
            "velocity": 27,
            "programNumber": 1
        }, {
            "time": 86609.37500000003,
            "duration": 125,
            "noteNumber": 42,
            "velocity": 42,
            "programNumber": 1
        }, {
            "time": 86734.37500000003,
            "duration": 140.625,
            "noteNumber": 36,
            "velocity": 55,
            "programNumber": 1
        }, {
            "time": 86734.37500000003,
            "duration": 250,
            "noteNumber": 42,
            "velocity": 48,
            "programNumber": 1
        }, {
            "time": 86984.37500000003,
            "duration": 119.79166666667152,
            "noteNumber": 36,
            "velocity": 58,
            "programNumber": 1
        }, {
            "time": 86984.37500000003,
            "duration": 125,
            "noteNumber": 42,
            "velocity": 46,
            "programNumber": 1
        }, {
            "time": 87109.37500000003,
            "duration": 125,
            "noteNumber": 42,
            "velocity": 54,
            "programNumber": 1
        }, {
            "time": 87234.37500000003,
            "duration": 125,
            "noteNumber": 42,
            "velocity": 46,
            "programNumber": 1
        }, {
            "time": 87359.37500000003,
            "duration": 119.79166666667152,
            "noteNumber": 36,
            "velocity": 68,
            "programNumber": 1
        }, {
            "time": 87359.37500000003,
            "duration": 125,
            "noteNumber": 42,
            "velocity": 45,
            "programNumber": 1
        }, {
            "time": 87484.37500000003,
            "duration": 125,
            "noteNumber": 42,
            "velocity": 54,
            "programNumber": 1
        }, {
            "time": 87609.37500000003,
            "duration": 125,
            "noteNumber": 42,
            "velocity": 46,
            "programNumber": 1
        }, {
            "time": 87734.37500000003,
            "duration": 119.79166666667152,
            "noteNumber": 36,
            "velocity": 79,
            "programNumber": 1
        }, {
            "time": 87734.37500000003,
            "duration": 125,
            "noteNumber": 42,
            "velocity": 48,
            "programNumber": 1
        }, {
            "time": 87859.37500000003,
            "duration": 125,
            "noteNumber": 42,
            "velocity": 56,
            "programNumber": 1
        }, {
            "time": 87984.37500000003,
            "duration": 119.79166666667152,
            "noteNumber": 36,
            "velocity": 78,
            "programNumber": 1
        }, {
            "time": 87984.37500000003,
            "duration": 125,
            "noteNumber": 42,
            "velocity": 49,
            "programNumber": 1
        }, {
            "time": 88109.37500000003,
            "duration": 125,
            "noteNumber": 42,
            "velocity": 58,
            "programNumber": 1
        }, {
            "time": 88234.37500000003,
            "duration": 125,
            "noteNumber": 42,
            "velocity": 46,
            "programNumber": 1
        }, {
            "time": 88359.37500000003,
            "duration": 119.79166666667152,
            "noteNumber": 36,
            "velocity": 89,
            "programNumber": 1
        }, {
            "time": 88359.37500000003,
            "duration": 125,
            "noteNumber": 42,
            "velocity": 44,
            "programNumber": 1
        }, {
            "time": 88484.37500000003,
            "duration": 125,
            "noteNumber": 42,
            "velocity": 58,
            "programNumber": 1
        }, {
            "time": 88609.37500000003,
            "duration": 62.5,
            "noteNumber": 38,
            "velocity": 31,
            "programNumber": 1
        }, {
            "time": 88609.37500000003,
            "duration": 125,
            "noteNumber": 42,
            "velocity": 44,
            "programNumber": 1
        }, {
            "time": 88734.37500000003,
            "duration": 140.625,
            "noteNumber": 36,
            "velocity": 58,
            "programNumber": 1
        }, {
            "time": 88734.37500000003,
            "duration": 250,
            "noteNumber": 42,
            "velocity": 44,
            "programNumber": 1
        }, {
            "time": 88984.37500000003,
            "duration": 119.79166666667152,
            "noteNumber": 36,
            "velocity": 56,
            "programNumber": 1
        }, {
            "time": 88984.37500000003,
            "duration": 125,
            "noteNumber": 42,
            "velocity": 44,
            "programNumber": 1
        }, {
            "time": 89109.37500000003,
            "duration": 125,
            "noteNumber": 42,
            "velocity": 55,
            "programNumber": 1
        }, {
            "time": 89234.37500000003,
            "duration": 125,
            "noteNumber": 42,
            "velocity": 44,
            "programNumber": 1
        }, {
            "time": 89359.37500000003,
            "duration": 119.79166666667152,
            "noteNumber": 36,
            "velocity": 68,
            "programNumber": 1
        }, {
            "time": 89359.37500000003,
            "duration": 125,
            "noteNumber": 42,
            "velocity": 2,
            "programNumber": 1
        }, {
            "time": 89484.37500000003,
            "duration": 57.29166666667152,
            "noteNumber": 38,
            "velocity": 18,
            "programNumber": 1
        }, {
            "time": 89484.37500000003,
            "duration": 125,
            "noteNumber": 42,
            "velocity": 55,
            "programNumber": 1
        }, {
            "time": 89609.37500000003,
            "duration": 125,
            "noteNumber": 42,
            "velocity": 43,
            "programNumber": 1
        }, {
            "time": 89734.37500000003,
            "duration": 140.625,
            "noteNumber": 36,
            "velocity": 48,
            "programNumber": 1
        }, {
            "time": 89734.37500000003,
            "duration": 250,
            "noteNumber": 42,
            "velocity": 46,
            "programNumber": 1
        }, {
            "time": 89984.37500000003,
            "duration": 119.79166666667152,
            "noteNumber": 36,
            "velocity": 76,
            "programNumber": 1
        }, {
            "time": 89984.37500000003,
            "duration": 125,
            "noteNumber": 42,
            "velocity": 42,
            "programNumber": 1
        }, {
            "time": 90109.37500000003,
            "duration": 125,
            "noteNumber": 42,
            "velocity": 53,
            "programNumber": 1
        }, {
            "time": 90234.37500000003,
            "duration": 125,
            "noteNumber": 42,
            "velocity": 45,
            "programNumber": 1
        }, {
            "time": 90359.37500000003,
            "duration": 119.79166666667152,
            "noteNumber": 36,
            "velocity": 49,
            "programNumber": 1
        }, {
            "time": 90359.37500000003,
            "duration": 125,
            "noteNumber": 42,
            "velocity": 46,
            "programNumber": 1
        }, {
            "time": 90484.37500000003,
            "duration": 125,
            "noteNumber": 42,
            "velocity": 53,
            "programNumber": 1
        }, {
            "time": 90609.37500000003,
            "duration": 67.70833333332848,
            "noteNumber": 38,
            "velocity": 20,
            "programNumber": 1
        }, {
            "time": 90609.37500000003,
            "duration": 125,
            "noteNumber": 42,
            "velocity": 42,
            "programNumber": 1
        }, {
            "time": 90734.37500000003,
            "duration": 130.20833333332848,
            "noteNumber": 36,
            "velocity": 58,
            "programNumber": 1
        }, {
            "time": 90734.37500000003,
            "duration": 270.8333333333285,
            "noteNumber": 42,
            "velocity": 43,
            "programNumber": 1
        }, {
            "time": 91104.16666666669,
            "duration": 130.20833333332848,
            "noteNumber": 42,
            "velocity": 52,
            "programNumber": 1
        }, {
            "time": 91234.37500000001,
            "duration": 130.20833333332848,
            "noteNumber": 42,
            "velocity": 45,
            "programNumber": 1
        }, {
            "time": 91364.58333333334,
            "duration": 114.58333333332848,
            "noteNumber": 36,
            "velocity": 59,
            "programNumber": 1
        }, {
            "time": 91364.58333333334,
            "duration": 119.79166666665697,
            "noteNumber": 42,
            "velocity": 2,
            "programNumber": 1
        }, {
            "time": 91484.375,
            "duration": 125,
            "noteNumber": 42,
            "velocity": 54,
            "programNumber": 1
        }, {
            "time": 91609.375,
            "duration": 125,
            "noteNumber": 42,
            "velocity": 44,
            "programNumber": 1
        }, {
            "time": 91734.375,
            "duration": 130.20833333332848,
            "noteNumber": 36,
            "velocity": 80,
            "programNumber": 1
        }, {
            "time": 91734.375,
            "duration": 250,
            "noteNumber": 42,
            "velocity": 46,
            "programNumber": 1
        }, {
            "time": 91984.375,
            "duration": 119.79166666667152,
            "noteNumber": 36,
            "velocity": 82,
            "programNumber": 1
        }, {
            "time": 91984.375,
            "duration": 125,
            "noteNumber": 42,
            "velocity": 45,
            "programNumber": 1
        }, {
            "time": 92109.375,
            "duration": 125,
            "noteNumber": 42,
            "velocity": 56,
            "programNumber": 1
        }, {
            "time": 92234.375,
            "duration": 125,
            "noteNumber": 42,
            "velocity": 43,
            "programNumber": 1
        }, {
            "time": 92359.375,
            "duration": 119.79166666667152,
            "noteNumber": 36,
            "velocity": 52,
            "programNumber": 1
        }, {
            "time": 92359.375,
            "duration": 125,
            "noteNumber": 42,
            "velocity": 43,
            "programNumber": 1
        }, {
            "time": 92484.375,
            "duration": 125,
            "noteNumber": 42,
            "velocity": 52,
            "programNumber": 1
        }, {
            "time": 92609.375,
            "duration": 57.29166666667152,
            "noteNumber": 38,
            "velocity": 34,
            "programNumber": 1
        }, {
            "time": 92609.375,
            "duration": 125,
            "noteNumber": 42,
            "velocity": 44,
            "programNumber": 1
        }, {
            "time": 92734.375,
            "duration": 140.625,
            "noteNumber": 36,
            "velocity": 61,
            "programNumber": 1
        }, {
            "time": 92734.375,
            "duration": 250,
            "noteNumber": 42,
            "velocity": 43,
            "programNumber": 1
        }, {
            "time": 92984.375,
            "duration": 119.79166666667152,
            "noteNumber": 36,
            "velocity": 62,
            "programNumber": 1
        }, {
            "time": 92984.375,
            "duration": 125,
            "noteNumber": 42,
            "velocity": 41,
            "programNumber": 1
        }, {
            "time": 93109.375,
            "duration": 125,
            "noteNumber": 42,
            "velocity": 58,
            "programNumber": 1
        }, {
            "time": 93234.375,
            "duration": 125,
            "noteNumber": 42,
            "velocity": 46,
            "programNumber": 1
        }, {
            "time": 93359.375,
            "duration": 119.79166666667152,
            "noteNumber": 36,
            "velocity": 72,
            "programNumber": 1
        }, {
            "time": 93359.375,
            "duration": 125,
            "noteNumber": 42,
            "velocity": 2,
            "programNumber": 1
        }, {
            "time": 93484.375,
            "duration": 62.5,
            "noteNumber": 38,
            "velocity": 19,
            "programNumber": 1
        }, {
            "time": 93484.375,
            "duration": 125,
            "noteNumber": 42,
            "velocity": 53,
            "programNumber": 1
        }, {
            "time": 93609.375,
            "duration": 125,
            "noteNumber": 42,
            "velocity": 43,
            "programNumber": 1
        }, {
            "time": 93734.375,
            "duration": 161.45833333332848,
            "noteNumber": 36,
            "velocity": 53,
            "programNumber": 1
        }, {
            "time": 93734.375,
            "duration": 250,
            "noteNumber": 42,
            "velocity": 47,
            "programNumber": 1
        }, {
            "time": 93984.375,
            "duration": 114.58333333332848,
            "noteNumber": 36,
            "velocity": 80,
            "programNumber": 1
        }, {
            "time": 93984.375,
            "duration": 125,
            "noteNumber": 42,
            "velocity": 41,
            "programNumber": 1
        }, {
            "time": 94109.375,
            "duration": 125,
            "noteNumber": 42,
            "velocity": 55,
            "programNumber": 1
        }, {
            "time": 94234.375,
            "duration": 125,
            "noteNumber": 42,
            "velocity": 44,
            "programNumber": 1
        }, {
            "time": 94359.375,
            "duration": 119.79166666667152,
            "noteNumber": 36,
            "velocity": 54,
            "programNumber": 1
        }, {
            "time": 94359.375,
            "duration": 125,
            "noteNumber": 42,
            "velocity": 42,
            "programNumber": 1
        }, {
            "time": 94484.375,
            "duration": 125,
            "noteNumber": 42,
            "velocity": 54,
            "programNumber": 1
        }, {
            "time": 94609.375,
            "duration": 67.70833333332848,
            "noteNumber": 38,
            "velocity": 21,
            "programNumber": 1
        }, {
            "time": 94609.375,
            "duration": 125,
            "noteNumber": 42,
            "velocity": 41,
            "programNumber": 1
        }, {
            "time": 94734.375,
            "duration": 130.20833333332848,
            "noteNumber": 36,
            "velocity": 62,
            "programNumber": 1
        }, {
            "time": 94734.375,
            "duration": 250,
            "noteNumber": 42,
            "velocity": 41,
            "programNumber": 1
        }, {
            "time": 94984.375,
            "duration": 119.79166666667152,
            "noteNumber": 36,
            "velocity": 62,
            "programNumber": 1
        }, {
            "time": 94984.375,
            "duration": 125,
            "noteNumber": 42,
            "velocity": 41,
            "programNumber": 1
        }, {
            "time": 95109.375,
            "duration": 125,
            "noteNumber": 42,
            "velocity": 58,
            "programNumber": 1
        }, {
            "time": 95234.375,
            "duration": 125,
            "noteNumber": 42,
            "velocity": 45,
            "programNumber": 1
        }, {
            "time": 95359.375,
            "duration": 119.79166666667152,
            "noteNumber": 36,
            "velocity": 78,
            "programNumber": 1
        }, {
            "time": 95359.375,
            "duration": 125,
            "noteNumber": 42,
            "velocity": 3,
            "programNumber": 1
        }, {
            "time": 95484.375,
            "duration": 57.29166666667152,
            "noteNumber": 38,
            "velocity": 21,
            "programNumber": 1
        }, {
            "time": 95484.375,
            "duration": 125,
            "noteNumber": 42,
            "velocity": 54,
            "programNumber": 1
        }, {
            "time": 95609.375,
            "duration": 125,
            "noteNumber": 42,
            "velocity": 44,
            "programNumber": 1
        }, {
            "time": 95734.375,
            "duration": 130.20833333332848,
            "noteNumber": 36,
            "velocity": 63,
            "programNumber": 1
        }, {
            "time": 95734.375,
            "duration": 250,
            "noteNumber": 42,
            "velocity": 46,
            "programNumber": 1
        }, {
            "time": 95984.375,
            "duration": 119.79166666667152,
            "noteNumber": 36,
            "velocity": 66,
            "programNumber": 1
        }, {
            "time": 95984.375,
            "duration": 125,
            "noteNumber": 42,
            "velocity": 45,
            "programNumber": 1
        }, {
            "time": 96109.375,
            "duration": 125,
            "noteNumber": 42,
            "velocity": 56,
            "programNumber": 1
        }, {
            "time": 96234.375,
            "duration": 125,
            "noteNumber": 42,
            "velocity": 46,
            "programNumber": 1
        }, {
            "time": 96359.375,
            "duration": 119.79166666667152,
            "noteNumber": 36,
            "velocity": 75,
            "programNumber": 1
        }, {
            "time": 96359.375,
            "duration": 125,
            "noteNumber": 42,
            "velocity": 46,
            "programNumber": 1
        }, {
            "time": 96484.375,
            "duration": 57.29166666667152,
            "noteNumber": 38,
            "velocity": 20,
            "programNumber": 1
        }, {
            "time": 96484.375,
            "duration": 125,
            "noteNumber": 42,
            "velocity": 53,
            "programNumber": 1
        }, {
            "time": 96609.375,
            "duration": 125,
            "noteNumber": 42,
            "velocity": 45,
            "programNumber": 1
        }, {
            "time": 96734.375,
            "duration": 140.625,
            "noteNumber": 36,
            "velocity": 48,
            "programNumber": 1
        }, {
            "time": 96734.375,
            "duration": 250,
            "noteNumber": 42,
            "velocity": 44,
            "programNumber": 1
        }, {
            "time": 96984.375,
            "duration": 119.79166666667152,
            "noteNumber": 36,
            "velocity": 87,
            "programNumber": 1
        }, {
            "time": 96984.375,
            "duration": 125,
            "noteNumber": 42,
            "velocity": 44,
            "programNumber": 1
        }, {
            "time": 97109.375,
            "duration": 125,
            "noteNumber": 42,
            "velocity": 56,
            "programNumber": 1
        }, {
            "time": 97234.375,
            "duration": 119.79166666667152,
            "noteNumber": 36,
            "velocity": 59,
            "programNumber": 1
        }, {
            "time": 97234.375,
            "duration": 125,
            "noteNumber": 42,
            "velocity": 45,
            "programNumber": 1
        }, {
            "time": 97359.375,
            "duration": 125,
            "noteNumber": 42,
            "velocity": 54,
            "programNumber": 1
        }, {
            "time": 97484.375,
            "duration": 119.79166666667152,
            "noteNumber": 36,
            "velocity": 48,
            "programNumber": 1
        }, {
            "time": 97484.375,
            "duration": 125,
            "noteNumber": 42,
            "velocity": 43,
            "programNumber": 1
        }, {
            "time": 97609.375,
            "duration": 125,
            "noteNumber": 42,
            "velocity": 58,
            "programNumber": 1
        }, {
            "time": 97734.375,
            "duration": 125,
            "noteNumber": 42,
            "velocity": 43,
            "programNumber": 1
        }, {
            "time": 97859.375,
            "duration": 119.79166666667152,
            "noteNumber": 36,
            "velocity": 57,
            "programNumber": 1
        }, {
            "time": 97859.375,
            "duration": 125,
            "noteNumber": 42,
            "velocity": 39,
            "programNumber": 1
        }, {
            "time": 97984.375,
            "duration": 125,
            "noteNumber": 42,
            "velocity": 57,
            "programNumber": 1
        }, {
            "time": 98109.375,
            "duration": 67.70833333332848,
            "noteNumber": 38,
            "velocity": 25,
            "programNumber": 1
        }, {
            "time": 98109.375,
            "duration": 125,
            "noteNumber": 42,
            "velocity": 44,
            "programNumber": 1
        }, {
            "time": 98234.375,
            "duration": 130.20833333332848,
            "noteNumber": 36,
            "velocity": 68,
            "programNumber": 1
        }, {
            "time": 98234.375,
            "duration": 250,
            "noteNumber": 42,
            "velocity": 43,
            "programNumber": 1
        }, {
            "time": 98484.375,
            "duration": 125,
            "noteNumber": 42,
            "velocity": 47,
            "programNumber": 1
        }, {
            "time": 98484.375,
            "duration": 125,
            "noteNumber": 36,
            "velocity": 48,
            "programNumber": 1
        }, {
            "time": 98609.375,
            "duration": 125,
            "noteNumber": 42,
            "velocity": 57,
            "programNumber": 1
        }, {
            "time": 98734.375,
            "duration": 119.79166666667152,
            "noteNumber": 36,
            "velocity": 58,
            "programNumber": 1
        }, {
            "time": 98734.375,
            "duration": 125,
            "noteNumber": 42,
            "velocity": 47,
            "programNumber": 1
        }, {
            "time": 98859.375,
            "duration": 125,
            "noteNumber": 42,
            "velocity": 56,
            "programNumber": 1
        }, {
            "time": 98984.375,
            "duration": 119.79166666667152,
            "noteNumber": 36,
            "velocity": 49,
            "programNumber": 1
        }, {
            "time": 98984.375,
            "duration": 119.79166666667152,
            "noteNumber": 42,
            "velocity": 42,
            "programNumber": 1
        }, {
            "time": 99104.16666666667,
            "duration": 130.20833333332848,
            "noteNumber": 42,
            "velocity": 55,
            "programNumber": 1
        }, {
            "time": 99234.375,
            "duration": 125,
            "noteNumber": 42,
            "velocity": 46,
            "programNumber": 1
        }, {
            "time": 99359.375,
            "duration": 119.79166666667152,
            "noteNumber": 36,
            "velocity": 55,
            "programNumber": 1
        }, {
            "time": 99359.375,
            "duration": 125,
            "noteNumber": 42,
            "velocity": 39,
            "programNumber": 1
        }, {
            "time": 99484.375,
            "duration": 125,
            "noteNumber": 42,
            "velocity": 53,
            "programNumber": 1
        }, {
            "time": 99609.375,
            "duration": 67.70833333332848,
            "noteNumber": 38,
            "velocity": 25,
            "programNumber": 1
        }, {
            "time": 99609.375,
            "duration": 125,
            "noteNumber": 42,
            "velocity": 43,
            "programNumber": 1
        }, {
            "time": 99734.375,
            "duration": 130.20833333332848,
            "noteNumber": 36,
            "velocity": 64,
            "programNumber": 1
        }, {
            "time": 99734.375,
            "duration": 250,
            "noteNumber": 42,
            "velocity": 45,
            "programNumber": 1
        }, {
            "time": 99984.375,
            "duration": 119.79166666667152,
            "noteNumber": 42,
            "velocity": 45,
            "programNumber": 1
        }, {
            "time": 99984.375,
            "duration": 125,
            "noteNumber": 36,
            "velocity": 49,
            "programNumber": 1
        }, {
            "time": 100104.16666666667,
            "duration": 130.20833333332848,
            "noteNumber": 42,
            "velocity": 58,
            "programNumber": 1
        }, {
            "time": 100234.375,
            "duration": 125,
            "noteNumber": 42,
            "velocity": 45,
            "programNumber": 1
        }, {
            "time": 100234.375,
            "duration": 125,
            "noteNumber": 36,
            "velocity": 54,
            "programNumber": 1
        }, {
            "time": 100359.375,
            "duration": 125,
            "noteNumber": 42,
            "velocity": 56,
            "programNumber": 1
        }, {
            "time": 100484.375,
            "duration": 119.79166666667152,
            "noteNumber": 36,
            "velocity": 48,
            "programNumber": 1
        }, {
            "time": 100484.375,
            "duration": 125,
            "noteNumber": 42,
            "velocity": 43,
            "programNumber": 1
        }, {
            "time": 100609.375,
            "duration": 125,
            "noteNumber": 42,
            "velocity": 57,
            "programNumber": 1
        }, {
            "time": 100734.375,
            "duration": 125,
            "noteNumber": 42,
            "velocity": 45,
            "programNumber": 1
        }, {
            "time": 100859.375,
            "duration": 119.79166666667152,
            "noteNumber": 36,
            "velocity": 57,
            "programNumber": 1
        }, {
            "time": 100859.375,
            "duration": 125,
            "noteNumber": 42,
            "velocity": 43,
            "programNumber": 1
        }, {
            "time": 100984.375,
            "duration": 125,
            "noteNumber": 42,
            "velocity": 52,
            "programNumber": 1
        }, {
            "time": 101109.375,
            "duration": 67.70833333332848,
            "noteNumber": 38,
            "velocity": 24,
            "programNumber": 1
        }, {
            "time": 101109.375,
            "duration": 125,
            "noteNumber": 42,
            "velocity": 45,
            "programNumber": 1
        }, {
            "time": 101234.375,
            "duration": 151.04166666667152,
            "noteNumber": 36,
            "velocity": 66,
            "programNumber": 1
        }, {
            "time": 101234.375,
            "duration": 250,
            "noteNumber": 42,
            "velocity": 40,
            "programNumber": 1
        }, {
            "time": 101484.375,
            "duration": 119.79166666667152,
            "noteNumber": 36,
            "velocity": 65,
            "programNumber": 1
        }, {
            "time": 101484.375,
            "duration": 119.79166666667152,
            "noteNumber": 42,
            "velocity": 40,
            "programNumber": 1
        }, {
            "time": 101604.16666666667,
            "duration": 130.20833333332848,
            "noteNumber": 42,
            "velocity": 55,
            "programNumber": 1
        }, {
            "time": 101734.375,
            "duration": 119.79166666667152,
            "noteNumber": 36,
            "velocity": 54,
            "programNumber": 1
        }, {
            "time": 101734.375,
            "duration": 125,
            "noteNumber": 42,
            "velocity": 46,
            "programNumber": 1
        }, {
            "time": 101859.375,
            "duration": 125,
            "noteNumber": 42,
            "velocity": 55,
            "programNumber": 1
        }, {
            "time": 101984.375,
            "duration": 119.79166666667152,
            "noteNumber": 36,
            "velocity": 50,
            "programNumber": 1
        }, {
            "time": 101984.375,
            "duration": 119.79166666667152,
            "noteNumber": 42,
            "velocity": 46,
            "programNumber": 1
        }, {
            "time": 102104.16666666667,
            "duration": 130.20833333332848,
            "noteNumber": 42,
            "velocity": 53,
            "programNumber": 1
        }, {
            "time": 102234.375,
            "duration": 156.25,
            "noteNumber": 42,
            "velocity": 46,
            "programNumber": 1
        }, {
            "time": 102484.375,
            "duration": 125,
            "noteNumber": 42,
            "velocity": 49,
            "programNumber": 1
        }, {
            "time": 102609.375,
            "duration": 125,
            "noteNumber": 42,
            "velocity": 46,
            "programNumber": 1
        }, {
            "time": 102734.375,
            "duration": 125,
            "noteNumber": 36,
            "velocity": 100,
            "programNumber": 1
        }, {
            "time": 102734.375,
            "duration": 250,
            "noteNumber": 42,
            "velocity": 42,
            "programNumber": 1
        }, {
            "time": 102984.375,
            "duration": 114.58333333332848,
            "noteNumber": 36,
            "velocity": 96,
            "programNumber": 1
        }, {
            "time": 102984.375,
            "duration": 125,
            "noteNumber": 42,
            "velocity": 38,
            "programNumber": 1
        }, {
            "time": 103109.375,
            "duration": 125,
            "noteNumber": 42,
            "velocity": 52,
            "programNumber": 1
        }, {
            "time": 103234.375,
            "duration": 119.79166666667152,
            "noteNumber": 36,
            "velocity": 78,
            "programNumber": 1
        }, {
            "time": 103234.375,
            "duration": 125,
            "noteNumber": 42,
            "velocity": 41,
            "programNumber": 1
        }, {
            "time": 103359.375,
            "duration": 125,
            "noteNumber": 42,
            "velocity": 51,
            "programNumber": 1
        }, {
            "time": 103484.375,
            "duration": 119.79166666667152,
            "noteNumber": 36,
            "velocity": 80,
            "programNumber": 1
        }, {
            "time": 103484.375,
            "duration": 125,
            "noteNumber": 42,
            "velocity": 41,
            "programNumber": 1
        }, {
            "time": 103609.375,
            "duration": 125,
            "noteNumber": 42,
            "velocity": 54,
            "programNumber": 1
        }, {
            "time": 103734.375,
            "duration": 125,
            "noteNumber": 42,
            "velocity": 43,
            "programNumber": 1
        }, {
            "time": 103859.375,
            "duration": 119.79166666667152,
            "noteNumber": 36,
            "velocity": 93,
            "programNumber": 1
        }, {
            "time": 103859.375,
            "duration": 125,
            "noteNumber": 42,
            "velocity": 43,
            "programNumber": 1
        }, {
            "time": 103984.375,
            "duration": 125,
            "noteNumber": 42,
            "velocity": 52,
            "programNumber": 1
        }, {
            "time": 104109.375,
            "duration": 125,
            "noteNumber": 42,
            "velocity": 44,
            "programNumber": 1
        }, {
            "time": 104234.375,
            "duration": 125,
            "noteNumber": 36,
            "velocity": 104,
            "programNumber": 1
        }, {
            "time": 104234.375,
            "duration": 250,
            "noteNumber": 42,
            "velocity": 39,
            "programNumber": 1
        }, {
            "time": 104484.375,
            "duration": 114.58333333332848,
            "noteNumber": 36,
            "velocity": 101,
            "programNumber": 1
        }, {
            "time": 104484.375,
            "duration": 125,
            "noteNumber": 42,
            "velocity": 42,
            "programNumber": 1
        }, {
            "time": 104609.375,
            "duration": 125,
            "noteNumber": 42,
            "velocity": 54,
            "programNumber": 1
        }, {
            "time": 104734.375,
            "duration": 119.79166666667152,
            "noteNumber": 36,
            "velocity": 73,
            "programNumber": 1
        }, {
            "time": 104734.375,
            "duration": 119.79166666667152,
            "noteNumber": 42,
            "velocity": 42,
            "programNumber": 1
        }, {
            "time": 104854.16666666667,
            "duration": 130.20833333332848,
            "noteNumber": 42,
            "velocity": 58,
            "programNumber": 1
        }, {
            "time": 104984.375,
            "duration": 119.79166666667152,
            "noteNumber": 36,
            "velocity": 79,
            "programNumber": 1
        }, {
            "time": 104984.375,
            "duration": 125,
            "noteNumber": 42,
            "velocity": 42,
            "programNumber": 1
        }, {
            "time": 105109.375,
            "duration": 125,
            "noteNumber": 42,
            "velocity": 55,
            "programNumber": 1
        }, {
            "time": 105234.375,
            "duration": 125,
            "noteNumber": 42,
            "velocity": 44,
            "programNumber": 1
        }, {
            "time": 105359.375,
            "duration": 119.79166666667152,
            "noteNumber": 36,
            "velocity": 70,
            "programNumber": 1
        }, {
            "time": 105359.375,
            "duration": 125,
            "noteNumber": 42,
            "velocity": 37,
            "programNumber": 1
        }, {
            "time": 105484.375,
            "duration": 125,
            "noteNumber": 42,
            "velocity": 51,
            "programNumber": 1
        }, {
            "time": 105609.375,
            "duration": 125,
            "noteNumber": 42,
            "velocity": 43,
            "programNumber": 1
        }, {
            "time": 105734.375,
            "duration": 130.20833333332848,
            "noteNumber": 36,
            "velocity": 79,
            "programNumber": 1
        }, {
            "time": 105734.375,
            "duration": 250,
            "noteNumber": 42,
            "velocity": 36,
            "programNumber": 1
        }, {
            "time": 105984.375,
            "duration": 119.79166666667152,
            "noteNumber": 36,
            "velocity": 63,
            "programNumber": 1
        }, {
            "time": 105984.375,
            "duration": 119.79166666667152,
            "noteNumber": 42,
            "velocity": 43,
            "programNumber": 1
        }, {
            "time": 106104.16666666667,
            "duration": 130.20833333332848,
            "noteNumber": 42,
            "velocity": 54,
            "programNumber": 1
        }, {
            "time": 106234.375,
            "duration": 119.79166666667152,
            "noteNumber": 36,
            "velocity": 69,
            "programNumber": 1
        }, {
            "time": 106234.375,
            "duration": 125,
            "noteNumber": 42,
            "velocity": 41,
            "programNumber": 1
        }, {
            "time": 106359.375,
            "duration": 125,
            "noteNumber": 42,
            "velocity": 52,
            "programNumber": 1
        }, {
            "time": 106484.375,
            "duration": 119.79166666667152,
            "noteNumber": 36,
            "velocity": 60,
            "programNumber": 1
        }, {
            "time": 106484.375,
            "duration": 125,
            "noteNumber": 42,
            "velocity": 38,
            "programNumber": 1
        }, {
            "time": 106609.375,
            "duration": 125,
            "noteNumber": 42,
            "velocity": 53,
            "programNumber": 1
        }, {
            "time": 106734.375,
            "duration": 125,
            "noteNumber": 42,
            "velocity": 43,
            "programNumber": 1
        }, {
            "time": 106859.375,
            "duration": 119.79166666667152,
            "noteNumber": 36,
            "velocity": 67,
            "programNumber": 1
        }, {
            "time": 106859.375,
            "duration": 125,
            "noteNumber": 42,
            "velocity": 38,
            "programNumber": 1
        }, {
            "time": 106984.375,
            "duration": 125,
            "noteNumber": 42,
            "velocity": 51,
            "programNumber": 1
        }, {
            "time": 107109.375,
            "duration": 125,
            "noteNumber": 42,
            "velocity": 44,
            "programNumber": 1
        }, {
            "time": 107234.375,
            "duration": 130.20833333332848,
            "noteNumber": 36,
            "velocity": 79,
            "programNumber": 1
        }, {
            "time": 107234.375,
            "duration": 250,
            "noteNumber": 42,
            "velocity": 37,
            "programNumber": 1
        }, {
            "time": 107484.375,
            "duration": 119.79166666667152,
            "noteNumber": 36,
            "velocity": 61,
            "programNumber": 1
        }, {
            "time": 107484.375,
            "duration": 125,
            "noteNumber": 42,
            "velocity": 39,
            "programNumber": 1
        }, {
            "time": 107609.375,
            "duration": 125,
            "noteNumber": 42,
            "velocity": 52,
            "programNumber": 1
        }, {
            "time": 107734.375,
            "duration": 125,
            "noteNumber": 42,
            "velocity": 44,
            "programNumber": 1
        }, {
            "time": 107859.375,
            "duration": 72.91666666667152,
            "noteNumber": 38,
            "velocity": 86,
            "programNumber": 1
        }, {
            "time": 107859.375,
            "duration": 125,
            "noteNumber": 42,
            "velocity": 64,
            "programNumber": 1
        }, {
            "time": 107984.375,
            "duration": 130.20833333332848,
            "noteNumber": 36,
            "velocity": 90,
            "programNumber": 1
        }, {
            "time": 107984.375,
            "duration": 250,
            "noteNumber": 42,
            "velocity": 54,
            "programNumber": 1
        }, {
            "time": 108234.375,
            "duration": 119.79166666667152,
            "noteNumber": 36,
            "velocity": 61,
            "programNumber": 1
        }, {
            "time": 108234.375,
            "duration": 125,
            "noteNumber": 42,
            "velocity": 37,
            "programNumber": 1
        }, {
            "time": 108359.375,
            "duration": 125,
            "noteNumber": 42,
            "velocity": 53,
            "programNumber": 1
        }, {
            "time": 108484.375,
            "duration": 125,
            "noteNumber": 42,
            "velocity": 44,
            "programNumber": 1
        }, {
            "time": 108609.375,
            "duration": 119.79166666667152,
            "noteNumber": 36,
            "velocity": 70,
            "programNumber": 1
        }, {
            "time": 108609.375,
            "duration": 125,
            "noteNumber": 42,
            "velocity": 40,
            "programNumber": 1
        }, {
            "time": 108734.375,
            "duration": 125,
            "noteNumber": 42,
            "velocity": 52,
            "programNumber": 1
        }, {
            "time": 108859.375,
            "duration": 125,
            "noteNumber": 42,
            "velocity": 43,
            "programNumber": 1
        }, {
            "time": 108984.375,
            "duration": 125,
            "noteNumber": 36,
            "velocity": 83,
            "programNumber": 1
        }, {
            "time": 108984.375,
            "duration": 250,
            "noteNumber": 42,
            "velocity": 40,
            "programNumber": 1
        }, {
            "time": 109234.375,
            "duration": 145.83333333332848,
            "noteNumber": 36,
            "velocity": 66,
            "programNumber": 1
        }, {
            "time": 109234.375,
            "duration": 250,
            "noteNumber": 42,
            "velocity": 43,
            "programNumber": 1
        }, {
            "time": 109484.375,
            "duration": 119.79166666667152,
            "noteNumber": 36,
            "velocity": 63,
            "programNumber": 1
        }, {
            "time": 109484.375,
            "duration": 125,
            "noteNumber": 42,
            "velocity": 41,
            "programNumber": 1
        }, {
            "time": 109609.375,
            "duration": 125,
            "noteNumber": 42,
            "velocity": 58,
            "programNumber": 1
        }, {
            "time": 109734.375,
            "duration": 125,
            "noteNumber": 42,
            "velocity": 45,
            "programNumber": 1
        }, {
            "time": 109859.375,
            "duration": 119.79166666667152,
            "noteNumber": 36,
            "velocity": 76,
            "programNumber": 1
        }, {
            "time": 109859.375,
            "duration": 119.79166666667152,
            "noteNumber": 42,
            "velocity": 39,
            "programNumber": 1
        }, {
            "time": 109979.16666666667,
            "duration": 130.20833333332848,
            "noteNumber": 42,
            "velocity": 57,
            "programNumber": 1
        }, {
            "time": 110109.375,
            "duration": 125,
            "noteNumber": 42,
            "velocity": 44,
            "programNumber": 1
        }, {
            "time": 110234.375,
            "duration": 130.20833333332848,
            "noteNumber": 36,
            "velocity": 84,
            "programNumber": 1
        }, {
            "time": 110234.375,
            "duration": 250,
            "noteNumber": 42,
            "velocity": 40,
            "programNumber": 1
        }, {
            "time": 110484.375,
            "duration": 114.58333333332848,
            "noteNumber": 36,
            "velocity": 82,
            "programNumber": 1
        }, {
            "time": 110484.375,
            "duration": 125,
            "noteNumber": 42,
            "velocity": 42,
            "programNumber": 1
        }, {
            "time": 110609.375,
            "duration": 125,
            "noteNumber": 42,
            "velocity": 53,
            "programNumber": 1
        }, {
            "time": 110734.375,
            "duration": 125,
            "noteNumber": 42,
            "velocity": 44,
            "programNumber": 1
        }, {
            "time": 110859.375,
            "duration": 125,
            "noteNumber": 42,
            "velocity": 79,
            "programNumber": 1
        }, {
            "time": 110859.375,
            "duration": 151.04166666667152,
            "noteNumber": 38,
            "velocity": 112,
            "programNumber": 1
        }, {
            "time": 110984.375,
            "duration": 130.20833333334303,
            "noteNumber": 36,
            "velocity": 63,
            "programNumber": 1
        }, {
            "time": 110984.375,
            "duration": 250.00000000001455,
            "noteNumber": 42,
            "velocity": 38,
            "programNumber": 1
        }, {
            "time": 111234.37500000001,
            "duration": 119.79166666667152,
            "noteNumber": 36,
            "velocity": 66,
            "programNumber": 1
        }, {
            "time": 111234.37500000001,
            "duration": 125,
            "noteNumber": 42,
            "velocity": 40,
            "programNumber": 1
        }, {
            "time": 111359.37500000001,
            "duration": 125,
            "noteNumber": 42,
            "velocity": 57,
            "programNumber": 1
        }, {
            "time": 111484.37500000001,
            "duration": 125,
            "noteNumber": 42,
            "velocity": 42,
            "programNumber": 1
        }, {
            "time": 111609.37500000001,
            "duration": 119.79166666667152,
            "noteNumber": 36,
            "velocity": 74,
            "programNumber": 1
        }, {
            "time": 111609.37500000001,
            "duration": 119.79166666667152,
            "noteNumber": 42,
            "velocity": 39,
            "programNumber": 1
        }, {
            "time": 111729.16666666669,
            "duration": 130.20833333332848,
            "noteNumber": 42,
            "velocity": 56,
            "programNumber": 1
        }, {
            "time": 111859.37500000001,
            "duration": 125,
            "noteNumber": 42,
            "velocity": 43,
            "programNumber": 1
        }, {
            "time": 111984.37500000001,
            "duration": 114.58333333332848,
            "noteNumber": 36,
            "velocity": 89,
            "programNumber": 1
        }, {
            "time": 111984.37500000001,
            "duration": 125,
            "noteNumber": 42,
            "velocity": 41,
            "programNumber": 1
        }, {
            "time": 112109.37500000001,
            "duration": 125,
            "noteNumber": 42,
            "velocity": 53,
            "programNumber": 1
        }, {
            "time": 112234.37500000001,
            "duration": 119.79166666667152,
            "noteNumber": 36,
            "velocity": 61,
            "programNumber": 1
        }, {
            "time": 112234.37500000001,
            "duration": 125,
            "noteNumber": 42,
            "velocity": 40,
            "programNumber": 1
        }, {
            "time": 112359.37500000001,
            "duration": 125,
            "noteNumber": 42,
            "velocity": 56,
            "programNumber": 1
        }, {
            "time": 112484.37500000001,
            "duration": 119.79166666667152,
            "noteNumber": 36,
            "velocity": 63,
            "programNumber": 1
        }, {
            "time": 112484.37500000001,
            "duration": 125,
            "noteNumber": 42,
            "velocity": 41,
            "programNumber": 1
        }, {
            "time": 112609.37500000001,
            "duration": 125,
            "noteNumber": 42,
            "velocity": 56,
            "programNumber": 1
        }, {
            "time": 112734.37500000001,
            "duration": 125,
            "noteNumber": 42,
            "velocity": 45,
            "programNumber": 1
        }, {
            "time": 112859.37500000001,
            "duration": 114.58333333332848,
            "noteNumber": 36,
            "velocity": 99,
            "programNumber": 1
        }, {
            "time": 112859.37500000001,
            "duration": 125,
            "noteNumber": 42,
            "velocity": 38,
            "programNumber": 1
        }, {
            "time": 112984.37500000001,
            "duration": 125,
            "noteNumber": 42,
            "velocity": 50,
            "programNumber": 1
        }, {
            "time": 113109.37500000001,
            "duration": 125,
            "noteNumber": 42,
            "velocity": 45,
            "programNumber": 1
        }, {
            "time": 113234.37500000001,
            "duration": 130.20833333332848,
            "noteNumber": 36,
            "velocity": 69,
            "programNumber": 1
        }, {
            "time": 113234.37500000001,
            "duration": 250,
            "noteNumber": 42,
            "velocity": 38,
            "programNumber": 1
        }, {
            "time": 113484.37500000001,
            "duration": 114.58333333332848,
            "noteNumber": 36,
            "velocity": 90,
            "programNumber": 1
        }, {
            "time": 113484.37500000001,
            "duration": 125,
            "noteNumber": 42,
            "velocity": 39,
            "programNumber": 1
        }, {
            "time": 113609.37500000001,
            "duration": 161.45833333332848,
            "noteNumber": 42,
            "velocity": 53,
            "programNumber": 1
        }, {
            "time": 113859.37500000001,
            "duration": 72.91666666667152,
            "noteNumber": 38,
            "velocity": 69,
            "programNumber": 1
        }, {
            "time": 113859.37500000001,
            "duration": 125,
            "noteNumber": 42,
            "velocity": 51,
            "programNumber": 1
        }, {
            "time": 113984.37500000001,
            "duration": 130.20833333332848,
            "noteNumber": 36,
            "velocity": 83,
            "programNumber": 1
        }, {
            "time": 113984.37500000001,
            "duration": 250,
            "noteNumber": 42,
            "velocity": 40,
            "programNumber": 1
        }, {
            "time": 114234.37500000001,
            "duration": 125,
            "noteNumber": 42,
            "velocity": 42,
            "programNumber": 1
        }, {
            "time": 114234.37500000001,
            "duration": 125,
            "noteNumber": 36,
            "velocity": 62,
            "programNumber": 1
        }, {
            "time": 114359.37500000001,
            "duration": 125,
            "noteNumber": 42,
            "velocity": 52,
            "programNumber": 1
        }, {
            "time": 114484.37500000001,
            "duration": 125,
            "noteNumber": 42,
            "velocity": 45,
            "programNumber": 1
        }, {
            "time": 114609.37500000001,
            "duration": 119.79166666667152,
            "noteNumber": 36,
            "velocity": 74,
            "programNumber": 1
        }, {
            "time": 114609.37500000001,
            "duration": 125,
            "noteNumber": 42,
            "velocity": 40,
            "programNumber": 1
        }, {
            "time": 114734.37500000001,
            "duration": 125,
            "noteNumber": 42,
            "velocity": 52,
            "programNumber": 1
        }, {
            "time": 114859.37500000001,
            "duration": 125,
            "noteNumber": 42,
            "velocity": 44,
            "programNumber": 1
        }, {
            "time": 114984.37500000001,
            "duration": 119.79166666667152,
            "noteNumber": 36,
            "velocity": 63,
            "programNumber": 1
        }, {
            "time": 114984.37500000001,
            "duration": 125,
            "noteNumber": 42,
            "velocity": 39,
            "programNumber": 1
        }, {
            "time": 115109.37500000001,
            "duration": 125,
            "noteNumber": 42,
            "velocity": 55,
            "programNumber": 1
        }, {
            "time": 115234.37500000001,
            "duration": 125,
            "noteNumber": 36,
            "velocity": 49,
            "programNumber": 1
        }, {
            "time": 115234.37500000001,
            "duration": 125,
            "noteNumber": 42,
            "velocity": 44,
            "programNumber": 1
        }, {
            "time": 115359.37500000001,
            "duration": 125,
            "noteNumber": 42,
            "velocity": 54,
            "programNumber": 1
        }, {
            "time": 115484.37500000001,
            "duration": 119.79166666667152,
            "noteNumber": 36,
            "velocity": 86,
            "programNumber": 1
        }, {
            "time": 115484.37500000001,
            "duration": 125,
            "noteNumber": 42,
            "velocity": 42,
            "programNumber": 1
        }, {
            "time": 115609.37500000001,
            "duration": 125,
            "noteNumber": 42,
            "velocity": 52,
            "programNumber": 1
        }, {
            "time": 115734.37500000001,
            "duration": 125,
            "noteNumber": 42,
            "velocity": 42,
            "programNumber": 1
        }, {
            "time": 115859.37500000001,
            "duration": 125,
            "noteNumber": 42,
            "velocity": 41,
            "programNumber": 1
        }, {
            "time": 115859.37500000001,
            "duration": 125,
            "noteNumber": 36,
            "velocity": 54,
            "programNumber": 1
        }, {
            "time": 115984.37500000001,
            "duration": 125,
            "noteNumber": 42,
            "velocity": 53,
            "programNumber": 1
        }, {
            "time": 116109.37500000001,
            "duration": 125,
            "noteNumber": 42,
            "velocity": 39,
            "programNumber": 1
        }, {
            "time": 116234.37500000001,
            "duration": 140.625,
            "noteNumber": 36,
            "velocity": 66,
            "programNumber": 1
        }, {
            "time": 116234.37500000001,
            "duration": 250,
            "noteNumber": 42,
            "velocity": 41,
            "programNumber": 1
        }, {
            "time": 116484.37500000001,
            "duration": 125,
            "noteNumber": 42,
            "velocity": 40,
            "programNumber": 1
        }, {
            "time": 116484.37500000001,
            "duration": 125,
            "noteNumber": 36,
            "velocity": 65,
            "programNumber": 1
        }, {
            "time": 116609.37500000001,
            "duration": 125,
            "noteNumber": 42,
            "velocity": 49,
            "programNumber": 1
        }, {
            "time": 116734.37500000001,
            "duration": 125,
            "noteNumber": 42,
            "velocity": 41,
            "programNumber": 1
        }, {
            "time": 116859.37500000001,
            "duration": 125,
            "noteNumber": 42,
            "velocity": 83,
            "programNumber": 1
        }, {
            "time": 116859.37500000001,
            "duration": 166.66666666667152,
            "noteNumber": 38,
            "velocity": 60,
            "programNumber": 1
        }, {
            "time": 116984.37500000001,
            "duration": 130.20833333334303,
            "noteNumber": 36,
            "velocity": 90,
            "programNumber": 1
        }, {
            "time": 116984.37500000001,
            "duration": 250.00000000001455,
            "noteNumber": 42,
            "velocity": 40,
            "programNumber": 1
        }, {
            "time": 117234.37500000003,
            "duration": 119.79166666667152,
            "noteNumber": 36,
            "velocity": 84,
            "programNumber": 1
        }, {
            "time": 117234.37500000003,
            "duration": 125,
            "noteNumber": 42,
            "velocity": 42,
            "programNumber": 1
        }, {
            "time": 117359.37500000003,
            "duration": 125,
            "noteNumber": 42,
            "velocity": 52,
            "programNumber": 1
        }, {
            "time": 117484.37500000003,
            "duration": 125,
            "noteNumber": 42,
            "velocity": 44,
            "programNumber": 1
        }, {
            "time": 117609.37500000003,
            "duration": 125,
            "noteNumber": 42,
            "velocity": 42,
            "programNumber": 1
        }, {
            "time": 117609.37500000003,
            "duration": 125,
            "noteNumber": 36,
            "velocity": 56,
            "programNumber": 1
        }, {
            "time": 117734.37500000003,
            "duration": 125,
            "noteNumber": 42,
            "velocity": 54,
            "programNumber": 1
        }, {
            "time": 117859.37500000003,
            "duration": 125,
            "noteNumber": 42,
            "velocity": 42,
            "programNumber": 1
        }, {
            "time": 117984.37500000003,
            "duration": 119.79166666667152,
            "noteNumber": 36,
            "velocity": 66,
            "programNumber": 1
        }, {
            "time": 117984.37500000003,
            "duration": 125,
            "noteNumber": 42,
            "velocity": 39,
            "programNumber": 1
        }, {
            "time": 118109.37500000003,
            "duration": 125,
            "noteNumber": 42,
            "velocity": 51,
            "programNumber": 1
        }, {
            "time": 118234.37500000003,
            "duration": 119.79166666667152,
            "noteNumber": 36,
            "velocity": 84,
            "programNumber": 1
        }, {
            "time": 118234.37500000003,
            "duration": 125,
            "noteNumber": 42,
            "velocity": 44,
            "programNumber": 1
        }, {
            "time": 118359.37500000003,
            "duration": 125,
            "noteNumber": 42,
            "velocity": 56,
            "programNumber": 1
        }, {
            "time": 118484.37500000003,
            "duration": 119.79166666667152,
            "noteNumber": 36,
            "velocity": 89,
            "programNumber": 1
        }, {
            "time": 118484.37500000003,
            "duration": 125,
            "noteNumber": 42,
            "velocity": 41,
            "programNumber": 1
        }, {
            "time": 118609.37500000003,
            "duration": 125,
            "noteNumber": 42,
            "velocity": 55,
            "programNumber": 1
        }, {
            "time": 118734.37500000003,
            "duration": 125,
            "noteNumber": 42,
            "velocity": 41,
            "programNumber": 1
        }, {
            "time": 118859.37500000003,
            "duration": 125,
            "noteNumber": 42,
            "velocity": 42,
            "programNumber": 1
        }, {
            "time": 118859.37500000003,
            "duration": 125,
            "noteNumber": 36,
            "velocity": 58,
            "programNumber": 1
        }, {
            "time": 118984.37500000003,
            "duration": 125,
            "noteNumber": 42,
            "velocity": 54,
            "programNumber": 1
        }, {
            "time": 119109.37500000003,
            "duration": 125,
            "noteNumber": 42,
            "velocity": 45,
            "programNumber": 1
        }, {
            "time": 119234.37500000003,
            "duration": 140.625,
            "noteNumber": 36,
            "velocity": 87,
            "programNumber": 1
        }, {
            "time": 119234.37500000003,
            "duration": 250,
            "noteNumber": 42,
            "velocity": 39,
            "programNumber": 1
        }, {
            "time": 119484.37500000003,
            "duration": 119.79166666667152,
            "noteNumber": 36,
            "velocity": 71,
            "programNumber": 1
        }, {
            "time": 119484.37500000003,
            "duration": 125,
            "noteNumber": 42,
            "velocity": 43,
            "programNumber": 1
        }, {
            "time": 119609.37500000003,
            "duration": 125,
            "noteNumber": 42,
            "velocity": 50,
            "programNumber": 1
        }, {
            "time": 119734.37500000003,
            "duration": 125,
            "noteNumber": 42,
            "velocity": 44,
            "programNumber": 1
        }, {
            "time": 119859.37500000003,
            "duration": 125,
            "noteNumber": 42,
            "velocity": 82,
            "programNumber": 1
        }, {
            "time": 119859.37500000003,
            "duration": 145.83333333332848,
            "noteNumber": 38,
            "velocity": 127,
            "programNumber": 1
        }, {
            "time": 119984.37500000003,
            "duration": 140.625,
            "noteNumber": 36,
            "velocity": 70,
            "programNumber": 1
        }, {
            "time": 119984.37500000003,
            "duration": 250,
            "noteNumber": 42,
            "velocity": 40,
            "programNumber": 1
        }, {
            "time": 120234.37500000003,
            "duration": 125,
            "noteNumber": 42,
            "velocity": 43,
            "programNumber": 1
        }, {
            "time": 120234.37500000003,
            "duration": 125,
            "noteNumber": 36,
            "velocity": 51,
            "programNumber": 1
        }, {
            "time": 120359.37500000003,
            "duration": 125,
            "noteNumber": 42,
            "velocity": 51,
            "programNumber": 1
        }, {
            "time": 120484.37500000003,
            "duration": 125,
            "noteNumber": 42,
            "velocity": 40,
            "programNumber": 1
        }, {
            "time": 120609.37500000003,
            "duration": 125,
            "noteNumber": 36,
            "velocity": 61,
            "programNumber": 1
        }, {
            "time": 120609.37500000003,
            "duration": 125,
            "noteNumber": 42,
            "velocity": 45,
            "programNumber": 1
        }, {
            "time": 120734.37500000003,
            "duration": 125,
            "noteNumber": 42,
            "velocity": 53,
            "programNumber": 1
        }, {
            "time": 120859.37500000003,
            "duration": 125,
            "noteNumber": 42,
            "velocity": 43,
            "programNumber": 1
        }, {
            "time": 120984.37500000003,
            "duration": 140.625,
            "noteNumber": 36,
            "velocity": 53,
            "programNumber": 1
        }, {
            "time": 120984.37500000003,
            "duration": 250,
            "noteNumber": 42,
            "velocity": 39,
            "programNumber": 1
        }, {
            "time": 121234.37500000003,
            "duration": 145.83333333332848,
            "noteNumber": 36,
            "velocity": 74,
            "programNumber": 1
        }, {
            "time": 121234.37500000003,
            "duration": 250,
            "noteNumber": 42,
            "velocity": 44,
            "programNumber": 1
        }, {
            "time": 121484.37500000003,
            "duration": 119.79166666667152,
            "noteNumber": 36,
            "velocity": 70,
            "programNumber": 1
        }, {
            "time": 121484.37500000003,
            "duration": 125,
            "noteNumber": 42,
            "velocity": 42,
            "programNumber": 1
        }, {
            "time": 121609.37500000003,
            "duration": 125,
            "noteNumber": 42,
            "velocity": 52,
            "programNumber": 1
        }, {
            "time": 121734.37500000003,
            "duration": 125,
            "noteNumber": 42,
            "velocity": 44,
            "programNumber": 1
        }, {
            "time": 121859.37500000003,
            "duration": 119.79166666667152,
            "noteNumber": 36,
            "velocity": 81,
            "programNumber": 1
        }, {
            "time": 121859.37500000003,
            "duration": 125,
            "noteNumber": 42,
            "velocity": 43,
            "programNumber": 1
        }, {
            "time": 121984.37500000003,
            "duration": 125,
            "noteNumber": 42,
            "velocity": 54,
            "programNumber": 1
        }, {
            "time": 122109.37500000003,
            "duration": 125,
            "noteNumber": 42,
            "velocity": 43,
            "programNumber": 1
        }, {
            "time": 122234.37500000003,
            "duration": 145.83333333332848,
            "noteNumber": 36,
            "velocity": 50,
            "programNumber": 1
        }, {
            "time": 122234.37500000003,
            "duration": 250,
            "noteNumber": 42,
            "velocity": 39,
            "programNumber": 1
        }, {
            "time": 122484.37500000003,
            "duration": 125,
            "noteNumber": 36,
            "velocity": 51,
            "programNumber": 1
        }, {
            "time": 122484.37500000003,
            "duration": 125,
            "noteNumber": 42,
            "velocity": 39,
            "programNumber": 1
        }, {
            "time": 122609.37500000003,
            "duration": 125,
            "noteNumber": 42,
            "velocity": 51,
            "programNumber": 1
        }, {
            "time": 122734.37500000003,
            "duration": 125,
            "noteNumber": 42,
            "velocity": 42,
            "programNumber": 1
        }, {
            "time": 122859.37500000003,
            "duration": 78.125,
            "noteNumber": 38,
            "velocity": 60,
            "programNumber": 1
        }, {
            "time": 122859.37500000003,
            "duration": 125,
            "noteNumber": 42,
            "velocity": 56,
            "programNumber": 1
        }, {
            "time": 122984.37500000003,
            "duration": 140.625,
            "noteNumber": 36,
            "velocity": 74,
            "programNumber": 1
        }, {
            "time": 122984.37500000003,
            "duration": 250,
            "noteNumber": 42,
            "velocity": 38,
            "programNumber": 1
        }, {
            "time": 123234.37500000003,
            "duration": 119.79166666667152,
            "noteNumber": 36,
            "velocity": 70,
            "programNumber": 1
        }, {
            "time": 123234.37500000003,
            "duration": 125,
            "noteNumber": 42,
            "velocity": 41,
            "programNumber": 1
        }, {
            "time": 123359.37500000003,
            "duration": 125,
            "noteNumber": 42,
            "velocity": 55,
            "programNumber": 1
        }, {
            "time": 123484.37500000003,
            "duration": 125,
            "noteNumber": 42,
            "velocity": 45,
            "programNumber": 1
        }, {
            "time": 123609.37500000003,
            "duration": 119.79166666667152,
            "noteNumber": 36,
            "velocity": 84,
            "programNumber": 1
        }, {
            "time": 123609.37500000003,
            "duration": 125,
            "noteNumber": 42,
            "velocity": 38,
            "programNumber": 1
        }, {
            "time": 123734.37500000003,
            "duration": 125,
            "noteNumber": 42,
            "velocity": 55,
            "programNumber": 1
        }, {
            "time": 123859.37500000003,
            "duration": 125,
            "noteNumber": 42,
            "velocity": 39,
            "programNumber": 1
        }, {
            "time": 123984.37500000003,
            "duration": 140.625,
            "noteNumber": 36,
            "velocity": 50,
            "programNumber": 1
        }, {
            "time": 123984.37500000003,
            "duration": 250,
            "noteNumber": 42,
            "velocity": 44,
            "programNumber": 1
        }, {
            "time": 124234.37500000003,
            "duration": 145.83333333332848,
            "noteNumber": 36,
            "velocity": 71,
            "programNumber": 1
        }, {
            "time": 124234.37500000003,
            "duration": 250,
            "noteNumber": 42,
            "velocity": 42,
            "programNumber": 1
        }, {
            "time": 124484.37500000003,
            "duration": 119.79166666667152,
            "noteNumber": 36,
            "velocity": 78,
            "programNumber": 1
        }, {
            "time": 124484.37500000003,
            "duration": 125,
            "noteNumber": 42,
            "velocity": 43,
            "programNumber": 1
        }, {
            "time": 124609.37500000003,
            "duration": 125,
            "noteNumber": 42,
            "velocity": 55,
            "programNumber": 1
        }, {
            "time": 124734.37500000003,
            "duration": 125,
            "noteNumber": 42,
            "velocity": 41,
            "programNumber": 1
        }, {
            "time": 124859.37500000003,
            "duration": 119.79166666667152,
            "noteNumber": 36,
            "velocity": 86,
            "programNumber": 1
        }, {
            "time": 124859.37500000003,
            "duration": 125,
            "noteNumber": 42,
            "velocity": 42,
            "programNumber": 1
        }, {
            "time": 124984.37500000003,
            "duration": 166.66666666667152,
            "noteNumber": 42,
            "velocity": 52,
            "programNumber": 1
        }, {
            "time": 125234.37500000003,
            "duration": 135.41666666667152,
            "noteNumber": 36,
            "velocity": 76,
            "programNumber": 1
        }, {
            "time": 125234.37500000003,
            "duration": 250,
            "noteNumber": 42,
            "velocity": 48,
            "programNumber": 1
        }, {
            "time": 125484.37500000003,
            "duration": 119.79166666667152,
            "noteNumber": 36,
            "velocity": 77,
            "programNumber": 1
        }, {
            "time": 125484.37500000003,
            "duration": 125,
            "noteNumber": 42,
            "velocity": 46,
            "programNumber": 1
        }, {
            "time": 125609.37500000003,
            "duration": 125,
            "noteNumber": 42,
            "velocity": 54,
            "programNumber": 1
        }, {
            "time": 125734.37500000003,
            "duration": 125,
            "noteNumber": 42,
            "velocity": 45,
            "programNumber": 1
        }, {
            "time": 125859.37500000003,
            "duration": 119.79166666667152,
            "noteNumber": 36,
            "velocity": 84,
            "programNumber": 1
        }, {
            "time": 125859.37500000003,
            "duration": 125,
            "noteNumber": 42,
            "velocity": 4,
            "programNumber": 1
        }, {
            "time": 125984.37500000003,
            "duration": 62.5,
            "noteNumber": 38,
            "velocity": 23,
            "programNumber": 1
        }, {
            "time": 125984.37500000003,
            "duration": 125,
            "noteNumber": 42,
            "velocity": 52,
            "programNumber": 1
        }, {
            "time": 126109.37500000003,
            "duration": 62.5,
            "noteNumber": 38,
            "velocity": 44,
            "programNumber": 1
        }, {
            "time": 126109.37500000003,
            "duration": 125,
            "noteNumber": 42,
            "velocity": 43,
            "programNumber": 1
        }, {
            "time": 126234.37500000003,
            "duration": 140.625,
            "noteNumber": 36,
            "velocity": 62,
            "programNumber": 1
        }, {
            "time": 126234.37500000003,
            "duration": 250,
            "noteNumber": 42,
            "velocity": 46,
            "programNumber": 1
        }, {
            "time": 126484.37500000003,
            "duration": 119.79166666667152,
            "noteNumber": 36,
            "velocity": 57,
            "programNumber": 1
        }, {
            "time": 126484.37500000003,
            "duration": 125,
            "noteNumber": 42,
            "velocity": 47,
            "programNumber": 1
        }, {
            "time": 126609.37500000003,
            "duration": 125,
            "noteNumber": 42,
            "velocity": 52,
            "programNumber": 1
        }, {
            "time": 126734.37500000003,
            "duration": 125,
            "noteNumber": 42,
            "velocity": 43,
            "programNumber": 1
        }, {
            "time": 126859.37500000003,
            "duration": 119.79166666667152,
            "noteNumber": 36,
            "velocity": 69,
            "programNumber": 1
        }, {
            "time": 126859.37500000003,
            "duration": 125,
            "noteNumber": 42,
            "velocity": 43,
            "programNumber": 1
        }, {
            "time": 126984.37500000003,
            "duration": 125,
            "noteNumber": 42,
            "velocity": 55,
            "programNumber": 1
        }, {
            "time": 127109.37500000003,
            "duration": 125,
            "noteNumber": 42,
            "velocity": 40,
            "programNumber": 1
        }, {
            "time": 127234.37500000003,
            "duration": 135.41666666667152,
            "noteNumber": 36,
            "velocity": 80,
            "programNumber": 1
        }, {
            "time": 127234.37500000003,
            "duration": 250,
            "noteNumber": 42,
            "velocity": 44,
            "programNumber": 1
        }, {
            "time": 127484.37500000003,
            "duration": 119.79166666667152,
            "noteNumber": 36,
            "velocity": 77,
            "programNumber": 1
        }, {
            "time": 127484.37500000003,
            "duration": 125,
            "noteNumber": 42,
            "velocity": 42,
            "programNumber": 1
        }, {
            "time": 127609.37500000003,
            "duration": 125,
            "noteNumber": 42,
            "velocity": 56,
            "programNumber": 1
        }, {
            "time": 127734.37500000003,
            "duration": 125,
            "noteNumber": 42,
            "velocity": 41,
            "programNumber": 1
        }, {
            "time": 127859.37500000003,
            "duration": 125,
            "noteNumber": 42,
            "velocity": 3,
            "programNumber": 1
        }, {
            "time": 127859.37500000003,
            "duration": 130.20833333332848,
            "noteNumber": 36,
            "velocity": 54,
            "programNumber": 1
        }, {
            "time": 127984.37500000003,
            "duration": 62.5,
            "noteNumber": 38,
            "velocity": 26,
            "programNumber": 1
        }, {
            "time": 127984.37500000003,
            "duration": 125,
            "noteNumber": 42,
            "velocity": 51,
            "programNumber": 1
        }, {
            "time": 128109.37500000003,
            "duration": 62.5,
            "noteNumber": 38,
            "velocity": 47,
            "programNumber": 1
        }, {
            "time": 128109.37500000003,
            "duration": 125,
            "noteNumber": 42,
            "velocity": 43,
            "programNumber": 1
        }, {
            "time": 128234.37500000003,
            "duration": 135.41666666667152,
            "noteNumber": 36,
            "velocity": 72,
            "programNumber": 1
        }, {
            "time": 128234.37500000003,
            "duration": 250,
            "noteNumber": 42,
            "velocity": 43,
            "programNumber": 1
        }, {
            "time": 128484.37500000003,
            "duration": 119.79166666667152,
            "noteNumber": 36,
            "velocity": 62,
            "programNumber": 1
        }, {
            "time": 128484.37500000003,
            "duration": 125,
            "noteNumber": 42,
            "velocity": 44,
            "programNumber": 1
        }, {
            "time": 128609.37500000003,
            "duration": 125,
            "noteNumber": 42,
            "velocity": 57,
            "programNumber": 1
        }, {
            "time": 128734.37500000003,
            "duration": 125,
            "noteNumber": 42,
            "velocity": 41,
            "programNumber": 1
        }, {
            "time": 128859.37500000003,
            "duration": 119.79166666667152,
            "noteNumber": 36,
            "velocity": 69,
            "programNumber": 1
        }, {
            "time": 128859.37500000003,
            "duration": 125,
            "noteNumber": 42,
            "velocity": 41,
            "programNumber": 1
        }, {
            "time": 128984.37500000003,
            "duration": 125,
            "noteNumber": 42,
            "velocity": 51,
            "programNumber": 1
        }, {
            "time": 129109.37500000003,
            "duration": 67.70833333332848,
            "noteNumber": 38,
            "velocity": 29,
            "programNumber": 1
        }, {
            "time": 129109.37500000003,
            "duration": 125,
            "noteNumber": 42,
            "velocity": 42,
            "programNumber": 1
        }, {
            "time": 129234.37500000003,
            "duration": 135.41666666667152,
            "noteNumber": 36,
            "velocity": 80,
            "programNumber": 1
        }, {
            "time": 129234.37500000003,
            "duration": 250,
            "noteNumber": 42,
            "velocity": 43,
            "programNumber": 1
        }, {
            "time": 129484.37500000003,
            "duration": 119.79166666667152,
            "noteNumber": 36,
            "velocity": 63,
            "programNumber": 1
        }, {
            "time": 129484.37500000003,
            "duration": 125,
            "noteNumber": 42,
            "velocity": 46,
            "programNumber": 1
        }, {
            "time": 129609.37500000003,
            "duration": 125,
            "noteNumber": 42,
            "velocity": 55,
            "programNumber": 1
        }, {
            "time": 129734.37500000003,
            "duration": 130.20833333332848,
            "noteNumber": 42,
            "velocity": 43,
            "programNumber": 1
        }, {
            "time": 129864.58333333336,
            "duration": 119.79166666667152,
            "noteNumber": 36,
            "velocity": 59,
            "programNumber": 1
        }, {
            "time": 129864.58333333336,
            "duration": 119.79166666667152,
            "noteNumber": 42,
            "velocity": 3,
            "programNumber": 1
        }, {
            "time": 129984.37500000003,
            "duration": 57.29166666667152,
            "noteNumber": 38,
            "velocity": 17,
            "programNumber": 1
        }, {
            "time": 129984.37500000003,
            "duration": 125,
            "noteNumber": 42,
            "velocity": 52,
            "programNumber": 1
        }, {
            "time": 130109.37500000003,
            "duration": 62.5,
            "noteNumber": 38,
            "velocity": 37,
            "programNumber": 1
        }, {
            "time": 130109.37500000003,
            "duration": 125,
            "noteNumber": 42,
            "velocity": 44,
            "programNumber": 1
        }, {
            "time": 130234.37500000003,
            "duration": 135.41666666667152,
            "noteNumber": 36,
            "velocity": 84,
            "programNumber": 1
        }, {
            "time": 130234.37500000003,
            "duration": 250,
            "noteNumber": 42,
            "velocity": 50,
            "programNumber": 1
        }, {
            "time": 130484.37500000003,
            "duration": 119.79166666667152,
            "noteNumber": 36,
            "velocity": 85,
            "programNumber": 1
        }, {
            "time": 130484.37500000003,
            "duration": 125,
            "noteNumber": 42,
            "velocity": 45,
            "programNumber": 1
        }, {
            "time": 130609.37500000003,
            "duration": 125,
            "noteNumber": 42,
            "velocity": 52,
            "programNumber": 1
        }, {
            "time": 130734.37500000003,
            "duration": 125,
            "noteNumber": 42,
            "velocity": 43,
            "programNumber": 1
        }, {
            "time": 130859.37500000003,
            "duration": 125,
            "noteNumber": 42,
            "velocity": 47,
            "programNumber": 1
        }, {
            "time": 130859.37500000003,
            "duration": 125,
            "noteNumber": 36,
            "velocity": 56,
            "programNumber": 1
        }, {
            "time": 130984.37500000003,
            "duration": 62.5,
            "noteNumber": 38,
            "velocity": 23,
            "programNumber": 1
        }, {
            "time": 130984.37500000003,
            "duration": 125,
            "noteNumber": 42,
            "velocity": 52,
            "programNumber": 1
        }, {
            "time": 131109.37500000003,
            "duration": 62.5,
            "noteNumber": 38,
            "velocity": 45,
            "programNumber": 1
        }, {
            "time": 131109.37500000003,
            "duration": 125,
            "noteNumber": 42,
            "velocity": 43,
            "programNumber": 1
        }, {
            "time": 131234.37500000003,
            "duration": 135.41666666665697,
            "noteNumber": 36,
            "velocity": 66,
            "programNumber": 1
        }, {
            "time": 131234.37500000003,
            "duration": 250,
            "noteNumber": 42,
            "velocity": 46,
            "programNumber": 1
        }, {
            "time": 131484.37500000003,
            "duration": 119.79166666665697,
            "noteNumber": 36,
            "velocity": 65,
            "programNumber": 1
        }, {
            "time": 131484.37500000003,
            "duration": 125,
            "noteNumber": 42,
            "velocity": 45,
            "programNumber": 1
        }, {
            "time": 131609.37500000003,
            "duration": 125,
            "noteNumber": 42,
            "velocity": 55,
            "programNumber": 1
        }, {
            "time": 131734.37500000003,
            "duration": 125,
            "noteNumber": 42,
            "velocity": 45,
            "programNumber": 1
        }, {
            "time": 131859.37500000003,
            "duration": 119.79166666665697,
            "noteNumber": 36,
            "velocity": 73,
            "programNumber": 1
        }, {
            "time": 131859.37500000003,
            "duration": 125,
            "noteNumber": 42,
            "velocity": 2,
            "programNumber": 1
        }, {
            "time": 131984.37500000003,
            "duration": 62.5,
            "noteNumber": 38,
            "velocity": 20,
            "programNumber": 1
        }, {
            "time": 131984.37500000003,
            "duration": 125,
            "noteNumber": 42,
            "velocity": 51,
            "programNumber": 1
        }, {
            "time": 132109.37500000003,
            "duration": 125,
            "noteNumber": 42,
            "velocity": 43,
            "programNumber": 1
        }, {
            "time": 132234.37500000003,
            "duration": 140.625,
            "noteNumber": 36,
            "velocity": 52,
            "programNumber": 1
        }, {
            "time": 132234.37500000003,
            "duration": 250,
            "noteNumber": 42,
            "velocity": 47,
            "programNumber": 1
        }, {
            "time": 132484.37500000003,
            "duration": 119.79166666665697,
            "noteNumber": 36,
            "velocity": 86,
            "programNumber": 1
        }, {
            "time": 132484.37500000003,
            "duration": 125,
            "noteNumber": 42,
            "velocity": 47,
            "programNumber": 1
        }, {
            "time": 132609.37500000003,
            "duration": 125,
            "noteNumber": 42,
            "velocity": 53,
            "programNumber": 1
        }, {
            "time": 132734.37500000003,
            "duration": 125,
            "noteNumber": 42,
            "velocity": 41,
            "programNumber": 1
        }, {
            "time": 132859.37500000003,
            "duration": 119.79166666665697,
            "noteNumber": 36,
            "velocity": 56,
            "programNumber": 1
        }, {
            "time": 132859.37500000003,
            "duration": 125,
            "noteNumber": 42,
            "velocity": 45,
            "programNumber": 1
        }, {
            "time": 132984.37500000003,
            "duration": 125,
            "noteNumber": 42,
            "velocity": 49,
            "programNumber": 1
        }, {
            "time": 133109.37500000003,
            "duration": 67.70833333334303,
            "noteNumber": 38,
            "velocity": 19,
            "programNumber": 1
        }, {
            "time": 133109.37500000003,
            "duration": 125,
            "noteNumber": 42,
            "velocity": 43,
            "programNumber": 1
        }, {
            "time": 133234.37500000003,
            "duration": 140.625,
            "noteNumber": 36,
            "velocity": 67,
            "programNumber": 1
        }, {
            "time": 133234.37500000003,
            "duration": 250,
            "noteNumber": 42,
            "velocity": 49,
            "programNumber": 1
        }, {
            "time": 133484.37500000003,
            "duration": 119.79166666665697,
            "noteNumber": 36,
            "velocity": 69,
            "programNumber": 1
        }, {
            "time": 133484.37500000003,
            "duration": 125,
            "noteNumber": 42,
            "velocity": 50,
            "programNumber": 1
        }, {
            "time": 133609.37500000003,
            "duration": 125,
            "noteNumber": 42,
            "velocity": 55,
            "programNumber": 1
        }, {
            "time": 133734.37500000003,
            "duration": 62.5,
            "noteNumber": 38,
            "velocity": 46,
            "programNumber": 1
        }, {
            "time": 133734.37500000003,
            "duration": 130.20833333334303,
            "noteNumber": 42,
            "velocity": 43,
            "programNumber": 1
        }, {
            "time": 133864.58333333337,
            "duration": 114.58333333334303,
            "noteNumber": 36,
            "velocity": 83,
            "programNumber": 1
        }, {
            "time": 133864.58333333337,
            "duration": 125,
            "noteNumber": 42,
            "velocity": 22,
            "programNumber": 1
        }, {
            "time": 133989.58333333337,
            "duration": 57.291666666656965,
            "noteNumber": 38,
            "velocity": 22,
            "programNumber": 1
        }, {
            "time": 133989.58333333337,
            "duration": 119.79166666665697,
            "noteNumber": 42,
            "velocity": 51,
            "programNumber": 1
        }, {
            "time": 134109.37500000003,
            "duration": 62.5,
            "noteNumber": 38,
            "velocity": 44,
            "programNumber": 1
        }, {
            "time": 134109.37500000003,
            "duration": 125,
            "noteNumber": 42,
            "velocity": 42,
            "programNumber": 1
        }, {
            "time": 134234.37500000003,
            "duration": 140.625,
            "noteNumber": 36,
            "velocity": 62,
            "programNumber": 1
        }, {
            "time": 134234.37500000003,
            "duration": 250,
            "noteNumber": 42,
            "velocity": 55,
            "programNumber": 1
        }, {
            "time": 134484.37500000003,
            "duration": 125,
            "noteNumber": 42,
            "velocity": 53,
            "programNumber": 1
        }, {
            "time": 134484.37500000003,
            "duration": 125,
            "noteNumber": 36,
            "velocity": 55,
            "programNumber": 1
        }, {
            "time": 134609.37500000003,
            "duration": 125,
            "noteNumber": 42,
            "velocity": 54,
            "programNumber": 1
        }, {
            "time": 134734.37500000003,
            "duration": 62.5,
            "noteNumber": 38,
            "velocity": 47,
            "programNumber": 1
        }, {
            "time": 134734.37500000003,
            "duration": 125,
            "noteNumber": 42,
            "velocity": 43,
            "programNumber": 1
        }, {
            "time": 134859.37500000003,
            "duration": 125,
            "noteNumber": 36,
            "velocity": 64,
            "programNumber": 1
        }, {
            "time": 134859.37500000003,
            "duration": 125,
            "noteNumber": 42,
            "velocity": 53,
            "programNumber": 1
        }, {
            "time": 134984.37500000003,
            "duration": 125,
            "noteNumber": 42,
            "velocity": 53,
            "programNumber": 1
        }, {
            "time": 135109.37500000003,
            "duration": 125,
            "noteNumber": 42,
            "velocity": 45,
            "programNumber": 1
        }, {
            "time": 135234.37500000003,
            "duration": 140.625,
            "noteNumber": 36,
            "velocity": 74,
            "programNumber": 1
        }, {
            "time": 135234.37500000003,
            "duration": 250,
            "noteNumber": 42,
            "velocity": 58,
            "programNumber": 1
        }, {
            "time": 135484.37500000003,
            "duration": 119.79166666665697,
            "noteNumber": 36,
            "velocity": 73,
            "programNumber": 1
        }, {
            "time": 135484.37500000003,
            "duration": 125,
            "noteNumber": 42,
            "velocity": 59,
            "programNumber": 1
        }, {
            "time": 135609.37500000003,
            "duration": 125,
            "noteNumber": 42,
            "velocity": 54,
            "programNumber": 1
        }, {
            "time": 135734.37500000003,
            "duration": 130.20833333334303,
            "noteNumber": 42,
            "velocity": 46,
            "programNumber": 1
        }, {
            "time": 135864.58333333337,
            "duration": 119.79166666665697,
            "noteNumber": 42,
            "velocity": 40,
            "programNumber": 1
        }, {
            "time": 135864.58333333337,
            "duration": 125,
            "noteNumber": 36,
            "velocity": 54,
            "programNumber": 1
        }, {
            "time": 135984.37500000003,
            "duration": 62.5,
            "noteNumber": 38,
            "velocity": 27,
            "programNumber": 1
        }, {
            "time": 135984.37500000003,
            "duration": 125,
            "noteNumber": 42,
            "velocity": 54,
            "programNumber": 1
        }, {
            "time": 136109.37500000003,
            "duration": 62.5,
            "noteNumber": 38,
            "velocity": 43,
            "programNumber": 1
        }, {
            "time": 136109.37500000003,
            "duration": 125,
            "noteNumber": 42,
            "velocity": 42,
            "programNumber": 1
        }, {
            "time": 136234.37500000003,
            "duration": 151.04166666665697,
            "noteNumber": 36,
            "velocity": 73,
            "programNumber": 1
        }, {
            "time": 136234.37500000003,
            "duration": 296.875,
            "noteNumber": 42,
            "velocity": 67,
            "programNumber": 1
        }, {
            "time": 136484.37500000003,
            "duration": 62.5,
            "noteNumber": 36,
            "velocity": 78,
            "programNumber": 1
        }, {
            "time": 136609.37500000003,
            "duration": 62.5,
            "noteNumber": 38,
            "velocity": 26,
            "programNumber": 1
        }, {
            "time": 136609.37500000003,
            "duration": 125,
            "noteNumber": 42,
            "velocity": 47,
            "programNumber": 1
        }, {
            "time": 136734.37500000003,
            "duration": 125,
            "noteNumber": 42,
            "velocity": 37,
            "programNumber": 1
        }, {
            "time": 136734.37500000003,
            "duration": 161.45833333334303,
            "noteNumber": 38,
            "velocity": 48,
            "programNumber": 1
        }, {
            "time": 136859.37500000003,
            "duration": 125,
            "noteNumber": 42,
            "velocity": 66,
            "programNumber": 1
        }, {
            "time": 136859.37500000003,
            "duration": 125,
            "noteNumber": 36,
            "velocity": 81,
            "programNumber": 1
        }, {
            "time": 136984.37500000003,
            "duration": 67.70833333334303,
            "noteNumber": 38,
            "velocity": 29,
            "programNumber": 1
        }, {
            "time": 136984.37500000003,
            "duration": 125,
            "noteNumber": 42,
            "velocity": 44,
            "programNumber": 1
        }, {
            "time": 137109.37500000003,
            "duration": 62.5,
            "noteNumber": 38,
            "velocity": 48,
            "programNumber": 1
        }, {
            "time": 137109.37500000003,
            "duration": 125,
            "noteNumber": 42,
            "velocity": 37,
            "programNumber": 1
        }, {
            "time": 137234.37500000003,
            "duration": 145.83333333334303,
            "noteNumber": 36,
            "velocity": 69,
            "programNumber": 1
        }, {
            "time": 137234.37500000003,
            "duration": 250,
            "noteNumber": 42,
            "velocity": 62,
            "programNumber": 1
        }, {
            "time": 137484.37500000003,
            "duration": 125,
            "noteNumber": 42,
            "velocity": 60,
            "programNumber": 1
        }, {
            "time": 137484.37500000003,
            "duration": 125,
            "noteNumber": 36,
            "velocity": 50,
            "programNumber": 1
        }, {
            "time": 137609.37500000003,
            "duration": 125,
            "noteNumber": 42,
            "velocity": 45,
            "programNumber": 1
        }, {
            "time": 137734.37500000003,
            "duration": 125,
            "noteNumber": 42,
            "velocity": 38,
            "programNumber": 1
        }, {
            "time": 137734.37500000003,
            "duration": 156.25,
            "noteNumber": 38,
            "velocity": 50,
            "programNumber": 1
        }, {
            "time": 137859.37500000003,
            "duration": 125,
            "noteNumber": 42,
            "velocity": 41,
            "programNumber": 1
        }, {
            "time": 137859.37500000003,
            "duration": 130.20833333334303,
            "noteNumber": 36,
            "velocity": 56,
            "programNumber": 1
        }, {
            "time": 137984.37500000003,
            "duration": 67.70833333334303,
            "noteNumber": 38,
            "velocity": 26,
            "programNumber": 1
        }, {
            "time": 137984.37500000003,
            "duration": 125,
            "noteNumber": 42,
            "velocity": 47,
            "programNumber": 1
        }, {
            "time": 138109.37500000003,
            "duration": 125,
            "noteNumber": 42,
            "velocity": 36,
            "programNumber": 1
        }, {
            "time": 138109.37500000003,
            "duration": 161.45833333334303,
            "noteNumber": 38,
            "velocity": 48,
            "programNumber": 1
        }, {
            "time": 138234.37500000003,
            "duration": 145.83333333334303,
            "noteNumber": 36,
            "velocity": 74,
            "programNumber": 1
        }, {
            "time": 138234.37500000003,
            "duration": 250,
            "noteNumber": 42,
            "velocity": 65,
            "programNumber": 1
        }, {
            "time": 138484.37500000003,
            "duration": 125,
            "noteNumber": 42,
            "velocity": 64,
            "programNumber": 1
        }, {
            "time": 138484.37500000003,
            "duration": 125,
            "noteNumber": 36,
            "velocity": 71,
            "programNumber": 1
        }, {
            "time": 138609.37500000003,
            "duration": 125,
            "noteNumber": 42,
            "velocity": 46,
            "programNumber": 1
        }, {
            "time": 138734.37500000003,
            "duration": 125,
            "noteNumber": 42,
            "velocity": 36,
            "programNumber": 1
        }, {
            "time": 138734.37500000003,
            "duration": 145.83333333334303,
            "noteNumber": 38,
            "velocity": 47,
            "programNumber": 1
        }, {
            "time": 138859.37500000003,
            "duration": 125,
            "noteNumber": 42,
            "velocity": 66,
            "programNumber": 1
        }, {
            "time": 138859.37500000003,
            "duration": 125,
            "noteNumber": 36,
            "velocity": 82,
            "programNumber": 1
        }, {
            "time": 138984.37500000003,
            "duration": 72.91666666665697,
            "noteNumber": 38,
            "velocity": 21,
            "programNumber": 1
        }, {
            "time": 138984.37500000003,
            "duration": 125,
            "noteNumber": 42,
            "velocity": 44,
            "programNumber": 1
        }, {
            "time": 139109.37500000003,
            "duration": 125,
            "noteNumber": 42,
            "velocity": 37,
            "programNumber": 1
        }, {
            "time": 139109.37500000003,
            "duration": 166.66666666665697,
            "noteNumber": 38,
            "velocity": 43,
            "programNumber": 1
        }, {
            "time": 139234.37500000003,
            "duration": 145.83333333331393,
            "noteNumber": 36,
            "velocity": 52,
            "programNumber": 1
        }, {
            "time": 139234.37500000003,
            "duration": 249.9999999999709,
            "noteNumber": 42,
            "velocity": 64,
            "programNumber": 1
        }, {
            "time": 139484.375,
            "duration": 125,
            "noteNumber": 42,
            "velocity": 67,
            "programNumber": 1
        }, {
            "time": 139484.375,
            "duration": 135.41666666665697,
            "noteNumber": 36,
            "velocity": 51,
            "programNumber": 1
        }, {
            "time": 139609.375,
            "duration": 125,
            "noteNumber": 42,
            "velocity": 45,
            "programNumber": 1
        }, {
            "time": 139734.375,
            "duration": 130.20833333334303,
            "noteNumber": 42,
            "velocity": 38,
            "programNumber": 1
        }, {
            "time": 139734.375,
            "duration": 156.25,
            "noteNumber": 38,
            "velocity": 47,
            "programNumber": 1
        }, {
            "time": 139864.58333333334,
            "duration": 119.79166666665697,
            "noteNumber": 42,
            "velocity": 44,
            "programNumber": 1
        }, {
            "time": 139864.58333333334,
            "duration": 125,
            "noteNumber": 36,
            "velocity": 61,
            "programNumber": 1
        }, {
            "time": 139984.375,
            "duration": 67.70833333334303,
            "noteNumber": 38,
            "velocity": 31,
            "programNumber": 1
        }, {
            "time": 139984.375,
            "duration": 125,
            "noteNumber": 42,
            "velocity": 42,
            "programNumber": 1
        }, {
            "time": 140109.375,
            "duration": 62.5,
            "noteNumber": 38,
            "velocity": 50,
            "programNumber": 1
        }, {
            "time": 140109.375,
            "duration": 125,
            "noteNumber": 42,
            "velocity": 37,
            "programNumber": 1
        }, {
            "time": 140234.375,
            "duration": 145.83333333334303,
            "noteNumber": 36,
            "velocity": 81,
            "programNumber": 1
        }, {
            "time": 140234.375,
            "duration": 250,
            "noteNumber": 42,
            "velocity": 67,
            "programNumber": 1
        }, {
            "time": 140484.375,
            "duration": 125,
            "noteNumber": 42,
            "velocity": 61,
            "programNumber": 1
        }, {
            "time": 140484.375,
            "duration": 125,
            "noteNumber": 36,
            "velocity": 71,
            "programNumber": 1
        }, {
            "time": 140609.375,
            "duration": 125,
            "noteNumber": 42,
            "velocity": 49,
            "programNumber": 1
        }, {
            "time": 140734.375,
            "duration": 62.5,
            "noteNumber": 38,
            "velocity": 53,
            "programNumber": 1
        }, {
            "time": 140734.375,
            "duration": 125,
            "noteNumber": 42,
            "velocity": 39,
            "programNumber": 1
        }, {
            "time": 140859.375,
            "duration": 125,
            "noteNumber": 42,
            "velocity": 64,
            "programNumber": 1
        }, {
            "time": 140859.375,
            "duration": 125,
            "noteNumber": 36,
            "velocity": 84,
            "programNumber": 1
        }, {
            "time": 140984.375,
            "duration": 125,
            "noteNumber": 42,
            "velocity": 47,
            "programNumber": 1
        }, {
            "time": 141109.375,
            "duration": 125,
            "noteNumber": 42,
            "velocity": 37,
            "programNumber": 1
        }, {
            "time": 141234.375,
            "duration": 161.45833333334303,
            "noteNumber": 36,
            "velocity": 55,
            "programNumber": 1
        }, {
            "time": 141234.375,
            "duration": 250,
            "noteNumber": 42,
            "velocity": 65,
            "programNumber": 1
        }, {
            "time": 141484.375,
            "duration": 125,
            "noteNumber": 42,
            "velocity": 66,
            "programNumber": 1
        }, {
            "time": 141484.375,
            "duration": 135.41666666665697,
            "noteNumber": 36,
            "velocity": 54,
            "programNumber": 1
        }, {
            "time": 141609.375,
            "duration": 62.5,
            "noteNumber": 38,
            "velocity": 29,
            "programNumber": 1
        }, {
            "time": 141609.375,
            "duration": 125,
            "noteNumber": 42,
            "velocity": 46,
            "programNumber": 1
        }, {
            "time": 141734.375,
            "duration": 62.5,
            "noteNumber": 38,
            "velocity": 48,
            "programNumber": 1
        }, {
            "time": 141734.375,
            "duration": 130.20833333334303,
            "noteNumber": 42,
            "velocity": 37,
            "programNumber": 1
        }, {
            "time": 141864.58333333334,
            "duration": 125,
            "noteNumber": 42,
            "velocity": 45,
            "programNumber": 1
        }, {
            "time": 141864.58333333334,
            "duration": 125,
            "noteNumber": 36,
            "velocity": 67,
            "programNumber": 1
        }, {
            "time": 141989.58333333334,
            "duration": 67.70833333334303,
            "noteNumber": 38,
            "velocity": 18,
            "programNumber": 1
        }, {
            "time": 141989.58333333334,
            "duration": 119.79166666668607,
            "noteNumber": 42,
            "velocity": 45,
            "programNumber": 1
        }, {
            "time": 142109.37500000003,
            "duration": 125,
            "noteNumber": 42,
            "velocity": 39,
            "programNumber": 1
        }, {
            "time": 142109.37500000003,
            "duration": 166.66666666665697,
            "noteNumber": 38,
            "velocity": 42,
            "programNumber": 1
        }, {
            "time": 142234.37500000003,
            "duration": 161.45833333331393,
            "noteNumber": 36,
            "velocity": 50,
            "programNumber": 1
        }, {
            "time": 142234.37500000003,
            "duration": 249.9999999999709,
            "noteNumber": 42,
            "velocity": 72,
            "programNumber": 1
        }, {
            "time": 142484.375,
            "duration": 125,
            "noteNumber": 42,
            "velocity": 64,
            "programNumber": 1
        }, {
            "time": 142484.375,
            "duration": 135.41666666665697,
            "noteNumber": 36,
            "velocity": 55,
            "programNumber": 1
        }, {
            "time": 142609.375,
            "duration": 125,
            "noteNumber": 42,
            "velocity": 45,
            "programNumber": 1
        }, {
            "time": 142734.375,
            "duration": 125,
            "noteNumber": 42,
            "velocity": 36,
            "programNumber": 1
        }, {
            "time": 142734.375,
            "duration": 140.625,
            "noteNumber": 38,
            "velocity": 42,
            "programNumber": 1
        }, {
            "time": 142859.375,
            "duration": 125,
            "noteNumber": 42,
            "velocity": 73,
            "programNumber": 1
        }, {
            "time": 142859.375,
            "duration": 125,
            "noteNumber": 36,
            "velocity": 66,
            "programNumber": 1
        }, {
            "time": 142984.375,
            "duration": 67.70833333334303,
            "noteNumber": 38,
            "velocity": 28,
            "programNumber": 1
        }, {
            "time": 142984.375,
            "duration": 125,
            "noteNumber": 42,
            "velocity": 47,
            "programNumber": 1
        }, {
            "time": 143109.375,
            "duration": 125,
            "noteNumber": 42,
            "velocity": 35,
            "programNumber": 1
        }, {
            "time": 143109.375,
            "duration": 161.45833333334303,
            "noteNumber": 38,
            "velocity": 46,
            "programNumber": 1
        }, {
            "time": 143234.375,
            "duration": 182.29166666668607,
            "noteNumber": 36,
            "velocity": 58,
            "programNumber": 1
        }, {
            "time": 143234.375,
            "duration": 250.0000000000291,
            "noteNumber": 42,
            "velocity": 67,
            "programNumber": 1
        }, {
            "time": 143484.37500000003,
            "duration": 125,
            "noteNumber": 36,
            "velocity": 77,
            "programNumber": 1
        }, {
            "time": 143484.37500000003,
            "duration": 130.20833333334303,
            "noteNumber": 42,
            "velocity": 72,
            "programNumber": 1
        }, {
            "time": 143614.58333333337,
            "duration": 119.79166666665697,
            "noteNumber": 42,
            "velocity": 46,
            "programNumber": 1
        }, {
            "time": 143734.37500000003,
            "duration": 130.20833333334303,
            "noteNumber": 42,
            "velocity": 38,
            "programNumber": 1
        }, {
            "time": 143734.37500000003,
            "duration": 145.83333333334303,
            "noteNumber": 38,
            "velocity": 46,
            "programNumber": 1
        }, {
            "time": 143864.58333333337,
            "duration": 119.79166666665697,
            "noteNumber": 42,
            "velocity": 44,
            "programNumber": 1
        }, {
            "time": 143864.58333333337,
            "duration": 125,
            "noteNumber": 36,
            "velocity": 81,
            "programNumber": 1
        }, {
            "time": 143984.37500000003,
            "duration": 72.91666666668607,
            "noteNumber": 38,
            "velocity": 22,
            "programNumber": 1
        }, {
            "time": 143984.37500000003,
            "duration": 125.0000000000291,
            "noteNumber": 42,
            "velocity": 44,
            "programNumber": 1
        }, {
            "time": 144109.37500000006,
            "duration": 125,
            "noteNumber": 42,
            "velocity": 36,
            "programNumber": 1
        }, {
            "time": 144109.37500000006,
            "duration": 161.45833333334303,
            "noteNumber": 38,
            "velocity": 43,
            "programNumber": 1
        }, {
            "time": 144234.37500000006,
            "duration": 161.45833333334303,
            "noteNumber": 36,
            "velocity": 60,
            "programNumber": 1
        }, {
            "time": 144234.37500000006,
            "duration": 250,
            "noteNumber": 42,
            "velocity": 74,
            "programNumber": 1
        }, {
            "time": 144484.37500000006,
            "duration": 130.20833333334303,
            "noteNumber": 36,
            "velocity": 57,
            "programNumber": 1
        }, {
            "time": 144484.37500000006,
            "duration": 130.20833333334303,
            "noteNumber": 42,
            "velocity": 66,
            "programNumber": 1
        }, {
            "time": 144614.5833333334,
            "duration": 119.79166666665697,
            "noteNumber": 42,
            "velocity": 47,
            "programNumber": 1
        }, {
            "time": 144734.37500000006,
            "duration": 125,
            "noteNumber": 42,
            "velocity": 39,
            "programNumber": 1
        }, {
            "time": 144859.37500000006,
            "duration": 125,
            "noteNumber": 42,
            "velocity": 73,
            "programNumber": 1
        }, {
            "time": 144859.37500000006,
            "duration": 130.20833333334303,
            "noteNumber": 36,
            "velocity": 69,
            "programNumber": 1
        }, {
            "time": 144984.37500000006,
            "duration": 67.70833333334303,
            "noteNumber": 38,
            "velocity": 30,
            "programNumber": 1
        }, {
            "time": 144984.37500000006,
            "duration": 125,
            "noteNumber": 42,
            "velocity": 43,
            "programNumber": 1
        }, {
            "time": 145109.37500000006,
            "duration": 125,
            "noteNumber": 42,
            "velocity": 35,
            "programNumber": 1
        }, {
            "time": 145109.37500000006,
            "duration": 156.25,
            "noteNumber": 38,
            "velocity": 49,
            "programNumber": 1
        }, {
            "time": 145234.37500000006,
            "duration": 156.25,
            "noteNumber": 36,
            "velocity": 79,
            "programNumber": 1
        }, {
            "time": 145234.37500000006,
            "duration": 250,
            "noteNumber": 42,
            "velocity": 69,
            "programNumber": 1
        }, {
            "time": 145484.37500000006,
            "duration": 130.20833333334303,
            "noteNumber": 36,
            "velocity": 80,
            "programNumber": 1
        }, {
            "time": 145484.37500000006,
            "duration": 130.20833333334303,
            "noteNumber": 42,
            "velocity": 71,
            "programNumber": 1
        }, {
            "time": 145614.5833333334,
            "duration": 119.79166666665697,
            "noteNumber": 42,
            "velocity": 47,
            "programNumber": 1
        }, {
            "time": 145734.37500000006,
            "duration": 130.20833333334303,
            "noteNumber": 42,
            "velocity": 39,
            "programNumber": 1
        }, {
            "time": 145734.37500000006,
            "duration": 151.04166666668607,
            "noteNumber": 38,
            "velocity": 48,
            "programNumber": 1
        }, {
            "time": 145864.5833333334,
            "duration": 114.58333333334303,
            "noteNumber": 36,
            "velocity": 86,
            "programNumber": 1
        }, {
            "time": 145864.5833333334,
            "duration": 125,
            "noteNumber": 42,
            "velocity": 45,
            "programNumber": 1
        }, {
            "time": 145989.5833333334,
            "duration": 72.91666666665697,
            "noteNumber": 38,
            "velocity": 25,
            "programNumber": 1
        }, {
            "time": 145989.5833333334,
            "duration": 119.79166666665697,
            "noteNumber": 42,
            "velocity": 44,
            "programNumber": 1
        }, {
            "time": 146109.37500000006,
            "duration": 62.5,
            "noteNumber": 38,
            "velocity": 46,
            "programNumber": 1
        }, {
            "time": 146109.37500000006,
            "duration": 130.20833333334303,
            "noteNumber": 42,
            "velocity": 36,
            "programNumber": 1
        }, {
            "time": 146239.5833333334,
            "duration": 156.25,
            "noteNumber": 36,
            "velocity": 69,
            "programNumber": 1
        }, {
            "time": 146239.5833333334,
            "duration": 244.79166666665697,
            "noteNumber": 42,
            "velocity": 72,
            "programNumber": 1
        }, {
            "time": 146484.37500000006,
            "duration": 125,
            "noteNumber": 42,
            "velocity": 66,
            "programNumber": 1
        }, {
            "time": 146484.37500000006,
            "duration": 130.20833333334303,
            "noteNumber": 36,
            "velocity": 61,
            "programNumber": 1
        }, {
            "time": 146609.37500000006,
            "duration": 125,
            "noteNumber": 42,
            "velocity": 43,
            "programNumber": 1
        }, {
            "time": 146734.37500000006,
            "duration": 125,
            "noteNumber": 42,
            "velocity": 38,
            "programNumber": 1
        }, {
            "time": 146734.37500000006,
            "duration": 145.83333333334303,
            "noteNumber": 38,
            "velocity": 47,
            "programNumber": 1
        }, {
            "time": 146859.37500000006,
            "duration": 125,
            "noteNumber": 42,
            "velocity": 70,
            "programNumber": 1
        }, {
            "time": 146859.37500000006,
            "duration": 130.20833333334303,
            "noteNumber": 36,
            "velocity": 71,
            "programNumber": 1
        }, {
            "time": 146984.37500000006,
            "duration": 72.91666666668607,
            "noteNumber": 38,
            "velocity": 21,
            "programNumber": 1
        }, {
            "time": 146984.37500000006,
            "duration": 125.0000000000291,
            "noteNumber": 42,
            "velocity": 45,
            "programNumber": 1
        }, {
            "time": 147109.3750000001,
            "duration": 125,
            "noteNumber": 42,
            "velocity": 36,
            "programNumber": 1
        }, {
            "time": 147109.3750000001,
            "duration": 161.45833333334303,
            "noteNumber": 38,
            "velocity": 43,
            "programNumber": 1
        }, {
            "time": 147234.3750000001,
            "duration": 156.25,
            "noteNumber": 36,
            "velocity": 82,
            "programNumber": 1
        }, {
            "time": 147234.3750000001,
            "duration": 250,
            "noteNumber": 42,
            "velocity": 67,
            "programNumber": 1
        }, {
            "time": 147484.3750000001,
            "duration": 125,
            "noteNumber": 42,
            "velocity": 67,
            "programNumber": 1
        }, {
            "time": 147484.3750000001,
            "duration": 130.20833333334303,
            "noteNumber": 36,
            "velocity": 80,
            "programNumber": 1
        }, {
            "time": 147609.3750000001,
            "duration": 125,
            "noteNumber": 42,
            "velocity": 44,
            "programNumber": 1
        }, {
            "time": 147734.3750000001,
            "duration": 156.25,
            "noteNumber": 38,
            "velocity": 49,
            "programNumber": 1
        }, {
            "time": 147734.3750000001,
            "duration": 171.875,
            "noteNumber": 42,
            "velocity": 37,
            "programNumber": 1
        }, {
            "time": 147864.58333333343,
            "duration": 62.5,
            "noteNumber": 36,
            "velocity": 55,
            "programNumber": 1
        }, {
            "time": 147989.58333333343,
            "duration": 67.70833333334303,
            "noteNumber": 38,
            "velocity": 22,
            "programNumber": 1
        }, {
            "time": 147989.58333333343,
            "duration": 119.79166666668607,
            "noteNumber": 42,
            "velocity": 45,
            "programNumber": 1
        }, {
            "time": 148109.37500000012,
            "duration": 125,
            "noteNumber": 42,
            "velocity": 37,
            "programNumber": 1
        }, {
            "time": 148109.37500000012,
            "duration": 161.45833333334303,
            "noteNumber": 38,
            "velocity": 43,
            "programNumber": 1
        }, {
            "time": 148234.37500000012,
            "duration": 161.45833333334303,
            "noteNumber": 36,
            "velocity": 63,
            "programNumber": 1
        }, {
            "time": 148234.37500000012,
            "duration": 250,
            "noteNumber": 42,
            "velocity": 66,
            "programNumber": 1
        }, {
            "time": 148484.37500000012,
            "duration": 119.79166666665697,
            "noteNumber": 36,
            "velocity": 87,
            "programNumber": 1
        }, {
            "time": 148484.37500000012,
            "duration": 130.20833333331393,
            "noteNumber": 42,
            "velocity": 58,
            "programNumber": 1
        }, {
            "time": 148614.58333333343,
            "duration": 125,
            "noteNumber": 42,
            "velocity": 44,
            "programNumber": 1
        }, {
            "time": 148739.58333333343,
            "duration": 125,
            "noteNumber": 42,
            "velocity": 34,
            "programNumber": 1
        }, {
            "time": 148739.58333333343,
            "duration": 140.625,
            "noteNumber": 38,
            "velocity": 49,
            "programNumber": 1
        }, {
            "time": 148864.58333333343,
            "duration": 125,
            "noteNumber": 42,
            "velocity": 62,
            "programNumber": 1
        }, {
            "time": 148864.58333333343,
            "duration": 125,
            "noteNumber": 36,
            "velocity": 61,
            "programNumber": 1
        }, {
            "time": 148989.58333333343,
            "duration": 119.79166666665697,
            "noteNumber": 42,
            "velocity": 43,
            "programNumber": 1
        }, {
            "time": 149109.3750000001,
            "duration": 130.20833333334303,
            "noteNumber": 42,
            "velocity": 34,
            "programNumber": 1
        }, {
            "time": 149109.3750000001,
            "duration": 166.66666666668607,
            "noteNumber": 38,
            "velocity": 23,
            "programNumber": 1
        }, {
            "time": 149239.58333333343,
            "duration": 151.04166666668607,
            "noteNumber": 36,
            "velocity": 69,
            "programNumber": 1
        }, {
            "time": 149239.58333333343,
            "duration": 244.79166666668607,
            "noteNumber": 42,
            "velocity": 68,
            "programNumber": 1
        }, {
            "time": 149484.37500000012,
            "duration": 119.79166666665697,
            "noteNumber": 36,
            "velocity": 89,
            "programNumber": 1
        }, {
            "time": 149484.37500000012,
            "duration": 130.20833333331393,
            "noteNumber": 42,
            "velocity": 67,
            "programNumber": 1
        }, {
            "time": 149614.58333333343,
            "duration": 119.79166666665697,
            "noteNumber": 42,
            "velocity": 44,
            "programNumber": 1
        }, {
            "time": 149734.3750000001,
            "duration": 130.20833333334303,
            "noteNumber": 42,
            "velocity": 38,
            "programNumber": 1
        }, {
            "time": 149734.3750000001,
            "duration": 145.83333333334303,
            "noteNumber": 38,
            "velocity": 43,
            "programNumber": 1
        }, {
            "time": 149864.58333333343,
            "duration": 125,
            "noteNumber": 42,
            "velocity": 43,
            "programNumber": 1
        }, {
            "time": 149864.58333333343,
            "duration": 125,
            "noteNumber": 36,
            "velocity": 55,
            "programNumber": 1
        }, {
            "time": 149989.58333333343,
            "duration": 62.5,
            "noteNumber": 38,
            "velocity": 26,
            "programNumber": 1
        }, {
            "time": 149989.58333333343,
            "duration": 119.79166666665697,
            "noteNumber": 42,
            "velocity": 43,
            "programNumber": 1
        }, {
            "time": 150109.3750000001,
            "duration": 67.70833333334303,
            "noteNumber": 38,
            "velocity": 44,
            "programNumber": 1
        }, {
            "time": 150109.3750000001,
            "duration": 130.20833333334303,
            "noteNumber": 42,
            "velocity": 37,
            "programNumber": 1
        }, {
            "time": 150239.58333333343,
            "duration": 151.04166666665697,
            "noteNumber": 36,
            "velocity": 73,
            "programNumber": 1
        }, {
            "time": 150239.58333333343,
            "duration": 250,
            "noteNumber": 42,
            "velocity": 70,
            "programNumber": 1
        }, {
            "time": 150489.58333333343,
            "duration": 125,
            "noteNumber": 42,
            "velocity": 60,
            "programNumber": 1
        }, {
            "time": 150489.58333333343,
            "duration": 125,
            "noteNumber": 36,
            "velocity": 73,
            "programNumber": 1
        }, {
            "time": 150614.58333333343,
            "duration": 125,
            "noteNumber": 42,
            "velocity": 45,
            "programNumber": 1
        }, {
            "time": 150739.58333333343,
            "duration": 119.79166666665697,
            "noteNumber": 42,
            "velocity": 35,
            "programNumber": 1
        }, {
            "time": 150739.58333333343,
            "duration": 140.625,
            "noteNumber": 38,
            "velocity": 48,
            "programNumber": 1
        }, {
            "time": 150859.3750000001,
            "duration": 130.20833333334303,
            "noteNumber": 36,
            "velocity": 82,
            "programNumber": 1
        }, {
            "time": 150859.3750000001,
            "duration": 130.20833333334303,
            "noteNumber": 42,
            "velocity": 69,
            "programNumber": 1
        }, {
            "time": 150989.58333333343,
            "duration": 72.91666666665697,
            "noteNumber": 38,
            "velocity": 22,
            "programNumber": 1
        }, {
            "time": 150989.58333333343,
            "duration": 125,
            "noteNumber": 42,
            "velocity": 42,
            "programNumber": 1
        }, {
            "time": 151114.58333333343,
            "duration": 125,
            "noteNumber": 42,
            "velocity": 36,
            "programNumber": 1
        }, {
            "time": 151114.58333333343,
            "duration": 156.25,
            "noteNumber": 38,
            "velocity": 44,
            "programNumber": 1
        }, {
            "time": 151239.58333333343,
            "duration": 171.875,
            "noteNumber": 36,
            "velocity": 54,
            "programNumber": 1
        }, {
            "time": 151239.58333333343,
            "duration": 250,
            "noteNumber": 42,
            "velocity": 66,
            "programNumber": 1
        }, {
            "time": 151489.58333333343,
            "duration": 125,
            "noteNumber": 42,
            "velocity": 67,
            "programNumber": 1
        }, {
            "time": 151489.58333333343,
            "duration": 130.20833333334303,
            "noteNumber": 36,
            "velocity": 54,
            "programNumber": 1
        }, {
            "time": 151614.58333333343,
            "duration": 119.79166666668607,
            "noteNumber": 42,
            "velocity": 44,
            "programNumber": 1
        }, {
            "time": 151734.37500000012,
            "duration": 130.20833333334303,
            "noteNumber": 42,
            "velocity": 37,
            "programNumber": 1
        }, {
            "time": 151734.37500000012,
            "duration": 156.25,
            "noteNumber": 38,
            "velocity": 48,
            "programNumber": 1
        }, {
            "time": 151864.58333333346,
            "duration": 125,
            "noteNumber": 42,
            "velocity": 44,
            "programNumber": 1
        }, {
            "time": 151864.58333333346,
            "duration": 125,
            "noteNumber": 36,
            "velocity": 61,
            "programNumber": 1
        }, {
            "time": 151989.58333333346,
            "duration": 98.95833333334303,
            "noteNumber": 38,
            "velocity": 27,
            "programNumber": 1
        }, {
            "time": 151989.58333333346,
            "duration": 119.79166666668607,
            "noteNumber": 42,
            "velocity": 42,
            "programNumber": 1
        }, {
            "time": 152109.37500000015,
            "duration": 130.20833333334303,
            "noteNumber": 42,
            "velocity": 37,
            "programNumber": 1
        }, {
            "time": 152109.37500000015,
            "duration": 161.45833333334303,
            "noteNumber": 38,
            "velocity": 48,
            "programNumber": 1
        }, {
            "time": 152239.5833333335,
            "duration": 140.625,
            "noteNumber": 36,
            "velocity": 73,
            "programNumber": 1
        }, {
            "time": 152239.5833333335,
            "duration": 250,
            "noteNumber": 42,
            "velocity": 54,
            "programNumber": 1
        }, {
            "time": 152489.5833333335,
            "duration": 114.58333333334303,
            "noteNumber": 36,
            "velocity": 61,
            "programNumber": 1
        }, {
            "time": 152489.5833333335,
            "duration": 125,
            "noteNumber": 42,
            "velocity": 52,
            "programNumber": 1
        }, {
            "time": 152614.5833333335,
            "duration": 57.291666666656965,
            "noteNumber": 38,
            "velocity": 22,
            "programNumber": 1
        }, {
            "time": 152614.5833333335,
            "duration": 125,
            "noteNumber": 42,
            "velocity": 28,
            "programNumber": 1
        }, {
            "time": 152739.5833333335,
            "duration": 125,
            "noteNumber": 42,
            "velocity": 23,
            "programNumber": 1
        }, {
            "time": 152739.5833333335,
            "duration": 151.04166666665697,
            "noteNumber": 38,
            "velocity": 32,
            "programNumber": 1
        }, {
            "time": 152864.5833333335,
            "duration": 114.58333333331393,
            "noteNumber": 36,
            "velocity": 92,
            "programNumber": 1
        }, {
            "time": 152864.5833333335,
            "duration": 124.9999999999709,
            "noteNumber": 42,
            "velocity": 84,
            "programNumber": 1
        }, {
            "time": 152989.58333333346,
            "duration": 119.79166666665697,
            "noteNumber": 42,
            "velocity": 30,
            "programNumber": 1
        }, {
            "time": 153109.37500000012,
            "duration": 130.20833333334303,
            "noteNumber": 42,
            "velocity": 31,
            "programNumber": 1
        }, {
            "time": 153109.37500000012,
            "duration": 166.66666666668607,
            "noteNumber": 38,
            "velocity": 27,
            "programNumber": 1
        }, {
            "time": 153239.58333333346,
            "duration": 135.41666666668607,
            "noteNumber": 36,
            "velocity": 61,
            "programNumber": 1
        }, {
            "time": 153239.58333333346,
            "duration": 244.79166666668607,
            "noteNumber": 42,
            "velocity": 44,
            "programNumber": 1
        }, {
            "time": 153484.37500000015,
            "duration": 130.20833333334303,
            "noteNumber": 42,
            "velocity": 86,
            "programNumber": 1
        }, {
            "time": 153484.37500000015,
            "duration": 135.41666666668607,
            "noteNumber": 36,
            "velocity": 67,
            "programNumber": 1
        }, {
            "time": 153614.5833333335,
            "duration": 57.29166666668607,
            "noteNumber": 38,
            "velocity": 30,
            "programNumber": 1
        }, {
            "time": 153614.5833333335,
            "duration": 125.0000000000291,
            "noteNumber": 42,
            "velocity": 48,
            "programNumber": 1
        }, {
            "time": 153739.58333333352,
            "duration": 125,
            "noteNumber": 42,
            "velocity": 30,
            "programNumber": 1
        }, {
            "time": 153739.58333333352,
            "duration": 151.04166666665697,
            "noteNumber": 38,
            "velocity": 41,
            "programNumber": 1
        }, {
            "time": 153864.58333333352,
            "duration": 119.79166666665697,
            "noteNumber": 36,
            "velocity": 79,
            "programNumber": 1
        }, {
            "time": 153864.58333333352,
            "duration": 125,
            "noteNumber": 42,
            "velocity": 32,
            "programNumber": 1
        }, {
            "time": 153989.58333333352,
            "duration": 62.5,
            "noteNumber": 38,
            "velocity": 21,
            "programNumber": 1
        }, {
            "time": 153989.58333333352,
            "duration": 125,
            "noteNumber": 42,
            "velocity": 30,
            "programNumber": 1
        }, {
            "time": 154114.58333333352,
            "duration": 125,
            "noteNumber": 42,
            "velocity": 31,
            "programNumber": 1
        }, {
            "time": 154114.58333333352,
            "duration": 156.25,
            "noteNumber": 38,
            "velocity": 37,
            "programNumber": 1
        }, {
            "time": 154239.58333333352,
            "duration": 140.625,
            "noteNumber": 36,
            "velocity": 84,
            "programNumber": 1
        }, {
            "time": 154239.58333333352,
            "duration": 250,
            "noteNumber": 42,
            "velocity": 65,
            "programNumber": 1
        }, {
            "time": 154489.58333333352,
            "duration": 114.58333333334303,
            "noteNumber": 36,
            "velocity": 76,
            "programNumber": 1
        }, {
            "time": 154489.58333333352,
            "duration": 125,
            "noteNumber": 42,
            "velocity": 58,
            "programNumber": 1
        }, {
            "time": 154614.58333333352,
            "duration": 62.5,
            "noteNumber": 38,
            "velocity": 36,
            "programNumber": 1
        }, {
            "time": 154614.58333333352,
            "duration": 125,
            "noteNumber": 42,
            "velocity": 46,
            "programNumber": 1
        }, {
            "time": 154739.58333333352,
            "duration": 125,
            "noteNumber": 42,
            "velocity": 35,
            "programNumber": 1
        }, {
            "time": 154739.58333333352,
            "duration": 151.04166666665697,
            "noteNumber": 38,
            "velocity": 49,
            "programNumber": 1
        }, {
            "time": 154864.58333333352,
            "duration": 114.58333333331393,
            "noteNumber": 36,
            "velocity": 92,
            "programNumber": 1
        }, {
            "time": 154864.58333333352,
            "duration": 124.9999999999709,
            "noteNumber": 42,
            "velocity": 70,
            "programNumber": 1
        }, {
            "time": 154989.5833333335,
            "duration": 78.125,
            "noteNumber": 38,
            "velocity": 20,
            "programNumber": 1
        }, {
            "time": 154989.5833333335,
            "duration": 125,
            "noteNumber": 42,
            "velocity": 44,
            "programNumber": 1
        }, {
            "time": 155114.5833333335,
            "duration": 125,
            "noteNumber": 42,
            "velocity": 39,
            "programNumber": 1
        }, {
            "time": 155239.5833333335,
            "duration": 140.625,
            "noteNumber": 36,
            "velocity": 63,
            "programNumber": 1
        }, {
            "time": 155239.5833333335,
            "duration": 250,
            "noteNumber": 42,
            "velocity": 71,
            "programNumber": 1
        }, {
            "time": 155489.5833333335,
            "duration": 125,
            "noteNumber": 42,
            "velocity": 82,
            "programNumber": 1
        }, {
            "time": 155489.5833333335,
            "duration": 125,
            "noteNumber": 36,
            "velocity": 84,
            "programNumber": 1
        }, {
            "time": 155614.5833333335,
            "duration": 125,
            "noteNumber": 42,
            "velocity": 49,
            "programNumber": 1
        }, {
            "time": 155739.5833333335,
            "duration": 125,
            "noteNumber": 42,
            "velocity": 40,
            "programNumber": 1
        }, {
            "time": 155864.5833333335,
            "duration": 125,
            "noteNumber": 42,
            "velocity": 47,
            "programNumber": 1
        }, {
            "time": 155864.5833333335,
            "duration": 125,
            "noteNumber": 36,
            "velocity": 80,
            "programNumber": 1
        }, {
            "time": 155989.5833333335,
            "duration": 72.91666666665697,
            "noteNumber": 38,
            "velocity": 23,
            "programNumber": 1
        }, {
            "time": 155989.5833333335,
            "duration": 119.79166666665697,
            "noteNumber": 42,
            "velocity": 49,
            "programNumber": 1
        }, {
            "time": 156109.37500000015,
            "duration": 130.20833333334303,
            "noteNumber": 42,
            "velocity": 39,
            "programNumber": 1
        }, {
            "time": 156109.37500000015,
            "duration": 166.66666666668607,
            "noteNumber": 38,
            "velocity": 46,
            "programNumber": 1
        }, {
            "time": 156239.5833333335,
            "duration": 151.04166666668607,
            "noteNumber": 36,
            "velocity": 62,
            "programNumber": 1
        }, {
            "time": 156239.5833333335,
            "duration": 250.0000000000291,
            "noteNumber": 42,
            "velocity": 75,
            "programNumber": 1
        }, {
            "time": 156489.58333333352,
            "duration": 125,
            "noteNumber": 36,
            "velocity": 65,
            "programNumber": 1
        }, {
            "time": 156489.58333333352,
            "duration": 125,
            "noteNumber": 42,
            "velocity": 70,
            "programNumber": 1
        }, {
            "time": 156614.58333333352,
            "duration": 125,
            "noteNumber": 42,
            "velocity": 49,
            "programNumber": 1
        }, {
            "time": 156739.58333333352,
            "duration": 125,
            "noteNumber": 42,
            "velocity": 38,
            "programNumber": 1
        }, {
            "time": 156739.58333333352,
            "duration": 145.83333333334303,
            "noteNumber": 38,
            "velocity": 52,
            "programNumber": 1
        }, {
            "time": 156864.58333333352,
            "duration": 125,
            "noteNumber": 42,
            "velocity": 79,
            "programNumber": 1
        }, {
            "time": 156864.58333333352,
            "duration": 125,
            "noteNumber": 36,
            "velocity": 77,
            "programNumber": 1
        }, {
            "time": 156989.58333333352,
            "duration": 109.375,
            "noteNumber": 38,
            "velocity": 18,
            "programNumber": 1
        }, {
            "time": 156989.58333333352,
            "duration": 119.79166666665697,
            "noteNumber": 42,
            "velocity": 47,
            "programNumber": 1
        }, {
            "time": 157109.37500000017,
            "duration": 130.20833333334303,
            "noteNumber": 42,
            "velocity": 40,
            "programNumber": 1
        }, {
            "time": 157109.37500000017,
            "duration": 166.66666666668607,
            "noteNumber": 38,
            "velocity": 39,
            "programNumber": 1
        }, {
            "time": 157239.58333333352,
            "duration": 156.25,
            "noteNumber": 36,
            "velocity": 89,
            "programNumber": 1
        }, {
            "time": 157239.58333333352,
            "duration": 250,
            "noteNumber": 42,
            "velocity": 73,
            "programNumber": 1
        }, {
            "time": 157489.58333333352,
            "duration": 125,
            "noteNumber": 42,
            "velocity": 73,
            "programNumber": 1
        }, {
            "time": 157489.58333333352,
            "duration": 125,
            "noteNumber": 36,
            "velocity": 89,
            "programNumber": 1
        }, {
            "time": 157614.58333333352,
            "duration": 57.291666666656965,
            "noteNumber": 38,
            "velocity": 36,
            "programNumber": 1
        }, {
            "time": 157614.58333333352,
            "duration": 125,
            "noteNumber": 42,
            "velocity": 47,
            "programNumber": 1
        }, {
            "time": 157739.58333333352,
            "duration": 125,
            "noteNumber": 42,
            "velocity": 40,
            "programNumber": 1
        }, {
            "time": 157739.58333333352,
            "duration": 151.04166666665697,
            "noteNumber": 38,
            "velocity": 52,
            "programNumber": 1
        }, {
            "time": 157864.58333333352,
            "duration": 119.79166666665697,
            "noteNumber": 36,
            "velocity": 93,
            "programNumber": 1
        }, {
            "time": 157864.58333333352,
            "duration": 125,
            "noteNumber": 42,
            "velocity": 47,
            "programNumber": 1
        }, {
            "time": 157989.58333333352,
            "duration": 72.91666666665697,
            "noteNumber": 38,
            "velocity": 25,
            "programNumber": 1
        }, {
            "time": 157989.58333333352,
            "duration": 125,
            "noteNumber": 42,
            "velocity": 48,
            "programNumber": 1
        }, {
            "time": 158114.58333333352,
            "duration": 125,
            "noteNumber": 42,
            "velocity": 40,
            "programNumber": 1
        }, {
            "time": 158114.58333333352,
            "duration": 156.25,
            "noteNumber": 38,
            "velocity": 47,
            "programNumber": 1
        }, {
            "time": 158239.58333333352,
            "duration": 145.83333333334303,
            "noteNumber": 36,
            "velocity": 72,
            "programNumber": 1
        }, {
            "time": 158239.58333333352,
            "duration": 250,
            "noteNumber": 42,
            "velocity": 76,
            "programNumber": 1
        }, {
            "time": 158489.58333333352,
            "duration": 125,
            "noteNumber": 42,
            "velocity": 68,
            "programNumber": 1
        }, {
            "time": 158489.58333333352,
            "duration": 125,
            "noteNumber": 36,
            "velocity": 69,
            "programNumber": 1
        }, {
            "time": 158614.58333333352,
            "duration": 119.79166666665697,
            "noteNumber": 42,
            "velocity": 47,
            "programNumber": 1
        }, {
            "time": 158734.37500000017,
            "duration": 130.20833333334303,
            "noteNumber": 42,
            "velocity": 40,
            "programNumber": 1
        }, {
            "time": 158734.37500000017,
            "duration": 145.83333333334303,
            "noteNumber": 38,
            "velocity": 52,
            "programNumber": 1
        }, {
            "time": 158864.58333333352,
            "duration": 125,
            "noteNumber": 42,
            "velocity": 77,
            "programNumber": 1
        }, {
            "time": 158864.58333333352,
            "duration": 125,
            "noteNumber": 36,
            "velocity": 80,
            "programNumber": 1
        }, {
            "time": 158989.58333333352,
            "duration": 72.91666666665697,
            "noteNumber": 38,
            "velocity": 20,
            "programNumber": 1
        }, {
            "time": 158989.58333333352,
            "duration": 125,
            "noteNumber": 42,
            "velocity": 48,
            "programNumber": 1
        }, {
            "time": 159114.58333333352,
            "duration": 125,
            "noteNumber": 42,
            "velocity": 38,
            "programNumber": 1
        }, {
            "time": 159114.58333333352,
            "duration": 161.45833333334303,
            "noteNumber": 38,
            "velocity": 44,
            "programNumber": 1
        }, {
            "time": 159239.58333333352,
            "duration": 62.5,
            "noteNumber": 36,
            "velocity": 93,
            "programNumber": 1
        }, {
            "time": 159239.58333333352,
            "duration": 250,
            "noteNumber": 42,
            "velocity": 1,
            "programNumber": 1
        }, {
            "time": 159489.58333333352,
            "duration": 125,
            "noteNumber": 42,
            "velocity": 70,
            "programNumber": 1
        }, {
            "time": 159489.58333333352,
            "duration": 125,
            "noteNumber": 36,
            "velocity": 62,
            "programNumber": 1
        }, {
            "time": 159614.58333333352,
            "duration": 57.291666666656965,
            "noteNumber": 38,
            "velocity": 32,
            "programNumber": 1
        }, {
            "time": 159614.58333333352,
            "duration": 125,
            "noteNumber": 42,
            "velocity": 46,
            "programNumber": 1
        }, {
            "time": 159739.58333333352,
            "duration": 57.291666666656965,
            "noteNumber": 38,
            "velocity": 47,
            "programNumber": 1
        }, {
            "time": 159739.58333333352,
            "duration": 125,
            "noteNumber": 42,
            "velocity": 37,
            "programNumber": 1
        }, {
            "time": 159864.58333333352,
            "duration": 119.79166666665697,
            "noteNumber": 36,
            "velocity": 73,
            "programNumber": 1
        }, {
            "time": 159864.58333333352,
            "duration": 125,
            "noteNumber": 42,
            "velocity": 43,
            "programNumber": 1
        }, {
            "time": 159989.58333333352,
            "duration": 62.5,
            "noteNumber": 38,
            "velocity": 22,
            "programNumber": 1
        }, {
            "time": 159989.58333333352,
            "duration": 125,
            "noteNumber": 42,
            "velocity": 44,
            "programNumber": 1
        }, {
            "time": 160114.58333333352,
            "duration": 57.291666666656965,
            "noteNumber": 38,
            "velocity": 41,
            "programNumber": 1
        }, {
            "time": 160114.58333333352,
            "duration": 125,
            "noteNumber": 42,
            "velocity": 36,
            "programNumber": 1
        }, {
            "time": 160239.58333333352,
            "duration": 125,
            "noteNumber": 42,
            "velocity": 65,
            "programNumber": 1
        }, {
            "time": 160239.58333333352,
            "duration": 125,
            "noteNumber": 36,
            "velocity": 53,
            "programNumber": 1
        }, {
            "time": 160364.58333333352,
            "duration": 125,
            "noteNumber": 42,
            "velocity": 45,
            "programNumber": 1
        }, {
            "time": 160489.58333333352,
            "duration": 125,
            "noteNumber": 36,
            "velocity": 46,
            "programNumber": 1
        }, {
            "time": 160489.58333333352,
            "duration": 125,
            "noteNumber": 42,
            "velocity": 56,
            "programNumber": 1
        }, {
            "time": 160614.58333333352,
            "duration": 57.291666666656965,
            "noteNumber": 38,
            "velocity": 27,
            "programNumber": 1
        }, {
            "time": 160614.58333333352,
            "duration": 125,
            "noteNumber": 42,
            "velocity": 44,
            "programNumber": 1
        }, {
            "time": 160739.58333333352,
            "duration": 57.291666666656965,
            "noteNumber": 38,
            "velocity": 47,
            "programNumber": 1
        }, {
            "time": 160739.58333333352,
            "duration": 125,
            "noteNumber": 42,
            "velocity": 35,
            "programNumber": 1
        }, {
            "time": 160864.58333333352,
            "duration": 125,
            "noteNumber": 42,
            "velocity": 65,
            "programNumber": 1
        }, {
            "time": 160864.58333333352,
            "duration": 125,
            "noteNumber": 36,
            "velocity": 56,
            "programNumber": 1
        }, {
            "time": 160989.58333333352,
            "duration": 83.33333333334303,
            "noteNumber": 38,
            "velocity": 24,
            "programNumber": 1
        }, {
            "time": 160989.58333333352,
            "duration": 125,
            "noteNumber": 42,
            "velocity": 43,
            "programNumber": 1
        }, {
            "time": 161114.58333333352,
            "duration": 125,
            "noteNumber": 42,
            "velocity": 34,
            "programNumber": 1
        }, {
            "time": 161239.58333333352,
            "duration": 161.45833333334303,
            "noteNumber": 36,
            "velocity": 64,
            "programNumber": 1
        }, {
            "time": 161239.58333333352,
            "duration": 250,
            "noteNumber": 42,
            "velocity": 62,
            "programNumber": 1
        }, {
            "time": 161489.58333333352,
            "duration": 119.79166666665697,
            "noteNumber": 36,
            "velocity": 63,
            "programNumber": 1
        }, {
            "time": 161489.58333333352,
            "duration": 125,
            "noteNumber": 42,
            "velocity": 66,
            "programNumber": 1
        }, {
            "time": 161614.58333333352,
            "duration": 125,
            "noteNumber": 42,
            "velocity": 43,
            "programNumber": 1
        }, {
            "time": 161739.58333333352,
            "duration": 125,
            "noteNumber": 42,
            "velocity": 67,
            "programNumber": 1
        }, {
            "time": 161739.58333333352,
            "duration": 125,
            "noteNumber": 36,
            "velocity": 48,
            "programNumber": 1
        }, {
            "time": 161864.58333333352,
            "duration": 125,
            "noteNumber": 42,
            "velocity": 44,
            "programNumber": 1
        }, {
            "time": 161989.58333333352,
            "duration": 125,
            "noteNumber": 36,
            "velocity": 46,
            "programNumber": 1
        }, {
            "time": 161989.58333333352,
            "duration": 125,
            "noteNumber": 42,
            "velocity": 58,
            "programNumber": 1
        }, {
            "time": 162114.58333333352,
            "duration": 57.291666666656965,
            "noteNumber": 38,
            "velocity": 25,
            "programNumber": 1
        }, {
            "time": 162114.58333333352,
            "duration": 125,
            "noteNumber": 42,
            "velocity": 41,
            "programNumber": 1
        }, {
            "time": 162239.58333333352,
            "duration": 57.291666666656965,
            "noteNumber": 38,
            "velocity": 45,
            "programNumber": 1
        }, {
            "time": 162239.58333333352,
            "duration": 125,
            "noteNumber": 42,
            "velocity": 37,
            "programNumber": 1
        }, {
            "time": 162364.58333333352,
            "duration": 125,
            "noteNumber": 42,
            "velocity": 68,
            "programNumber": 1
        }, {
            "time": 162364.58333333352,
            "duration": 125,
            "noteNumber": 36,
            "velocity": 56,
            "programNumber": 1
        }, {
            "time": 162489.58333333352,
            "duration": 125,
            "noteNumber": 42,
            "velocity": 41,
            "programNumber": 1
        }, {
            "time": 162614.58333333352,
            "duration": 125,
            "noteNumber": 42,
            "velocity": 35,
            "programNumber": 1
        }, {
            "time": 162614.58333333352,
            "duration": 135.41666666665697,
            "noteNumber": 38,
            "velocity": 21,
            "programNumber": 1
        }, {
            "time": 162739.58333333352,
            "duration": 145.83333333331393,
            "noteNumber": 36,
            "velocity": 65,
            "programNumber": 1
        }, {
            "time": 162739.58333333352,
            "duration": 249.9999999999709,
            "noteNumber": 42,
            "velocity": 61,
            "programNumber": 1
        }, {
            "time": 162989.5833333335,
            "duration": 125,
            "noteNumber": 36,
            "velocity": 66,
            "programNumber": 1
        }, {
            "time": 162989.5833333335,
            "duration": 125,
            "noteNumber": 42,
            "velocity": 66,
            "programNumber": 1
        }, {
            "time": 163114.5833333335,
            "duration": 57.291666666656965,
            "noteNumber": 38,
            "velocity": 34,
            "programNumber": 1
        }, {
            "time": 163114.5833333335,
            "duration": 125,
            "noteNumber": 42,
            "velocity": 43,
            "programNumber": 1
        }, {
            "time": 163239.5833333335,
            "duration": 125,
            "noteNumber": 42,
            "velocity": 68,
            "programNumber": 1
        }, {
            "time": 163239.5833333335,
            "duration": 125,
            "noteNumber": 36,
            "velocity": 46,
            "programNumber": 1
        }, {
            "time": 163364.5833333335,
            "duration": 125,
            "noteNumber": 42,
            "velocity": 42,
            "programNumber": 1
        }, {
            "time": 163489.5833333335,
            "duration": 125,
            "noteNumber": 36,
            "velocity": 50,
            "programNumber": 1
        }, {
            "time": 163489.5833333335,
            "duration": 125,
            "noteNumber": 42,
            "velocity": 60,
            "programNumber": 1
        }, {
            "time": 163614.5833333335,
            "duration": 125,
            "noteNumber": 42,
            "velocity": 46,
            "programNumber": 1
        }, {
            "time": 163739.5833333335,
            "duration": 125,
            "noteNumber": 42,
            "velocity": 39,
            "programNumber": 1
        }, {
            "time": 163739.5833333335,
            "duration": 156.25,
            "noteNumber": 38,
            "velocity": 44,
            "programNumber": 1
        }, {
            "time": 163864.5833333335,
            "duration": 125,
            "noteNumber": 42,
            "velocity": 68,
            "programNumber": 1
        }, {
            "time": 163864.5833333335,
            "duration": 125,
            "noteNumber": 36,
            "velocity": 58,
            "programNumber": 1
        }, {
            "time": 163989.5833333335,
            "duration": 125,
            "noteNumber": 42,
            "velocity": 44,
            "programNumber": 1
        }, {
            "time": 164114.5833333335,
            "duration": 125,
            "noteNumber": 42,
            "velocity": 35,
            "programNumber": 1
        }, {
            "time": 164239.5833333335,
            "duration": 156.25,
            "noteNumber": 36,
            "velocity": 66,
            "programNumber": 1
        }, {
            "time": 164239.5833333335,
            "duration": 250,
            "noteNumber": 42,
            "velocity": 66,
            "programNumber": 1
        }, {
            "time": 164489.5833333335,
            "duration": 125,
            "noteNumber": 42,
            "velocity": 64,
            "programNumber": 1
        }, {
            "time": 164489.5833333335,
            "duration": 125,
            "noteNumber": 36,
            "velocity": 67,
            "programNumber": 1
        }, {
            "time": 164614.5833333335,
            "duration": 57.291666666656965,
            "noteNumber": 38,
            "velocity": 31,
            "programNumber": 1
        }, {
            "time": 164614.5833333335,
            "duration": 125,
            "noteNumber": 42,
            "velocity": 45,
            "programNumber": 1
        }, {
            "time": 164739.5833333335,
            "duration": 125,
            "noteNumber": 42,
            "velocity": 69,
            "programNumber": 1
        }, {
            "time": 164739.5833333335,
            "duration": 125,
            "noteNumber": 36,
            "velocity": 44,
            "programNumber": 1
        }, {
            "time": 164864.5833333335,
            "duration": 125,
            "noteNumber": 42,
            "velocity": 44,
            "programNumber": 1
        }, {
            "time": 164989.5833333335,
            "duration": 119.79166666665697,
            "noteNumber": 36,
            "velocity": 67,
            "programNumber": 1
        }, {
            "time": 164989.5833333335,
            "duration": 125,
            "noteNumber": 42,
            "velocity": 57,
            "programNumber": 1
        }, {
            "time": 165114.5833333335,
            "duration": 57.291666666656965,
            "noteNumber": 38,
            "velocity": 25,
            "programNumber": 1
        }, {
            "time": 165114.5833333335,
            "duration": 125,
            "noteNumber": 42,
            "velocity": 47,
            "programNumber": 1
        }, {
            "time": 165239.5833333335,
            "duration": 57.291666666656965,
            "noteNumber": 38,
            "velocity": 43,
            "programNumber": 1
        }, {
            "time": 165239.5833333335,
            "duration": 125,
            "noteNumber": 42,
            "velocity": 36,
            "programNumber": 1
        }, {
            "time": 165364.5833333335,
            "duration": 125,
            "noteNumber": 42,
            "velocity": 64,
            "programNumber": 1
        }, {
            "time": 165364.5833333335,
            "duration": 125,
            "noteNumber": 36,
            "velocity": 45,
            "programNumber": 1
        }, {
            "time": 165489.5833333335,
            "duration": 83.33333333334303,
            "noteNumber": 38,
            "velocity": 27,
            "programNumber": 1
        }, {
            "time": 165489.5833333335,
            "duration": 125,
            "noteNumber": 42,
            "velocity": 43,
            "programNumber": 1
        }, {
            "time": 165614.5833333335,
            "duration": 125,
            "noteNumber": 42,
            "velocity": 39,
            "programNumber": 1
        }, {
            "time": 165614.5833333335,
            "duration": 135.41666666665697,
            "noteNumber": 38,
            "velocity": 22,
            "programNumber": 1
        }, {
            "time": 165739.5833333335,
            "duration": 156.25,
            "noteNumber": 36,
            "velocity": 54,
            "programNumber": 1
        }, {
            "time": 165739.5833333335,
            "duration": 250,
            "noteNumber": 42,
            "velocity": 65,
            "programNumber": 1
        }, {
            "time": 165989.5833333335,
            "duration": 125,
            "noteNumber": 42,
            "velocity": 66,
            "programNumber": 1
        }, {
            "time": 165989.5833333335,
            "duration": 125,
            "noteNumber": 36,
            "velocity": 52,
            "programNumber": 1
        }, {
            "time": 166114.5833333335,
            "duration": 57.291666666656965,
            "noteNumber": 38,
            "velocity": 30,
            "programNumber": 1
        }, {
            "time": 166114.5833333335,
            "duration": 125,
            "noteNumber": 42,
            "velocity": 42,
            "programNumber": 1
        }, {
            "time": 166239.5833333335,
            "duration": 114.58333333334303,
            "noteNumber": 36,
            "velocity": 75,
            "programNumber": 1
        }, {
            "time": 166239.5833333335,
            "duration": 125,
            "noteNumber": 42,
            "velocity": 63,
            "programNumber": 1
        }, {
            "time": 166364.5833333335,
            "duration": 125,
            "noteNumber": 42,
            "velocity": 44,
            "programNumber": 1
        }, {
            "time": 166489.5833333335,
            "duration": 119.79166666665697,
            "noteNumber": 36,
            "velocity": 70,
            "programNumber": 1
        }, {
            "time": 166489.5833333335,
            "duration": 125,
            "noteNumber": 42,
            "velocity": 58,
            "programNumber": 1
        }, {
            "time": 166614.5833333335,
            "duration": 57.291666666656965,
            "noteNumber": 38,
            "velocity": 22,
            "programNumber": 1
        }, {
            "time": 166614.5833333335,
            "duration": 125,
            "noteNumber": 42,
            "velocity": 45,
            "programNumber": 1
        }, {
            "time": 166739.5833333335,
            "duration": 125,
            "noteNumber": 42,
            "velocity": 34,
            "programNumber": 1
        }, {
            "time": 166739.5833333335,
            "duration": 156.25,
            "noteNumber": 38,
            "velocity": 41,
            "programNumber": 1
        }, {
            "time": 166864.5833333335,
            "duration": 125,
            "noteNumber": 42,
            "velocity": 67,
            "programNumber": 1
        }, {
            "time": 166864.5833333335,
            "duration": 125,
            "noteNumber": 36,
            "velocity": 45,
            "programNumber": 1
        }, {
            "time": 166989.5833333335,
            "duration": 125,
            "noteNumber": 42,
            "velocity": 44,
            "programNumber": 1
        }, {
            "time": 167114.5833333335,
            "duration": 125,
            "noteNumber": 42,
            "velocity": 38,
            "programNumber": 1
        }, {
            "time": 167114.5833333335,
            "duration": 140.625,
            "noteNumber": 38,
            "velocity": 24,
            "programNumber": 1
        }, {
            "time": 167239.5833333335,
            "duration": 156.25,
            "noteNumber": 36,
            "velocity": 55,
            "programNumber": 1
        }, {
            "time": 167239.5833333335,
            "duration": 250,
            "noteNumber": 42,
            "velocity": 65,
            "programNumber": 1
        }, {
            "time": 167489.5833333335,
            "duration": 125,
            "noteNumber": 42,
            "velocity": 66,
            "programNumber": 1
        }, {
            "time": 167489.5833333335,
            "duration": 125,
            "noteNumber": 36,
            "velocity": 55,
            "programNumber": 1
        }, {
            "time": 167614.5833333335,
            "duration": 57.291666666656965,
            "noteNumber": 38,
            "velocity": 31,
            "programNumber": 1
        }, {
            "time": 167614.5833333335,
            "duration": 125,
            "noteNumber": 42,
            "velocity": 40,
            "programNumber": 1
        }, {
            "time": 167739.5833333335,
            "duration": 125,
            "noteNumber": 36,
            "velocity": 73,
            "programNumber": 1
        }, {
            "time": 167739.5833333335,
            "duration": 125,
            "noteNumber": 42,
            "velocity": 70,
            "programNumber": 1
        }, {
            "time": 167864.5833333335,
            "duration": 125,
            "noteNumber": 42,
            "velocity": 44,
            "programNumber": 1
        }, {
            "time": 167989.5833333335,
            "duration": 119.79166666665697,
            "noteNumber": 36,
            "velocity": 74,
            "programNumber": 1
        }, {
            "time": 167989.5833333335,
            "duration": 125,
            "noteNumber": 42,
            "velocity": 66,
            "programNumber": 1
        }, {
            "time": 168114.5833333335,
            "duration": 57.291666666656965,
            "noteNumber": 38,
            "velocity": 22,
            "programNumber": 1
        }, {
            "time": 168114.5833333335,
            "duration": 125,
            "noteNumber": 42,
            "velocity": 45,
            "programNumber": 1
        }, {
            "time": 168239.5833333335,
            "duration": 67.70833333334303,
            "noteNumber": 38,
            "velocity": 41,
            "programNumber": 1
        }, {
            "time": 168239.5833333335,
            "duration": 125,
            "noteNumber": 42,
            "velocity": 38,
            "programNumber": 1
        }, {
            "time": 168364.5833333335,
            "duration": 125,
            "noteNumber": 42,
            "velocity": 69,
            "programNumber": 1
        }, {
            "time": 168364.5833333335,
            "duration": 125,
            "noteNumber": 36,
            "velocity": 46,
            "programNumber": 1
        }, {
            "time": 168489.5833333335,
            "duration": 125,
            "noteNumber": 42,
            "velocity": 42,
            "programNumber": 1
        }, {
            "time": 168614.5833333335,
            "duration": 125,
            "noteNumber": 42,
            "velocity": 38,
            "programNumber": 1
        }, {
            "time": 168614.5833333335,
            "duration": 140.625,
            "noteNumber": 38,
            "velocity": 25,
            "programNumber": 1
        }, {
            "time": 168739.5833333335,
            "duration": 156.25,
            "noteNumber": 36,
            "velocity": 57,
            "programNumber": 1
        }, {
            "time": 168739.5833333335,
            "duration": 250,
            "noteNumber": 42,
            "velocity": 64,
            "programNumber": 1
        }, {
            "time": 168989.5833333335,
            "duration": 125,
            "noteNumber": 42,
            "velocity": 68,
            "programNumber": 1
        }, {
            "time": 168989.5833333335,
            "duration": 125,
            "noteNumber": 36,
            "velocity": 57,
            "programNumber": 1
        }, {
            "time": 169114.5833333335,
            "duration": 125,
            "noteNumber": 42,
            "velocity": 46,
            "programNumber": 1
        }, {
            "time": 169239.5833333335,
            "duration": 125,
            "noteNumber": 42,
            "velocity": 64,
            "programNumber": 1
        }, {
            "time": 169239.5833333335,
            "duration": 125,
            "noteNumber": 36,
            "velocity": 69,
            "programNumber": 1
        }, {
            "time": 169364.5833333335,
            "duration": 125,
            "noteNumber": 42,
            "velocity": 43,
            "programNumber": 1
        }, {
            "time": 169489.5833333335,
            "duration": 119.79166666665697,
            "noteNumber": 36,
            "velocity": 57,
            "programNumber": 1
        }, {
            "time": 169489.5833333335,
            "duration": 125,
            "noteNumber": 42,
            "velocity": 59,
            "programNumber": 1
        }, {
            "time": 169614.5833333335,
            "duration": 125,
            "noteNumber": 42,
            "velocity": 44,
            "programNumber": 1
        }, {
            "time": 169739.5833333335,
            "duration": 125,
            "noteNumber": 42,
            "velocity": 34,
            "programNumber": 1
        }, {
            "time": 169739.5833333335,
            "duration": 156.25,
            "noteNumber": 38,
            "velocity": 40,
            "programNumber": 1
        }, {
            "time": 169864.5833333335,
            "duration": 125,
            "noteNumber": 42,
            "velocity": 64,
            "programNumber": 1
        }, {
            "time": 169864.5833333335,
            "duration": 125,
            "noteNumber": 36,
            "velocity": 68,
            "programNumber": 1
        }, {
            "time": 169989.5833333335,
            "duration": 125,
            "noteNumber": 42,
            "velocity": 44,
            "programNumber": 1
        }, {
            "time": 170114.5833333335,
            "duration": 125,
            "noteNumber": 42,
            "velocity": 36,
            "programNumber": 1
        }, {
            "time": 170239.5833333335,
            "duration": 166.66666666665697,
            "noteNumber": 36,
            "velocity": 44,
            "programNumber": 1
        }, {
            "time": 170239.5833333335,
            "duration": 250,
            "noteNumber": 42,
            "velocity": 63,
            "programNumber": 1
        }, {
            "time": 170489.5833333335,
            "duration": 125,
            "noteNumber": 36,
            "velocity": 57,
            "programNumber": 1
        }, {
            "time": 170489.5833333335,
            "duration": 177.08333333334303,
            "noteNumber": 42,
            "velocity": 67,
            "programNumber": 1
        }, {
            "time": 170739.5833333335,
            "duration": 125,
            "noteNumber": 42,
            "velocity": 69,
            "programNumber": 1
        }, {
            "time": 170739.5833333335,
            "duration": 125,
            "noteNumber": 36,
            "velocity": 62,
            "programNumber": 1
        }, {
            "time": 170864.5833333335,
            "duration": 125,
            "noteNumber": 42,
            "velocity": 44,
            "programNumber": 1
        }, {
            "time": 170989.5833333335,
            "duration": 119.79166666665697,
            "noteNumber": 36,
            "velocity": 97,
            "programNumber": 1
        }, {
            "time": 170989.5833333335,
            "duration": 125,
            "noteNumber": 42,
            "velocity": 57,
            "programNumber": 1
        }, {
            "time": 171114.5833333335,
            "duration": 125,
            "noteNumber": 42,
            "velocity": 44,
            "programNumber": 1
        }, {
            "time": 171239.5833333335,
            "duration": 125,
            "noteNumber": 42,
            "velocity": 35,
            "programNumber": 1
        }, {
            "time": 171364.5833333335,
            "duration": 125,
            "noteNumber": 42,
            "velocity": 66,
            "programNumber": 1
        }, {
            "time": 171364.5833333335,
            "duration": 125,
            "noteNumber": 36,
            "velocity": 69,
            "programNumber": 1
        }, {
            "time": 171489.5833333335,
            "duration": 125,
            "noteNumber": 42,
            "velocity": 41,
            "programNumber": 1
        }, {
            "time": 171614.5833333335,
            "duration": 125,
            "noteNumber": 42,
            "velocity": 37,
            "programNumber": 1
        }, {
            "time": 171739.5833333335,
            "duration": 125,
            "noteNumber": 42,
            "velocity": 60,
            "programNumber": 1
        }, {
            "time": 171739.5833333335,
            "duration": 125,
            "noteNumber": 36,
            "velocity": 81,
            "programNumber": 1
        }, {
            "time": 171864.5833333335,
            "duration": 125,
            "noteNumber": 42,
            "velocity": 43,
            "programNumber": 1
        }, {
            "time": 171989.5833333335,
            "duration": 125,
            "noteNumber": 36,
            "velocity": 77,
            "programNumber": 1
        }, {
            "time": 171989.5833333335,
            "duration": 125,
            "noteNumber": 42,
            "velocity": 60,
            "programNumber": 1
        }, {
            "time": 172114.5833333335,
            "duration": 125,
            "noteNumber": 42,
            "velocity": 43,
            "programNumber": 1
        }, {
            "time": 172239.5833333335,
            "duration": 125,
            "noteNumber": 42,
            "velocity": 37,
            "programNumber": 1
        }, {
            "time": 172364.5833333335,
            "duration": 72.91666666665697,
            "noteNumber": 38,
            "velocity": 68,
            "programNumber": 1
        }, {
            "time": 172364.5833333335,
            "duration": 125,
            "noteNumber": 42,
            "velocity": 45,
            "programNumber": 1
        }, {
            "time": 172489.5833333335,
            "duration": 125,
            "noteNumber": 42,
            "velocity": 68,
            "programNumber": 1
        }, {
            "time": 172489.5833333335,
            "duration": 125,
            "noteNumber": 36,
            "velocity": 67,
            "programNumber": 1
        }, {
            "time": 172614.5833333335,
            "duration": 125,
            "noteNumber": 42,
            "velocity": 42,
            "programNumber": 1
        }, {
            "time": 172739.5833333335,
            "duration": 125,
            "noteNumber": 36,
            "velocity": 62,
            "programNumber": 1
        }, {
            "time": 172739.5833333335,
            "duration": 125,
            "noteNumber": 42,
            "velocity": 64,
            "programNumber": 1
        }, {
            "time": 172864.5833333335,
            "duration": 125,
            "noteNumber": 42,
            "velocity": 45,
            "programNumber": 1
        }, {
            "time": 172989.5833333335,
            "duration": 125,
            "noteNumber": 42,
            "velocity": 34,
            "programNumber": 1
        }, {
            "time": 173114.5833333335,
            "duration": 125,
            "noteNumber": 42,
            "velocity": 66,
            "programNumber": 1
        }, {
            "time": 173114.5833333335,
            "duration": 125,
            "noteNumber": 36,
            "velocity": 74,
            "programNumber": 1
        }, {
            "time": 173239.5833333335,
            "duration": 125,
            "noteNumber": 42,
            "velocity": 42,
            "programNumber": 1
        }, {
            "time": 173364.5833333335,
            "duration": 125,
            "noteNumber": 42,
            "velocity": 35,
            "programNumber": 1
        }, {
            "time": 173489.5833333335,
            "duration": 119.79166666665697,
            "noteNumber": 36,
            "velocity": 85,
            "programNumber": 1
        }, {
            "time": 173489.5833333335,
            "duration": 125,
            "noteNumber": 42,
            "velocity": 58,
            "programNumber": 1
        }, {
            "time": 173614.5833333335,
            "duration": 125,
            "noteNumber": 42,
            "velocity": 42,
            "programNumber": 1
        }, {
            "time": 173739.5833333335,
            "duration": 119.79166666665697,
            "noteNumber": 36,
            "velocity": 97,
            "programNumber": 1
        }, {
            "time": 173739.5833333335,
            "duration": 125,
            "noteNumber": 42,
            "velocity": 65,
            "programNumber": 1
        }, {
            "time": 173864.5833333335,
            "duration": 125,
            "noteNumber": 42,
            "velocity": 44,
            "programNumber": 1
        }, {
            "time": 173989.5833333335,
            "duration": 119.79166666665697,
            "noteNumber": 36,
            "velocity": 80,
            "programNumber": 1
        }, {
            "time": 173989.5833333335,
            "duration": 125,
            "noteNumber": 42,
            "velocity": 55,
            "programNumber": 1
        }, {
            "time": 174114.5833333335,
            "duration": 125,
            "noteNumber": 42,
            "velocity": 44,
            "programNumber": 1
        }, {
            "time": 174239.5833333335,
            "duration": 125,
            "noteNumber": 42,
            "velocity": 33,
            "programNumber": 1
        }, {
            "time": 174364.5833333335,
            "duration": 119.79166666665697,
            "noteNumber": 36,
            "velocity": 92,
            "programNumber": 1
        }, {
            "time": 174364.5833333335,
            "duration": 125,
            "noteNumber": 42,
            "velocity": 61,
            "programNumber": 1
        }, {
            "time": 174489.5833333335,
            "duration": 125,
            "noteNumber": 42,
            "velocity": 44,
            "programNumber": 1
        }, {
            "time": 174614.5833333335,
            "duration": 125,
            "noteNumber": 42,
            "velocity": 34,
            "programNumber": 1
        }, {
            "time": 174739.5833333335,
            "duration": 145.83333333334303,
            "noteNumber": 36,
            "velocity": 67,
            "programNumber": 1
        }, {
            "time": 174739.5833333335,
            "duration": 250,
            "noteNumber": 42,
            "velocity": 63,
            "programNumber": 1
        }, {
            "time": 174989.5833333335,
            "duration": 125,
            "noteNumber": 42,
            "velocity": 67,
            "programNumber": 1
        }, {
            "time": 174989.5833333335,
            "duration": 125,
            "noteNumber": 36,
            "velocity": 84,
            "programNumber": 1
        }, {
            "time": 175114.5833333335,
            "duration": 125,
            "noteNumber": 42,
            "velocity": 42,
            "programNumber": 1
        }, {
            "time": 175239.5833333335,
            "duration": 125,
            "noteNumber": 42,
            "velocity": 36,
            "programNumber": 1
        }, {
            "time": 175364.5833333335,
            "duration": 78.125,
            "noteNumber": 38,
            "velocity": 94,
            "programNumber": 1
        }, {
            "time": 175364.5833333335,
            "duration": 125,
            "noteNumber": 42,
            "velocity": 64,
            "programNumber": 1
        }, {
            "time": 175489.5833333335,
            "duration": 151.04166666665697,
            "noteNumber": 36,
            "velocity": 71,
            "programNumber": 1
        }, {
            "time": 175489.5833333335,
            "duration": 250,
            "noteNumber": 42,
            "velocity": 76,
            "programNumber": 1
        }, {
            "time": 175739.5833333335,
            "duration": 119.79166666665697,
            "noteNumber": 36,
            "velocity": 81,
            "programNumber": 1
        }, {
            "time": 175739.5833333335,
            "duration": 125,
            "noteNumber": 42,
            "velocity": 60,
            "programNumber": 1
        }, {
            "time": 175864.5833333335,
            "duration": 125,
            "noteNumber": 42,
            "velocity": 42,
            "programNumber": 1
        }, {
            "time": 175989.5833333335,
            "duration": 125,
            "noteNumber": 42,
            "velocity": 35,
            "programNumber": 1
        }, {
            "time": 176114.5833333335,
            "duration": 119.79166666665697,
            "noteNumber": 36,
            "velocity": 97,
            "programNumber": 1
        }, {
            "time": 176114.5833333335,
            "duration": 125,
            "noteNumber": 42,
            "velocity": 62,
            "programNumber": 1
        }, {
            "time": 176239.5833333335,
            "duration": 125,
            "noteNumber": 42,
            "velocity": 41,
            "programNumber": 1
        }, {
            "time": 176364.5833333335,
            "duration": 125,
            "noteNumber": 42,
            "velocity": 33,
            "programNumber": 1
        }, {
            "time": 176489.5833333335,
            "duration": 125,
            "noteNumber": 42,
            "velocity": 52,
            "programNumber": 1
        }, {
            "time": 176489.5833333335,
            "duration": 125,
            "noteNumber": 36,
            "velocity": 70,
            "programNumber": 1
        }, {
            "time": 176614.5833333335,
            "duration": 125,
            "noteNumber": 42,
            "velocity": 43,
            "programNumber": 1
        }, {
            "time": 176739.5833333335,
            "duration": 125,
            "noteNumber": 36,
            "velocity": 84,
            "programNumber": 1
        }, {
            "time": 176739.5833333335,
            "duration": 125,
            "noteNumber": 42,
            "velocity": 69,
            "programNumber": 1
        }, {
            "time": 176864.5833333335,
            "duration": 125,
            "noteNumber": 42,
            "velocity": 44,
            "programNumber": 1
        }, {
            "time": 176989.5833333335,
            "duration": 119.79166666665697,
            "noteNumber": 36,
            "velocity": 92,
            "programNumber": 1
        }, {
            "time": 176989.5833333335,
            "duration": 125,
            "noteNumber": 42,
            "velocity": 61,
            "programNumber": 1
        }, {
            "time": 177114.5833333335,
            "duration": 125,
            "noteNumber": 42,
            "velocity": 44,
            "programNumber": 1
        }, {
            "time": 177239.5833333335,
            "duration": 125,
            "noteNumber": 42,
            "velocity": 37,
            "programNumber": 1
        }, {
            "time": 177364.5833333335,
            "duration": 119.79166666665697,
            "noteNumber": 36,
            "velocity": 100,
            "programNumber": 1
        }, {
            "time": 177364.5833333335,
            "duration": 125,
            "noteNumber": 42,
            "velocity": 67,
            "programNumber": 1
        }, {
            "time": 177489.5833333335,
            "duration": 125,
            "noteNumber": 42,
            "velocity": 41,
            "programNumber": 1
        }, {
            "time": 177614.5833333335,
            "duration": 125,
            "noteNumber": 42,
            "velocity": 34,
            "programNumber": 1
        }, {
            "time": 177739.5833333335,
            "duration": 125,
            "noteNumber": 42,
            "velocity": 65,
            "programNumber": 1
        }, {
            "time": 177739.5833333335,
            "duration": 125,
            "noteNumber": 36,
            "velocity": 71,
            "programNumber": 1
        }, {
            "time": 177864.5833333335,
            "duration": 125,
            "noteNumber": 42,
            "velocity": 43,
            "programNumber": 1
        }, {
            "time": 177989.5833333335,
            "duration": 125,
            "noteNumber": 36,
            "velocity": 71,
            "programNumber": 1
        }, {
            "time": 177989.5833333335,
            "duration": 125,
            "noteNumber": 42,
            "velocity": 64,
            "programNumber": 1
        }, {
            "time": 178114.5833333335,
            "duration": 125,
            "noteNumber": 42,
            "velocity": 43,
            "programNumber": 1
        }, {
            "time": 178239.5833333335,
            "duration": 125,
            "noteNumber": 42,
            "velocity": 34,
            "programNumber": 1
        }, {
            "time": 178364.5833333335,
            "duration": 125,
            "noteNumber": 42,
            "velocity": 71,
            "programNumber": 1
        }, {
            "time": 178364.5833333335,
            "duration": 151.04166666665697,
            "noteNumber": 38,
            "velocity": 116,
            "programNumber": 1
        }, {
            "time": 178489.5833333335,
            "duration": 125,
            "noteNumber": 42,
            "velocity": 70,
            "programNumber": 1
        }, {
            "time": 178489.5833333335,
            "duration": 125,
            "noteNumber": 36,
            "velocity": 94,
            "programNumber": 1
        }, {
            "time": 178614.5833333335,
            "duration": 125,
            "noteNumber": 42,
            "velocity": 39,
            "programNumber": 1
        }, {
            "time": 178739.5833333335,
            "duration": 119.79166666665697,
            "noteNumber": 36,
            "velocity": 91,
            "programNumber": 1
        }, {
            "time": 178739.5833333335,
            "duration": 125,
            "noteNumber": 42,
            "velocity": 64,
            "programNumber": 1
        }, {
            "time": 178864.5833333335,
            "duration": 125,
            "noteNumber": 42,
            "velocity": 41,
            "programNumber": 1
        }, {
            "time": 178989.5833333335,
            "duration": 125,
            "noteNumber": 42,
            "velocity": 35,
            "programNumber": 1
        }, {
            "time": 179114.5833333335,
            "duration": 125,
            "noteNumber": 42,
            "velocity": 67,
            "programNumber": 1
        }, {
            "time": 179114.5833333335,
            "duration": 125,
            "noteNumber": 36,
            "velocity": 62,
            "programNumber": 1
        }, {
            "time": 179239.5833333335,
            "duration": 125,
            "noteNumber": 42,
            "velocity": 41,
            "programNumber": 1
        }, {
            "time": 179364.5833333335,
            "duration": 125,
            "noteNumber": 42,
            "velocity": 33,
            "programNumber": 1
        }, {
            "time": 179489.5833333335,
            "duration": 125,
            "noteNumber": 42,
            "velocity": 60,
            "programNumber": 1
        }, {
            "time": 179489.5833333335,
            "duration": 125,
            "noteNumber": 36,
            "velocity": 73,
            "programNumber": 1
        }, {
            "time": 179614.5833333335,
            "duration": 125,
            "noteNumber": 42,
            "velocity": 43,
            "programNumber": 1
        }, {
            "time": 179739.5833333335,
            "duration": 125,
            "noteNumber": 36,
            "velocity": 78,
            "programNumber": 1
        }, {
            "time": 179739.5833333335,
            "duration": 125,
            "noteNumber": 42,
            "velocity": 66,
            "programNumber": 1
        }, {
            "time": 179864.5833333335,
            "duration": 125,
            "noteNumber": 42,
            "velocity": 45,
            "programNumber": 1
        }, {
            "time": 179989.5833333335,
            "duration": 125,
            "noteNumber": 42,
            "velocity": 59,
            "programNumber": 1
        }, {
            "time": 179989.5833333335,
            "duration": 125,
            "noteNumber": 36,
            "velocity": 74,
            "programNumber": 1
        }, {
            "time": 180114.5833333335,
            "duration": 125,
            "noteNumber": 42,
            "velocity": 41,
            "programNumber": 1
        }, {
            "time": 180239.5833333335,
            "duration": 125,
            "noteNumber": 42,
            "velocity": 35,
            "programNumber": 1
        }, {
            "time": 180364.5833333335,
            "duration": 119.79166666665697,
            "noteNumber": 36,
            "velocity": 87,
            "programNumber": 1
        }, {
            "time": 180364.5833333335,
            "duration": 125,
            "noteNumber": 42,
            "velocity": 65,
            "programNumber": 1
        }, {
            "time": 180489.5833333335,
            "duration": 125,
            "noteNumber": 42,
            "velocity": 42,
            "programNumber": 1
        }, {
            "time": 180614.5833333335,
            "duration": 125,
            "noteNumber": 42,
            "velocity": 36,
            "programNumber": 1
        }, {
            "time": 180739.5833333335,
            "duration": 119.79166666665697,
            "noteNumber": 36,
            "velocity": 97,
            "programNumber": 1
        }, {
            "time": 180739.5833333335,
            "duration": 125,
            "noteNumber": 42,
            "velocity": 63,
            "programNumber": 1
        }, {
            "time": 180864.5833333335,
            "duration": 125,
            "noteNumber": 42,
            "velocity": 44,
            "programNumber": 1
        }, {
            "time": 180989.5833333335,
            "duration": 119.79166666665697,
            "noteNumber": 36,
            "velocity": 93,
            "programNumber": 1
        }, {
            "time": 180989.5833333335,
            "duration": 125,
            "noteNumber": 42,
            "velocity": 64,
            "programNumber": 1
        }, {
            "time": 181114.5833333335,
            "duration": 125,
            "noteNumber": 42,
            "velocity": 45,
            "programNumber": 1
        }, {
            "time": 181239.5833333335,
            "duration": 125,
            "noteNumber": 42,
            "velocity": 36,
            "programNumber": 1
        }, {
            "time": 181364.5833333335,
            "duration": 125,
            "noteNumber": 42,
            "velocity": 81,
            "programNumber": 1
        }, {
            "time": 181364.5833333335,
            "duration": 151.04166666665697,
            "noteNumber": 38,
            "velocity": 115,
            "programNumber": 1
        }, {
            "time": 181489.5833333335,
            "duration": 151.04166666665697,
            "noteNumber": 36,
            "velocity": 76,
            "programNumber": 1
        }, {
            "time": 181489.5833333335,
            "duration": 250,
            "noteNumber": 42,
            "velocity": 63,
            "programNumber": 1
        }, {
            "time": 181739.5833333335,
            "duration": 125,
            "noteNumber": 42,
            "velocity": 63,
            "programNumber": 1
        }, {
            "time": 181739.5833333335,
            "duration": 125,
            "noteNumber": 36,
            "velocity": 77,
            "programNumber": 1
        }, {
            "time": 181864.5833333335,
            "duration": 125,
            "noteNumber": 42,
            "velocity": 42,
            "programNumber": 1
        }, {
            "time": 181989.5833333335,
            "duration": 62.5,
            "noteNumber": 42,
            "velocity": 34,
            "programNumber": 1
        }, {
            "time": 182114.5833333335,
            "duration": 125,
            "noteNumber": 36,
            "velocity": 74,
            "programNumber": 1
        }, {
            "time": 182114.5833333335,
            "duration": 125,
            "noteNumber": 42,
            "velocity": 64,
            "programNumber": 1
        }, {
            "time": 182239.5833333335,
            "duration": 125,
            "noteNumber": 42,
            "velocity": 43,
            "programNumber": 1
        }, {
            "time": 182364.5833333335,
            "duration": 62.5,
            "noteNumber": 38,
            "velocity": 40,
            "programNumber": 1
        }, {
            "time": 182364.5833333335,
            "duration": 125,
            "noteNumber": 42,
            "velocity": 35,
            "programNumber": 1
        }, {
            "time": 182489.5833333335,
            "duration": 125,
            "noteNumber": 42,
            "velocity": 60,
            "programNumber": 1
        }, {
            "time": 182489.5833333335,
            "duration": 125,
            "noteNumber": 36,
            "velocity": 85,
            "programNumber": 1
        }, {
            "time": 182614.5833333335,
            "duration": 125,
            "noteNumber": 42,
            "velocity": 46,
            "programNumber": 1
        }, {
            "time": 182739.5833333335,
            "duration": 125,
            "noteNumber": 42,
            "velocity": 71,
            "programNumber": 1
        }, {
            "time": 182739.5833333335,
            "duration": 135.41666666665697,
            "noteNumber": 36,
            "velocity": 56,
            "programNumber": 1
        }, {
            "time": 182864.5833333335,
            "duration": 125,
            "noteNumber": 42,
            "velocity": 43,
            "programNumber": 1
        }, {
            "time": 182989.5833333335,
            "duration": 119.79166666665697,
            "noteNumber": 36,
            "velocity": 81,
            "programNumber": 1
        }, {
            "time": 182989.5833333335,
            "duration": 125,
            "noteNumber": 42,
            "velocity": 58,
            "programNumber": 1
        }, {
            "time": 183114.5833333335,
            "duration": 125,
            "noteNumber": 42,
            "velocity": 45,
            "programNumber": 1
        }, {
            "time": 183239.5833333335,
            "duration": 125,
            "noteNumber": 42,
            "velocity": 34,
            "programNumber": 1
        }, {
            "time": 183364.5833333335,
            "duration": 125,
            "noteNumber": 42,
            "velocity": 66,
            "programNumber": 1
        }, {
            "time": 183364.5833333335,
            "duration": 125,
            "noteNumber": 36,
            "velocity": 57,
            "programNumber": 1
        }, {
            "time": 183489.5833333335,
            "duration": 125,
            "noteNumber": 42,
            "velocity": 44,
            "programNumber": 1
        }, {
            "time": 183614.5833333335,
            "duration": 62.5,
            "noteNumber": 38,
            "velocity": 38,
            "programNumber": 1
        }, {
            "time": 183614.5833333335,
            "duration": 125,
            "noteNumber": 42,
            "velocity": 38,
            "programNumber": 1
        }, {
            "time": 183739.5833333335,
            "duration": 156.25,
            "noteNumber": 36,
            "velocity": 66,
            "programNumber": 1
        }, {
            "time": 183739.5833333335,
            "duration": 250,
            "noteNumber": 42,
            "velocity": 63,
            "programNumber": 1
        }, {
            "time": 183989.5833333335,
            "duration": 125,
            "noteNumber": 36,
            "velocity": 86,
            "programNumber": 1
        }, {
            "time": 183989.5833333335,
            "duration": 130.20833333334303,
            "noteNumber": 42,
            "velocity": 71,
            "programNumber": 1
        }, {
            "time": 184119.79166666683,
            "duration": 119.79166666665697,
            "noteNumber": 42,
            "velocity": 47,
            "programNumber": 1
        }, {
            "time": 184239.5833333335,
            "duration": 62.5,
            "noteNumber": 38,
            "velocity": 42,
            "programNumber": 1
        }, {
            "time": 184239.5833333335,
            "duration": 125,
            "noteNumber": 42,
            "velocity": 38,
            "programNumber": 1
        }, {
            "time": 184364.5833333335,
            "duration": 125,
            "noteNumber": 42,
            "velocity": 64,
            "programNumber": 1
        }, {
            "time": 184364.5833333335,
            "duration": 161.45833333334303,
            "noteNumber": 38,
            "velocity": 100,
            "programNumber": 1
        }, {
            "time": 184489.5833333335,
            "duration": 182.29166666668607,
            "noteNumber": 36,
            "velocity": 50,
            "programNumber": 1
        }, {
            "time": 184489.5833333335,
            "duration": 250.0000000000291,
            "noteNumber": 42,
            "velocity": 66,
            "programNumber": 1
        }, {
            "time": 184739.58333333352,
            "duration": 125,
            "noteNumber": 36,
            "velocity": 47,
            "programNumber": 1
        }, {
            "time": 184739.58333333352,
            "duration": 130.20833333334303,
            "noteNumber": 42,
            "velocity": 64,
            "programNumber": 1
        }, {
            "time": 184869.79166666686,
            "duration": 119.79166666665697,
            "noteNumber": 42,
            "velocity": 45,
            "programNumber": 1
        }, {
            "time": 184989.58333333352,
            "duration": 125,
            "noteNumber": 42,
            "velocity": 36,
            "programNumber": 1
        }, {
            "time": 185114.58333333352,
            "duration": 125,
            "noteNumber": 42,
            "velocity": 67,
            "programNumber": 1
        }, {
            "time": 185114.58333333352,
            "duration": 125,
            "noteNumber": 36,
            "velocity": 58,
            "programNumber": 1
        }, {
            "time": 185239.58333333352,
            "duration": 125,
            "noteNumber": 42,
            "velocity": 45,
            "programNumber": 1
        }, {
            "time": 185364.58333333352,
            "duration": 62.5,
            "noteNumber": 38,
            "velocity": 36,
            "programNumber": 1
        }, {
            "time": 185364.58333333352,
            "duration": 125,
            "noteNumber": 42,
            "velocity": 39,
            "programNumber": 1
        }, {
            "time": 185489.58333333352,
            "duration": 125,
            "noteNumber": 42,
            "velocity": 57,
            "programNumber": 1
        }, {
            "time": 185489.58333333352,
            "duration": 125,
            "noteNumber": 36,
            "velocity": 69,
            "programNumber": 1
        }, {
            "time": 185614.58333333352,
            "duration": 125,
            "noteNumber": 42,
            "velocity": 44,
            "programNumber": 1
        }, {
            "time": 185739.58333333352,
            "duration": 125,
            "noteNumber": 42,
            "velocity": 66,
            "programNumber": 1
        }, {
            "time": 185739.58333333352,
            "duration": 135.41666666665697,
            "noteNumber": 36,
            "velocity": 49,
            "programNumber": 1
        }, {
            "time": 185864.58333333352,
            "duration": 125,
            "noteNumber": 42,
            "velocity": 43,
            "programNumber": 1
        }, {
            "time": 185989.58333333352,
            "duration": 125,
            "noteNumber": 36,
            "velocity": 49,
            "programNumber": 1
        }, {
            "time": 185989.58333333352,
            "duration": 125,
            "noteNumber": 42,
            "velocity": 61,
            "programNumber": 1
        }, {
            "time": 186114.58333333352,
            "duration": 125,
            "noteNumber": 42,
            "velocity": 44,
            "programNumber": 1
        }, {
            "time": 186239.58333333352,
            "duration": 125,
            "noteNumber": 42,
            "velocity": 38,
            "programNumber": 1
        }, {
            "time": 186364.58333333352,
            "duration": 125,
            "noteNumber": 36,
            "velocity": 61,
            "programNumber": 1
        }, {
            "time": 186364.58333333352,
            "duration": 125,
            "noteNumber": 42,
            "velocity": 73,
            "programNumber": 1
        }, {
            "time": 186489.58333333352,
            "duration": 125,
            "noteNumber": 42,
            "velocity": 46,
            "programNumber": 1
        }, {
            "time": 186614.58333333352,
            "duration": 125,
            "noteNumber": 42,
            "velocity": 35,
            "programNumber": 1
        }, {
            "time": 186739.58333333352,
            "duration": 161.45833333334303,
            "noteNumber": 36,
            "velocity": 70,
            "programNumber": 1
        }, {
            "time": 186739.58333333352,
            "duration": 250,
            "noteNumber": 42,
            "velocity": 67,
            "programNumber": 1
        }, {
            "time": 186989.58333333352,
            "duration": 125,
            "noteNumber": 36,
            "velocity": 72,
            "programNumber": 1
        }, {
            "time": 186989.58333333352,
            "duration": 125,
            "noteNumber": 42,
            "velocity": 72,
            "programNumber": 1
        }, {
            "time": 187114.58333333352,
            "duration": 125,
            "noteNumber": 42,
            "velocity": 46,
            "programNumber": 1
        }, {
            "time": 187239.58333333352,
            "duration": 62.5,
            "noteNumber": 38,
            "velocity": 39,
            "programNumber": 1
        }, {
            "time": 187239.58333333352,
            "duration": 125,
            "noteNumber": 42,
            "velocity": 36,
            "programNumber": 1
        }, {
            "time": 187364.58333333352,
            "duration": 125,
            "noteNumber": 42,
            "velocity": 69,
            "programNumber": 1
        }, {
            "time": 187364.58333333352,
            "duration": 151.04166666665697,
            "noteNumber": 38,
            "velocity": 108,
            "programNumber": 1
        }, {
            "time": 187489.58333333352,
            "duration": 161.45833333331393,
            "noteNumber": 36,
            "velocity": 73,
            "programNumber": 1
        }, {
            "time": 187489.58333333352,
            "duration": 249.9999999999709,
            "noteNumber": 42,
            "velocity": 66,
            "programNumber": 1
        }, {
            "time": 187739.5833333335,
            "duration": 125,
            "noteNumber": 42,
            "velocity": 53,
            "programNumber": 1
        }, {
            "time": 187739.5833333335,
            "duration": 130.20833333334303,
            "noteNumber": 36,
            "velocity": 74,
            "programNumber": 1
        }, {
            "time": 187864.5833333335,
            "duration": 125,
            "noteNumber": 42,
            "velocity": 33,
            "programNumber": 1
        }, {
            "time": 187989.5833333335,
            "duration": 125,
            "noteNumber": 42,
            "velocity": 37,
            "programNumber": 1
        }, {
            "time": 188114.5833333335,
            "duration": 130.20833333334303,
            "noteNumber": 42,
            "velocity": 63,
            "programNumber": 1
        }, {
            "time": 188114.5833333335,
            "duration": 130.20833333334303,
            "noteNumber": 36,
            "velocity": 58,
            "programNumber": 1
        }, {
            "time": 188244.79166666683,
            "duration": 119.79166666665697,
            "noteNumber": 42,
            "velocity": 42,
            "programNumber": 1
        }, {
            "time": 188364.5833333335,
            "duration": 125,
            "noteNumber": 42,
            "velocity": 37,
            "programNumber": 1
        }, {
            "time": 188489.5833333335,
            "duration": 125,
            "noteNumber": 42,
            "velocity": 63,
            "programNumber": 1
        }, {
            "time": 188489.5833333335,
            "duration": 130.20833333334303,
            "noteNumber": 36,
            "velocity": 71,
            "programNumber": 1
        }, {
            "time": 188614.5833333335,
            "duration": 125,
            "noteNumber": 42,
            "velocity": 43,
            "programNumber": 1
        }, {
            "time": 188739.5833333335,
            "duration": 119.79166666665697,
            "noteNumber": 36,
            "velocity": 77,
            "programNumber": 1
        }, {
            "time": 188739.5833333335,
            "duration": 151.04166666665697,
            "noteNumber": 42,
            "velocity": 67,
            "programNumber": 1
        }, {
            "time": 188890.62500000015,
            "duration": 125,
            "noteNumber": 42,
            "velocity": 37,
            "programNumber": 1
        }, {
            "time": 189015.62500000015,
            "duration": 166.66666666665697,
            "noteNumber": 36,
            "velocity": 60,
            "programNumber": 1
        }, {
            "time": 189015.62500000015,
            "duration": 250,
            "noteNumber": 42,
            "velocity": 65,
            "programNumber": 1
        }, {
            "time": 189265.62500000015,
            "duration": 125,
            "noteNumber": 42,
            "velocity": 65,
            "programNumber": 1
        }, {
            "time": 189265.62500000015,
            "duration": 125,
            "noteNumber": 36,
            "velocity": 61,
            "programNumber": 1
        }, {
            "time": 189390.62500000015,
            "duration": 125,
            "noteNumber": 42,
            "velocity": 43,
            "programNumber": 1
        }, {
            "time": 189515.62500000015,
            "duration": 125,
            "noteNumber": 42,
            "velocity": 36,
            "programNumber": 1
        }, {
            "time": 189640.62500000015,
            "duration": 125,
            "noteNumber": 42,
            "velocity": 42,
            "programNumber": 1
        }, {
            "time": 189640.62500000015,
            "duration": 125,
            "noteNumber": 36,
            "velocity": 63,
            "programNumber": 1
        }, {
            "time": 189765.62500000015,
            "duration": 125,
            "noteNumber": 42,
            "velocity": 45,
            "programNumber": 1
        }, {
            "time": 189890.62500000015,
            "duration": 62.5,
            "noteNumber": 38,
            "velocity": 37,
            "programNumber": 1
        }, {
            "time": 189890.62500000015,
            "duration": 125,
            "noteNumber": 42,
            "velocity": 36,
            "programNumber": 1
        }, {
            "time": 190015.62500000015,
            "duration": 145.83333333334303,
            "noteNumber": 36,
            "velocity": 84,
            "programNumber": 1
        }, {
            "time": 190015.62500000015,
            "duration": 250,
            "noteNumber": 42,
            "velocity": 67,
            "programNumber": 1
        }, {
            "time": 190265.62500000015,
            "duration": 119.79166666665697,
            "noteNumber": 36,
            "velocity": 83,
            "programNumber": 1
        }, {
            "time": 190265.62500000015,
            "duration": 125,
            "noteNumber": 42,
            "velocity": 63,
            "programNumber": 1
        }, {
            "time": 190390.62500000015,
            "duration": 125,
            "noteNumber": 42,
            "velocity": 44,
            "programNumber": 1
        }, {
            "time": 190515.62500000015,
            "duration": 125,
            "noteNumber": 42,
            "velocity": 36,
            "programNumber": 1
        }, {
            "time": 190640.62500000015,
            "duration": 125,
            "noteNumber": 42,
            "velocity": 69,
            "programNumber": 1
        }, {
            "time": 190640.62500000015,
            "duration": 135.41666666665697,
            "noteNumber": 36,
            "velocity": 53,
            "programNumber": 1
        }, {
            "time": 190765.62500000015,
            "duration": 125,
            "noteNumber": 42,
            "velocity": 44,
            "programNumber": 1
        }, {
            "time": 190890.62500000015,
            "duration": 125,
            "noteNumber": 42,
            "velocity": 35,
            "programNumber": 1
        }, {
            "time": 191015.62500000015,
            "duration": 161.45833333334303,
            "noteNumber": 36,
            "velocity": 65,
            "programNumber": 1
        }, {
            "time": 191015.62500000015,
            "duration": 250,
            "noteNumber": 42,
            "velocity": 68,
            "programNumber": 1
        }, {
            "time": 191265.62500000015,
            "duration": 125,
            "noteNumber": 42,
            "velocity": 70,
            "programNumber": 1
        }, {
            "time": 191265.62500000015,
            "duration": 125,
            "noteNumber": 36,
            "velocity": 65,
            "programNumber": 1
        }, {
            "time": 191390.62500000015,
            "duration": 125,
            "noteNumber": 42,
            "velocity": 45,
            "programNumber": 1
        }, {
            "time": 191515.62500000015,
            "duration": 62.5,
            "noteNumber": 38,
            "velocity": 39,
            "programNumber": 1
        }, {
            "time": 191515.62500000015,
            "duration": 125,
            "noteNumber": 42,
            "velocity": 35,
            "programNumber": 1
        }, {
            "time": 191640.62500000015,
            "duration": 125,
            "noteNumber": 42,
            "velocity": 43,
            "programNumber": 1
        }, {
            "time": 191640.62500000015,
            "duration": 125,
            "noteNumber": 36,
            "velocity": 68,
            "programNumber": 1
        }, {
            "time": 191765.62500000015,
            "duration": 125,
            "noteNumber": 42,
            "velocity": 44,
            "programNumber": 1
        }, {
            "time": 191890.62500000015,
            "duration": 125,
            "noteNumber": 42,
            "velocity": 35,
            "programNumber": 1
        }, {
            "time": 192015.62500000015,
            "duration": 125,
            "noteNumber": 42,
            "velocity": 64,
            "programNumber": 1
        }, {
            "time": 192015.62500000015,
            "duration": 135.41666666665697,
            "noteNumber": 36,
            "velocity": 53,
            "programNumber": 1
        }, {
            "time": 192140.62500000015,
            "duration": 125,
            "noteNumber": 42,
            "velocity": 45,
            "programNumber": 1
        }, {
            "time": 192265.62500000015,
            "duration": 125,
            "noteNumber": 42,
            "velocity": 56,
            "programNumber": 1
        }, {
            "time": 192265.62500000015,
            "duration": 125,
            "noteNumber": 36,
            "velocity": 47,
            "programNumber": 1
        }, {
            "time": 192390.62500000015,
            "duration": 125,
            "noteNumber": 42,
            "velocity": 44,
            "programNumber": 1
        }, {
            "time": 192515.62500000015,
            "duration": 125,
            "noteNumber": 42,
            "velocity": 35,
            "programNumber": 1
        }, {
            "time": 192640.62500000015,
            "duration": 125,
            "noteNumber": 42,
            "velocity": 66,
            "programNumber": 1
        }, {
            "time": 192640.62500000015,
            "duration": 125,
            "noteNumber": 36,
            "velocity": 58,
            "programNumber": 1
        }, {
            "time": 192765.62500000015,
            "duration": 125,
            "noteNumber": 42,
            "velocity": 43,
            "programNumber": 1
        }, {
            "time": 192890.62500000015,
            "duration": 125,
            "noteNumber": 42,
            "velocity": 34,
            "programNumber": 1
        }, {
            "time": 193015.62500000015,
            "duration": 171.875,
            "noteNumber": 36,
            "velocity": 68,
            "programNumber": 1
        }, {
            "time": 193015.62500000015,
            "duration": 250,
            "noteNumber": 42,
            "velocity": 63,
            "programNumber": 1
        }, {
            "time": 193265.62500000015,
            "duration": 125,
            "noteNumber": 36,
            "velocity": 65,
            "programNumber": 1
        }, {
            "time": 193265.62500000015,
            "duration": 161.45833333334303,
            "noteNumber": 42,
            "velocity": 67,
            "programNumber": 1
        }, {
            "time": 193515.62500000015,
            "duration": 125,
            "noteNumber": 42,
            "velocity": 67,
            "programNumber": 1
        }, {
            "time": 193515.62500000015,
            "duration": 125,
            "noteNumber": 36,
            "velocity": 68,
            "programNumber": 1
        }, {
            "time": 193640.62500000015,
            "duration": 125,
            "noteNumber": 42,
            "velocity": 44,
            "programNumber": 1
        }, {
            "time": 193765.62500000015,
            "duration": 119.79166666665697,
            "noteNumber": 36,
            "velocity": 65,
            "programNumber": 1
        }, {
            "time": 193765.62500000015,
            "duration": 125,
            "noteNumber": 42,
            "velocity": 57,
            "programNumber": 1
        }, {
            "time": 193890.62500000015,
            "duration": 125,
            "noteNumber": 42,
            "velocity": 42,
            "programNumber": 1
        }, {
            "time": 194015.62500000015,
            "duration": 72.91666666665697,
            "noteNumber": 38,
            "velocity": 25,
            "programNumber": 1
        }, {
            "time": 194015.62500000015,
            "duration": 125,
            "noteNumber": 42,
            "velocity": 38,
            "programNumber": 1
        }, {
            "time": 194140.62500000015,
            "duration": 119.79166666665697,
            "noteNumber": 36,
            "velocity": 78,
            "programNumber": 1
        }, {
            "time": 194140.62500000015,
            "duration": 125,
            "noteNumber": 42,
            "velocity": 68,
            "programNumber": 1
        }, {
            "time": 194265.62500000015,
            "duration": 125,
            "noteNumber": 42,
            "velocity": 42,
            "programNumber": 1
        }, {
            "time": 194390.62500000015,
            "duration": 125,
            "noteNumber": 42,
            "velocity": 36,
            "programNumber": 1
        }, {
            "time": 194515.62500000015,
            "duration": 151.04166666665697,
            "noteNumber": 36,
            "velocity": 49,
            "programNumber": 1
        }, {
            "time": 194515.62500000015,
            "duration": 250,
            "noteNumber": 42,
            "velocity": 61,
            "programNumber": 1
        }, {
            "time": 194765.62500000015,
            "duration": 125,
            "noteNumber": 36,
            "velocity": 51,
            "programNumber": 1
        }, {
            "time": 194765.62500000015,
            "duration": 125,
            "noteNumber": 42,
            "velocity": 65,
            "programNumber": 1
        }, {
            "time": 194890.62500000015,
            "duration": 125,
            "noteNumber": 42,
            "velocity": 44,
            "programNumber": 1
        }, {
            "time": 195015.62500000015,
            "duration": 125,
            "noteNumber": 36,
            "velocity": 66,
            "programNumber": 1
        }, {
            "time": 195015.62500000015,
            "duration": 125,
            "noteNumber": 42,
            "velocity": 68,
            "programNumber": 1
        }, {
            "time": 195140.62500000015,
            "duration": 125,
            "noteNumber": 42,
            "velocity": 42,
            "programNumber": 1
        }, {
            "time": 195265.62500000015,
            "duration": 125,
            "noteNumber": 42,
            "velocity": 61,
            "programNumber": 1
        }, {
            "time": 195265.62500000015,
            "duration": 125,
            "noteNumber": 36,
            "velocity": 70,
            "programNumber": 1
        }, {
            "time": 195390.62500000015,
            "duration": 125,
            "noteNumber": 42,
            "velocity": 46,
            "programNumber": 1
        }, {
            "time": 195515.62500000015,
            "duration": 67.70833333334303,
            "noteNumber": 38,
            "velocity": 40,
            "programNumber": 1
        }, {
            "time": 195515.62500000015,
            "duration": 125,
            "noteNumber": 42,
            "velocity": 39,
            "programNumber": 1
        }, {
            "time": 195640.62500000015,
            "duration": 125,
            "noteNumber": 42,
            "velocity": 69,
            "programNumber": 1
        }, {
            "time": 195640.62500000015,
            "duration": 125,
            "noteNumber": 36,
            "velocity": 79,
            "programNumber": 1
        }, {
            "time": 195765.62500000015,
            "duration": 125,
            "noteNumber": 42,
            "velocity": 46,
            "programNumber": 1
        }, {
            "time": 195890.62500000015,
            "duration": 125,
            "noteNumber": 42,
            "velocity": 35,
            "programNumber": 1
        }, {
            "time": 196015.62500000015,
            "duration": 161.45833333334303,
            "noteNumber": 36,
            "velocity": 49,
            "programNumber": 1
        }, {
            "time": 196015.62500000015,
            "duration": 250,
            "noteNumber": 42,
            "velocity": 68,
            "programNumber": 1
        }, {
            "time": 196265.62500000015,
            "duration": 125,
            "noteNumber": 42,
            "velocity": 65,
            "programNumber": 1
        }, {
            "time": 196265.62500000015,
            "duration": 125,
            "noteNumber": 36,
            "velocity": 51,
            "programNumber": 1
        }, {
            "time": 196390.62500000015,
            "duration": 125,
            "noteNumber": 42,
            "velocity": 46,
            "programNumber": 1
        }, {
            "time": 196515.62500000015,
            "duration": 125,
            "noteNumber": 36,
            "velocity": 64,
            "programNumber": 1
        }, {
            "time": 196515.62500000015,
            "duration": 125,
            "noteNumber": 42,
            "velocity": 71,
            "programNumber": 1
        }, {
            "time": 196640.62500000015,
            "duration": 125,
            "noteNumber": 42,
            "velocity": 44,
            "programNumber": 1
        }, {
            "time": 196765.62500000015,
            "duration": 125,
            "noteNumber": 42,
            "velocity": 57,
            "programNumber": 1
        }, {
            "time": 196765.62500000015,
            "duration": 125,
            "noteNumber": 36,
            "velocity": 52,
            "programNumber": 1
        }, {
            "time": 196890.62500000015,
            "duration": 125,
            "noteNumber": 42,
            "velocity": 47,
            "programNumber": 1
        }, {
            "time": 197015.62500000015,
            "duration": 62.5,
            "noteNumber": 38,
            "velocity": 48,
            "programNumber": 1
        }, {
            "time": 197015.62500000015,
            "duration": 125,
            "noteNumber": 42,
            "velocity": 37,
            "programNumber": 1
        }, {
            "time": 197140.62500000015,
            "duration": 125,
            "noteNumber": 42,
            "velocity": 65,
            "programNumber": 1
        }, {
            "time": 197140.62500000015,
            "duration": 125,
            "noteNumber": 36,
            "velocity": 64,
            "programNumber": 1
        }, {
            "time": 197265.62500000015,
            "duration": 125,
            "noteNumber": 42,
            "velocity": 44,
            "programNumber": 1
        }, {
            "time": 197390.62500000015,
            "duration": 125,
            "noteNumber": 42,
            "velocity": 40,
            "programNumber": 1
        }, {
            "time": 197515.62500000015,
            "duration": 151.04166666665697,
            "noteNumber": 36,
            "velocity": 74,
            "programNumber": 1
        }, {
            "time": 197515.62500000015,
            "duration": 250,
            "noteNumber": 42,
            "velocity": 65,
            "programNumber": 1
        }, {
            "time": 197765.62500000015,
            "duration": 119.79166666665697,
            "noteNumber": 36,
            "velocity": 70,
            "programNumber": 1
        }, {
            "time": 197765.62500000015,
            "duration": 125,
            "noteNumber": 42,
            "velocity": 66,
            "programNumber": 1
        }, {
            "time": 197890.62500000015,
            "duration": 125,
            "noteNumber": 42,
            "velocity": 44,
            "programNumber": 1
        }, {
            "time": 198015.62500000015,
            "duration": 125,
            "noteNumber": 36,
            "velocity": 59,
            "programNumber": 1
        }, {
            "time": 198015.62500000015,
            "duration": 125,
            "noteNumber": 42,
            "velocity": 65,
            "programNumber": 1
        }, {
            "time": 198140.62500000015,
            "duration": 125,
            "noteNumber": 42,
            "velocity": 44,
            "programNumber": 1
        }, {
            "time": 198265.62500000015,
            "duration": 125,
            "noteNumber": 36,
            "velocity": 54,
            "programNumber": 1
        }, {
            "time": 198265.62500000015,
            "duration": 125,
            "noteNumber": 42,
            "velocity": 60,
            "programNumber": 1
        }, {
            "time": 198390.62500000015,
            "duration": 125,
            "noteNumber": 42,
            "velocity": 46,
            "programNumber": 1
        }, {
            "time": 198515.62500000015,
            "duration": 62.5,
            "noteNumber": 38,
            "velocity": 46,
            "programNumber": 1
        }, {
            "time": 198515.62500000015,
            "duration": 125,
            "noteNumber": 42,
            "velocity": 35,
            "programNumber": 1
        }, {
            "time": 198640.62500000015,
            "duration": 125,
            "noteNumber": 42,
            "velocity": 69,
            "programNumber": 1
        }, {
            "time": 198640.62500000015,
            "duration": 125,
            "noteNumber": 36,
            "velocity": 64,
            "programNumber": 1
        }, {
            "time": 198765.62500000015,
            "duration": 125,
            "noteNumber": 42,
            "velocity": 45,
            "programNumber": 1
        }, {
            "time": 198890.62500000015,
            "duration": 125,
            "noteNumber": 42,
            "velocity": 39,
            "programNumber": 1
        }, {
            "time": 199015.62500000015,
            "duration": 151.04166666665697,
            "noteNumber": 36,
            "velocity": 76,
            "programNumber": 1
        }, {
            "time": 199015.62500000015,
            "duration": 250,
            "noteNumber": 42,
            "velocity": 66,
            "programNumber": 1
        }, {
            "time": 199265.62500000015,
            "duration": 119.79166666665697,
            "noteNumber": 36,
            "velocity": 74,
            "programNumber": 1
        }, {
            "time": 199265.62500000015,
            "duration": 125,
            "noteNumber": 42,
            "velocity": 66,
            "programNumber": 1
        }, {
            "time": 199390.62500000015,
            "duration": 125,
            "noteNumber": 42,
            "velocity": 42,
            "programNumber": 1
        }, {
            "time": 199515.62500000015,
            "duration": 125,
            "noteNumber": 36,
            "velocity": 56,
            "programNumber": 1
        }, {
            "time": 199515.62500000015,
            "duration": 125,
            "noteNumber": 42,
            "velocity": 72,
            "programNumber": 1
        }, {
            "time": 199640.62500000015,
            "duration": 125,
            "noteNumber": 42,
            "velocity": 44,
            "programNumber": 1
        }, {
            "time": 199765.62500000015,
            "duration": 125,
            "noteNumber": 42,
            "velocity": 66,
            "programNumber": 1
        }, {
            "time": 199765.62500000015,
            "duration": 125,
            "noteNumber": 36,
            "velocity": 57,
            "programNumber": 1
        }, {
            "time": 199890.62500000015,
            "duration": 125,
            "noteNumber": 42,
            "velocity": 45,
            "programNumber": 1
        }, {
            "time": 200015.62500000015,
            "duration": 62.5,
            "noteNumber": 38,
            "velocity": 46,
            "programNumber": 1
        }, {
            "time": 200015.62500000015,
            "duration": 125,
            "noteNumber": 42,
            "velocity": 38,
            "programNumber": 1
        }, {
            "time": 200140.62500000015,
            "duration": 125,
            "noteNumber": 42,
            "velocity": 70,
            "programNumber": 1
        }, {
            "time": 200140.62500000015,
            "duration": 125,
            "noteNumber": 36,
            "velocity": 66,
            "programNumber": 1
        }, {
            "time": 200265.62500000015,
            "duration": 125,
            "noteNumber": 42,
            "velocity": 42,
            "programNumber": 1
        }, {
            "time": 200390.62500000015,
            "duration": 125,
            "noteNumber": 42,
            "velocity": 39,
            "programNumber": 1
        }, {
            "time": 200515.62500000015,
            "duration": 156.25,
            "noteNumber": 36,
            "velocity": 77,
            "programNumber": 1
        }, {
            "time": 200515.62500000015,
            "duration": 250,
            "noteNumber": 42,
            "velocity": 64,
            "programNumber": 1
        }, {
            "time": 200765.62500000015,
            "duration": 119.79166666665697,
            "noteNumber": 36,
            "velocity": 78,
            "programNumber": 1
        }, {
            "time": 200765.62500000015,
            "duration": 125,
            "noteNumber": 42,
            "velocity": 68,
            "programNumber": 1
        }, {
            "time": 200890.62500000015,
            "duration": 125,
            "noteNumber": 42,
            "velocity": 47,
            "programNumber": 1
        }, {
            "time": 201015.62500000015,
            "duration": 125,
            "noteNumber": 36,
            "velocity": 52,
            "programNumber": 1
        }, {
            "time": 201015.62500000015,
            "duration": 130.20833333334303,
            "noteNumber": 42,
            "velocity": 65,
            "programNumber": 1
        }, {
            "time": 201145.8333333335,
            "duration": 119.79166666665697,
            "noteNumber": 42,
            "velocity": 45,
            "programNumber": 1
        }, {
            "time": 201265.62500000015,
            "duration": 119.79166666665697,
            "noteNumber": 36,
            "velocity": 76,
            "programNumber": 1
        }, {
            "time": 201265.62500000015,
            "duration": 125,
            "noteNumber": 42,
            "velocity": 62,
            "programNumber": 1
        }, {
            "time": 201390.62500000015,
            "duration": 125,
            "noteNumber": 42,
            "velocity": 45,
            "programNumber": 1
        }, {
            "time": 201515.62500000015,
            "duration": 62.5,
            "noteNumber": 38,
            "velocity": 52,
            "programNumber": 1
        }, {
            "time": 201515.62500000015,
            "duration": 125,
            "noteNumber": 42,
            "velocity": 41,
            "programNumber": 1
        }, {
            "time": 201640.62500000015,
            "duration": 125,
            "noteNumber": 42,
            "velocity": 76,
            "programNumber": 1
        }, {
            "time": 201640.62500000015,
            "duration": 125,
            "noteNumber": 36,
            "velocity": 61,
            "programNumber": 1
        }, {
            "time": 201765.62500000015,
            "duration": 125,
            "noteNumber": 42,
            "velocity": 49,
            "programNumber": 1
        }, {
            "time": 201890.62500000015,
            "duration": 125,
            "noteNumber": 42,
            "velocity": 39,
            "programNumber": 1
        }, {
            "time": 202015.62500000015,
            "duration": 161.45833333334303,
            "noteNumber": 36,
            "velocity": 64,
            "programNumber": 1
        }, {
            "time": 202015.62500000015,
            "duration": 250,
            "noteNumber": 42,
            "velocity": 67,
            "programNumber": 1
        }, {
            "time": 202265.62500000015,
            "duration": 130.20833333334303,
            "noteNumber": 36,
            "velocity": 73,
            "programNumber": 1
        }, {
            "time": 202265.62500000015,
            "duration": 130.20833333334303,
            "noteNumber": 42,
            "velocity": 64,
            "programNumber": 1
        }, {
            "time": 202395.8333333335,
            "duration": 119.79166666665697,
            "noteNumber": 42,
            "velocity": 42,
            "programNumber": 1
        }, {
            "time": 202515.62500000015,
            "duration": 119.79166666665697,
            "noteNumber": 36,
            "velocity": 75,
            "programNumber": 1
        }, {
            "time": 202515.62500000015,
            "duration": 125,
            "noteNumber": 42,
            "velocity": 65,
            "programNumber": 1
        }, {
            "time": 202640.62500000015,
            "duration": 125,
            "noteNumber": 42,
            "velocity": 39,
            "programNumber": 1
        }, {
            "time": 202765.62500000015,
            "duration": 119.79166666665697,
            "noteNumber": 36,
            "velocity": 65,
            "programNumber": 1
        }, {
            "time": 202765.62500000015,
            "duration": 125,
            "noteNumber": 42,
            "velocity": 49,
            "programNumber": 1
        }, {
            "time": 202890.62500000015,
            "duration": 62.5,
            "noteNumber": 38,
            "velocity": 22,
            "programNumber": 1
        }, {
            "time": 202890.62500000015,
            "duration": 125,
            "noteNumber": 42,
            "velocity": 38,
            "programNumber": 1
        }, {
            "time": 203015.62500000015,
            "duration": 62.5,
            "noteNumber": 38,
            "velocity": 38,
            "programNumber": 1
        }, {
            "time": 203015.62500000015,
            "duration": 125,
            "noteNumber": 42,
            "velocity": 30,
            "programNumber": 1
        }, {
            "time": 203140.62500000015,
            "duration": 119.79166666665697,
            "noteNumber": 36,
            "velocity": 68,
            "programNumber": 1
        }, {
            "time": 203140.62500000015,
            "duration": 125,
            "noteNumber": 42,
            "velocity": 53,
            "programNumber": 1
        }, {
            "time": 203265.62500000015,
            "duration": 125,
            "noteNumber": 42,
            "velocity": 33,
            "programNumber": 1
        }, {
            "time": 203390.62500000015,
            "duration": 125,
            "noteNumber": 42,
            "velocity": 29,
            "programNumber": 1
        }, {
            "time": 203515.62500000015,
            "duration": 119.79166666665697,
            "noteNumber": 36,
            "velocity": 73,
            "programNumber": 1
        }, {
            "time": 203515.62500000015,
            "duration": 125,
            "noteNumber": 42,
            "velocity": 46,
            "programNumber": 1
        }, {
            "time": 203640.62500000015,
            "duration": 125,
            "noteNumber": 42,
            "velocity": 34,
            "programNumber": 1
        }, {
            "time": 203640.62500000015,
            "duration": 156.25,
            "noteNumber": 38,
            "velocity": 26,
            "programNumber": 1
        }, {
            "time": 203765.62500000015,
            "duration": 114.58333333334303,
            "noteNumber": 36,
            "velocity": 68,
            "programNumber": 1
        }, {
            "time": 203765.62500000015,
            "duration": 125,
            "noteNumber": 42,
            "velocity": 47,
            "programNumber": 1
        }, {
            "time": 203890.62500000015,
            "duration": 125,
            "noteNumber": 42,
            "velocity": 34,
            "programNumber": 1
        }, {
            "time": 204015.62500000015,
            "duration": 125,
            "noteNumber": 38,
            "velocity": 21,
            "programNumber": 1
        }, {
            "time": 204015.62500000015,
            "duration": 125,
            "noteNumber": 42,
            "velocity": 30,
            "programNumber": 1
        }, {
            "time": 204140.62500000015,
            "duration": 125,
            "noteNumber": 42,
            "velocity": 50,
            "programNumber": 1
        }, {
            "time": 204140.62500000015,
            "duration": 166.66666666665697,
            "noteNumber": 38,
            "velocity": 43,
            "programNumber": 1
        }, {
            "time": 204265.62500000015,
            "duration": 125,
            "noteNumber": 42,
            "velocity": 72,
            "programNumber": 1
        }, {
            "time": 204265.62500000015,
            "duration": 130.20833333334303,
            "noteNumber": 36,
            "velocity": 50,
            "programNumber": 1
        }, {
            "time": 204390.62500000015,
            "duration": 125,
            "noteNumber": 42,
            "velocity": 45,
            "programNumber": 1
        }, {
            "time": 204390.62500000015,
            "duration": 145.83333333334303,
            "noteNumber": 38,
            "velocity": 34,
            "programNumber": 1
        }, {
            "time": 204515.62500000015,
            "duration": 125,
            "noteNumber": 36,
            "velocity": 48,
            "programNumber": 1
        }, {
            "time": 204515.62500000015,
            "duration": 130.20833333334303,
            "noteNumber": 42,
            "velocity": 68,
            "programNumber": 1
        }, {
            "time": 204645.8333333335,
            "duration": 98.95833333334303,
            "noteNumber": 38,
            "velocity": 27,
            "programNumber": 1
        }, {
            "time": 204645.8333333335,
            "duration": 161.45833333334303,
            "noteNumber": 42,
            "velocity": 48,
            "programNumber": 1
        }, {
            "time": 204890.62500000017,
            "duration": 119.79166666665697,
            "noteNumber": 36,
            "velocity": 94,
            "programNumber": 1
        }, {
            "time": 204890.62500000017,
            "duration": 130.20833333331393,
            "noteNumber": 42,
            "velocity": 65,
            "programNumber": 1
        }, {
            "time": 205020.8333333335,
            "duration": 119.79166666665697,
            "noteNumber": 42,
            "velocity": 42,
            "programNumber": 1
        }, {
            "time": 205140.62500000015,
            "duration": 130.20833333334303,
            "noteNumber": 42,
            "velocity": 35,
            "programNumber": 1
        }, {
            "time": 205270.8333333335,
            "duration": 125,
            "noteNumber": 42,
            "velocity": 58,
            "programNumber": 1
        }, {
            "time": 205270.8333333335,
            "duration": 125,
            "noteNumber": 36,
            "velocity": 64,
            "programNumber": 1
        }, {
            "time": 205395.8333333335,
            "duration": 125,
            "noteNumber": 42,
            "velocity": 41,
            "programNumber": 1
        }, {
            "time": 205520.8333333335,
            "duration": 125,
            "noteNumber": 36,
            "velocity": 76,
            "programNumber": 1
        }, {
            "time": 205520.8333333335,
            "duration": 125,
            "noteNumber": 42,
            "velocity": 64,
            "programNumber": 1
        }, {
            "time": 205645.8333333335,
            "duration": 119.79166666665697,
            "noteNumber": 42,
            "velocity": 44,
            "programNumber": 1
        }, {
            "time": 205765.62500000015,
            "duration": 130.20833333334303,
            "noteNumber": 42,
            "velocity": 54,
            "programNumber": 1
        }, {
            "time": 205765.62500000015,
            "duration": 130.20833333334303,
            "noteNumber": 36,
            "velocity": 62,
            "programNumber": 1
        }, {
            "time": 205895.8333333335,
            "duration": 119.79166666665697,
            "noteNumber": 42,
            "velocity": 43,
            "programNumber": 1
        }, {
            "time": 206015.62500000015,
            "duration": 130.20833333334303,
            "noteNumber": 42,
            "velocity": 33,
            "programNumber": 1
        }, {
            "time": 206145.8333333335,
            "duration": 125,
            "noteNumber": 42,
            "velocity": 62,
            "programNumber": 1
        }, {
            "time": 206145.8333333335,
            "duration": 125,
            "noteNumber": 36,
            "velocity": 72,
            "programNumber": 1
        }, {
            "time": 206270.8333333335,
            "duration": 119.79166666665697,
            "noteNumber": 42,
            "velocity": 45,
            "programNumber": 1
        }, {
            "time": 206390.62500000015,
            "duration": 125,
            "noteNumber": 42,
            "velocity": 34,
            "programNumber": 1
        }, {
            "time": 206515.62500000015,
            "duration": 140.625,
            "noteNumber": 36,
            "velocity": 86,
            "programNumber": 1
        }, {
            "time": 206515.62500000015,
            "duration": 255.20833333334303,
            "noteNumber": 42,
            "velocity": 62,
            "programNumber": 1
        }, {
            "time": 206770.8333333335,
            "duration": 125,
            "noteNumber": 36,
            "velocity": 65,
            "programNumber": 1
        }, {
            "time": 206770.8333333335,
            "duration": 125,
            "noteNumber": 42,
            "velocity": 67,
            "programNumber": 1
        }, {
            "time": 206895.8333333335,
            "duration": 119.79166666665697,
            "noteNumber": 42,
            "velocity": 42,
            "programNumber": 1
        }, {
            "time": 207015.62500000015,
            "duration": 130.20833333334303,
            "noteNumber": 42,
            "velocity": 35,
            "programNumber": 1
        }, {
            "time": 207145.8333333335,
            "duration": 67.70833333334303,
            "noteNumber": 38,
            "velocity": 94,
            "programNumber": 1
        }, {
            "time": 207145.8333333335,
            "duration": 125,
            "noteNumber": 42,
            "velocity": 64,
            "programNumber": 1
        }, {
            "time": 207270.8333333335,
            "duration": 151.04166666665697,
            "noteNumber": 36,
            "velocity": 98,
            "programNumber": 1
        }, {
            "time": 207270.8333333335,
            "duration": 244.79166666665697,
            "noteNumber": 42,
            "velocity": 76,
            "programNumber": 1
        }, {
            "time": 207515.62500000015,
            "duration": 130.20833333334303,
            "noteNumber": 36,
            "velocity": 63,
            "programNumber": 1
        }, {
            "time": 207515.62500000015,
            "duration": 130.20833333334303,
            "noteNumber": 42,
            "velocity": 62,
            "programNumber": 1
        }, {
            "time": 207645.8333333335,
            "duration": 125,
            "noteNumber": 42,
            "velocity": 44,
            "programNumber": 1
        }, {
            "time": 207770.8333333335,
            "duration": 125,
            "noteNumber": 42,
            "velocity": 35,
            "programNumber": 1
        }, {
            "time": 207895.8333333335,
            "duration": 125,
            "noteNumber": 42,
            "velocity": 62,
            "programNumber": 1
        }, {
            "time": 207895.8333333335,
            "duration": 125,
            "noteNumber": 36,
            "velocity": 77,
            "programNumber": 1
        }, {
            "time": 208020.8333333335,
            "duration": 119.79166666665697,
            "noteNumber": 42,
            "velocity": 42,
            "programNumber": 1
        }, {
            "time": 208140.62500000015,
            "duration": 130.20833333334303,
            "noteNumber": 42,
            "velocity": 33,
            "programNumber": 1
        }, {
            "time": 208270.8333333335,
            "duration": 114.58333333334303,
            "noteNumber": 36,
            "velocity": 89,
            "programNumber": 1
        }, {
            "time": 208270.8333333335,
            "duration": 125,
            "noteNumber": 42,
            "velocity": 52,
            "programNumber": 1
        }, {
            "time": 208395.8333333335,
            "duration": 119.79166666665697,
            "noteNumber": 42,
            "velocity": 43,
            "programNumber": 1
        }, {
            "time": 208515.62500000015,
            "duration": 130.20833333334303,
            "noteNumber": 36,
            "velocity": 65,
            "programNumber": 1
        }, {
            "time": 208515.62500000015,
            "duration": 130.20833333334303,
            "noteNumber": 42,
            "velocity": 70,
            "programNumber": 1
        }, {
            "time": 208645.8333333335,
            "duration": 125,
            "noteNumber": 42,
            "velocity": 44,
            "programNumber": 1
        }, {
            "time": 208770.8333333335,
            "duration": 125,
            "noteNumber": 42,
            "velocity": 59,
            "programNumber": 1
        }, {
            "time": 208770.8333333335,
            "duration": 125,
            "noteNumber": 36,
            "velocity": 71,
            "programNumber": 1
        }, {
            "time": 208895.8333333335,
            "duration": 125,
            "noteNumber": 42,
            "velocity": 43,
            "programNumber": 1
        }, {
            "time": 209020.8333333335,
            "duration": 125,
            "noteNumber": 42,
            "velocity": 37,
            "programNumber": 1
        }, {
            "time": 209145.8333333335,
            "duration": 125,
            "noteNumber": 42,
            "velocity": 67,
            "programNumber": 1
        }, {
            "time": 209145.8333333335,
            "duration": 125,
            "noteNumber": 36,
            "velocity": 78,
            "programNumber": 1
        }, {
            "time": 209270.8333333335,
            "duration": 119.79166666665697,
            "noteNumber": 42,
            "velocity": 41,
            "programNumber": 1
        }, {
            "time": 209390.62500000015,
            "duration": 130.20833333334303,
            "noteNumber": 42,
            "velocity": 33,
            "programNumber": 1
        }, {
            "time": 209520.8333333335,
            "duration": 125,
            "noteNumber": 42,
            "velocity": 66,
            "programNumber": 1
        }, {
            "time": 209520.8333333335,
            "duration": 125,
            "noteNumber": 36,
            "velocity": 91,
            "programNumber": 1
        }, {
            "time": 209645.8333333335,
            "duration": 125,
            "noteNumber": 42,
            "velocity": 43,
            "programNumber": 1
        }, {
            "time": 209770.8333333335,
            "duration": 114.58333333334303,
            "noteNumber": 36,
            "velocity": 91,
            "programNumber": 1
        }, {
            "time": 209770.8333333335,
            "duration": 125,
            "noteNumber": 42,
            "velocity": 64,
            "programNumber": 1
        }, {
            "time": 209895.8333333335,
            "duration": 125,
            "noteNumber": 42,
            "velocity": 45,
            "programNumber": 1
        }, {
            "time": 210020.8333333335,
            "duration": 125,
            "noteNumber": 42,
            "velocity": 34,
            "programNumber": 1
        }, {
            "time": 210145.8333333335,
            "duration": 125,
            "noteNumber": 42,
            "velocity": 72,
            "programNumber": 1
        }, {
            "time": 210145.8333333335,
            "duration": 151.04166666665697,
            "noteNumber": 38,
            "velocity": 121,
            "programNumber": 1
        }, {
            "time": 210270.8333333335,
            "duration": 125,
            "noteNumber": 42,
            "velocity": 70,
            "programNumber": 1
        }, {
            "time": 210270.8333333335,
            "duration": 125,
            "noteNumber": 36,
            "velocity": 71,
            "programNumber": 1
        }, {
            "time": 210395.8333333335,
            "duration": 125,
            "noteNumber": 42,
            "velocity": 39,
            "programNumber": 1
        }, {
            "time": 210520.8333333335,
            "duration": 125,
            "noteNumber": 36,
            "velocity": 70,
            "programNumber": 1
        }, {
            "time": 210520.8333333335,
            "duration": 125,
            "noteNumber": 42,
            "velocity": 63,
            "programNumber": 1
        }, {
            "time": 210645.8333333335,
            "duration": 125,
            "noteNumber": 42,
            "velocity": 41,
            "programNumber": 1
        }, {
            "time": 210770.8333333335,
            "duration": 125,
            "noteNumber": 42,
            "velocity": 34,
            "programNumber": 1
        }, {
            "time": 210895.8333333335,
            "duration": 125,
            "noteNumber": 42,
            "velocity": 68,
            "programNumber": 1
        }, {
            "time": 210895.8333333335,
            "duration": 125,
            "noteNumber": 36,
            "velocity": 83,
            "programNumber": 1
        }, {
            "time": 211020.8333333335,
            "duration": 125,
            "noteNumber": 42,
            "velocity": 42,
            "programNumber": 1
        }, {
            "time": 211145.8333333335,
            "duration": 125,
            "noteNumber": 42,
            "velocity": 33,
            "programNumber": 1
        }, {
            "time": 211270.8333333335,
            "duration": 119.79166666665697,
            "noteNumber": 36,
            "velocity": 93,
            "programNumber": 1
        }, {
            "time": 211270.8333333335,
            "duration": 125,
            "noteNumber": 42,
            "velocity": 61,
            "programNumber": 1
        }, {
            "time": 211395.8333333335,
            "duration": 125,
            "noteNumber": 42,
            "velocity": 43,
            "programNumber": 1
        }, {
            "time": 211520.8333333335,
            "duration": 125,
            "noteNumber": 42,
            "velocity": 66,
            "programNumber": 1
        }, {
            "time": 211520.8333333335,
            "duration": 125,
            "noteNumber": 36,
            "velocity": 98,
            "programNumber": 1
        }, {
            "time": 211645.8333333335,
            "duration": 125,
            "noteNumber": 42,
            "velocity": 45,
            "programNumber": 1
        }, {
            "time": 211770.8333333335,
            "duration": 114.58333333334303,
            "noteNumber": 36,
            "velocity": 93,
            "programNumber": 1
        }, {
            "time": 211770.8333333335,
            "duration": 125,
            "noteNumber": 42,
            "velocity": 60,
            "programNumber": 1
        }, {
            "time": 211895.8333333335,
            "duration": 125,
            "noteNumber": 42,
            "velocity": 41,
            "programNumber": 1
        }, {
            "time": 212020.8333333335,
            "duration": 125,
            "noteNumber": 42,
            "velocity": 34,
            "programNumber": 1
        }, {
            "time": 212145.8333333335,
            "duration": 125,
            "noteNumber": 42,
            "velocity": 65,
            "programNumber": 1
        }, {
            "time": 212145.8333333335,
            "duration": 125,
            "noteNumber": 36,
            "velocity": 67,
            "programNumber": 1
        }, {
            "time": 212270.8333333335,
            "duration": 125,
            "noteNumber": 42,
            "velocity": 42,
            "programNumber": 1
        }, {
            "time": 212395.8333333335,
            "duration": 125,
            "noteNumber": 42,
            "velocity": 36,
            "programNumber": 1
        }, {
            "time": 212520.8333333335,
            "duration": 125,
            "noteNumber": 42,
            "velocity": 64,
            "programNumber": 1
        }, {
            "time": 212520.8333333335,
            "duration": 125,
            "noteNumber": 36,
            "velocity": 75,
            "programNumber": 1
        }, {
            "time": 212645.8333333335,
            "duration": 125,
            "noteNumber": 42,
            "velocity": 44,
            "programNumber": 1
        }, {
            "time": 212770.8333333335,
            "duration": 125,
            "noteNumber": 36,
            "velocity": 74,
            "programNumber": 1
        }, {
            "time": 212770.8333333335,
            "duration": 125,
            "noteNumber": 42,
            "velocity": 64,
            "programNumber": 1
        }, {
            "time": 212895.8333333335,
            "duration": 125,
            "noteNumber": 42,
            "velocity": 45,
            "programNumber": 1
        }, {
            "time": 213020.8333333335,
            "duration": 125,
            "noteNumber": 42,
            "velocity": 36,
            "programNumber": 1
        }, {
            "time": 213145.8333333335,
            "duration": 125,
            "noteNumber": 42,
            "velocity": 78,
            "programNumber": 1
        }, {
            "time": 213145.8333333335,
            "duration": 151.04166666665697,
            "noteNumber": 38,
            "velocity": 115,
            "programNumber": 1
        }, {
            "time": 213270.8333333335,
            "duration": 151.04166666665697,
            "noteNumber": 36,
            "velocity": 97,
            "programNumber": 1
        }, {
            "time": 213270.8333333335,
            "duration": 250,
            "noteNumber": 42,
            "velocity": 63,
            "programNumber": 1
        }, {
            "time": 213520.8333333335,
            "duration": 119.79166666665697,
            "noteNumber": 36,
            "velocity": 96,
            "programNumber": 1
        }, {
            "time": 213520.8333333335,
            "duration": 125,
            "noteNumber": 42,
            "velocity": 64,
            "programNumber": 1
        }, {
            "time": 213645.8333333335,
            "duration": 125,
            "noteNumber": 42,
            "velocity": 42,
            "programNumber": 1
        }, {
            "time": 213770.8333333335,
            "duration": 125,
            "noteNumber": 42,
            "velocity": 35,
            "programNumber": 1
        }, {
            "time": 213895.8333333335,
            "duration": 125,
            "noteNumber": 36,
            "velocity": 70,
            "programNumber": 1
        }, {
            "time": 213895.8333333335,
            "duration": 125,
            "noteNumber": 42,
            "velocity": 61,
            "programNumber": 1
        }, {
            "time": 214020.8333333335,
            "duration": 125,
            "noteNumber": 42,
            "velocity": 42,
            "programNumber": 1
        }, {
            "time": 214145.8333333335,
            "duration": 125,
            "noteNumber": 42,
            "velocity": 33,
            "programNumber": 1
        }, {
            "time": 214270.8333333335,
            "duration": 125,
            "noteNumber": 42,
            "velocity": 57,
            "programNumber": 1
        }, {
            "time": 214270.8333333335,
            "duration": 125,
            "noteNumber": 36,
            "velocity": 81,
            "programNumber": 1
        }, {
            "time": 214395.8333333335,
            "duration": 125,
            "noteNumber": 42,
            "velocity": 43,
            "programNumber": 1
        }, {
            "time": 214520.8333333335,
            "duration": 125,
            "noteNumber": 36,
            "velocity": 89,
            "programNumber": 1
        }, {
            "time": 214520.8333333335,
            "duration": 125,
            "noteNumber": 42,
            "velocity": 66,
            "programNumber": 1
        }, {
            "time": 214645.8333333335,
            "duration": 125,
            "noteNumber": 42,
            "velocity": 41,
            "programNumber": 1
        }, {
            "time": 214770.8333333335,
            "duration": 119.79166666665697,
            "noteNumber": 36,
            "velocity": 77,
            "programNumber": 1
        }, {
            "time": 214770.8333333335,
            "duration": 125,
            "noteNumber": 42,
            "velocity": 55,
            "programNumber": 1
        }, {
            "time": 214895.8333333335,
            "duration": 125,
            "noteNumber": 42,
            "velocity": 43,
            "programNumber": 1
        }, {
            "time": 215020.8333333335,
            "duration": 125,
            "noteNumber": 42,
            "velocity": 33,
            "programNumber": 1
        }, {
            "time": 215145.8333333335,
            "duration": 119.79166666665697,
            "noteNumber": 36,
            "velocity": 89,
            "programNumber": 1
        }, {
            "time": 215145.8333333335,
            "duration": 125,
            "noteNumber": 42,
            "velocity": 63,
            "programNumber": 1
        }, {
            "time": 215270.8333333335,
            "duration": 125,
            "noteNumber": 42,
            "velocity": 42,
            "programNumber": 1
        }, {
            "time": 215395.8333333335,
            "duration": 125,
            "noteNumber": 42,
            "velocity": 36,
            "programNumber": 1
        }, {
            "time": 215520.8333333335,
            "duration": 151.04166666665697,
            "noteNumber": 36,
            "velocity": 61,
            "programNumber": 1
        }, {
            "time": 215520.8333333335,
            "duration": 250,
            "noteNumber": 42,
            "velocity": 60,
            "programNumber": 1
        }, {
            "time": 215770.8333333335,
            "duration": 125,
            "noteNumber": 36,
            "velocity": 81,
            "programNumber": 1
        }, {
            "time": 215770.8333333335,
            "duration": 125,
            "noteNumber": 42,
            "velocity": 69,
            "programNumber": 1
        }, {
            "time": 215895.8333333335,
            "duration": 125,
            "noteNumber": 42,
            "velocity": 45,
            "programNumber": 1
        }, {
            "time": 216020.8333333335,
            "duration": 171.875,
            "noteNumber": 42,
            "velocity": 36,
            "programNumber": 1
        }, {
            "time": 216270.8333333335,
            "duration": 145.83333333334303,
            "noteNumber": 36,
            "velocity": 121,
            "programNumber": 1
        }, {
            "time": 216270.8333333335,
            "duration": 250,
            "noteNumber": 42,
            "velocity": 70,
            "programNumber": 1
        }, {
            "time": 216520.8333333335,
            "duration": 119.79166666665697,
            "noteNumber": 36,
            "velocity": 113,
            "programNumber": 1
        }, {
            "time": 216520.8333333335,
            "duration": 125,
            "noteNumber": 42,
            "velocity": 68,
            "programNumber": 1
        }, {
            "time": 216645.8333333335,
            "duration": 125,
            "noteNumber": 42,
            "velocity": 48,
            "programNumber": 1
        }, {
            "time": 216770.8333333335,
            "duration": 125,
            "noteNumber": 42,
            "velocity": 38,
            "programNumber": 1
        }, {
            "time": 216895.8333333335,
            "duration": 119.79166666665697,
            "noteNumber": 36,
            "velocity": 84,
            "programNumber": 1
        }, {
            "time": 216895.8333333335,
            "duration": 125,
            "noteNumber": 42,
            "velocity": 70,
            "programNumber": 1
        }, {
            "time": 217020.8333333335,
            "duration": 125,
            "noteNumber": 42,
            "velocity": 47,
            "programNumber": 1
        }, {
            "time": 217145.8333333335,
            "duration": 125,
            "noteNumber": 42,
            "velocity": 41,
            "programNumber": 1
        }, {
            "time": 217270.8333333335,
            "duration": 119.79166666665697,
            "noteNumber": 36,
            "velocity": 97,
            "programNumber": 1
        }, {
            "time": 217270.8333333335,
            "duration": 125,
            "noteNumber": 42,
            "velocity": 60,
            "programNumber": 1
        }, {
            "time": 217395.8333333335,
            "duration": 125,
            "noteNumber": 42,
            "velocity": 46,
            "programNumber": 1
        }, {
            "time": 217520.8333333335,
            "duration": 119.79166666665697,
            "noteNumber": 36,
            "velocity": 119,
            "programNumber": 1
        }, {
            "time": 217520.8333333335,
            "duration": 125,
            "noteNumber": 42,
            "velocity": 69,
            "programNumber": 1
        }, {
            "time": 217645.8333333335,
            "duration": 125,
            "noteNumber": 42,
            "velocity": 45,
            "programNumber": 1
        }, {
            "time": 217770.8333333335,
            "duration": 109.375,
            "noteNumber": 36,
            "velocity": 123,
            "programNumber": 1
        }, {
            "time": 217770.8333333335,
            "duration": 119.79166666665697,
            "noteNumber": 42,
            "velocity": 62,
            "programNumber": 1
        }, {
            "time": 217890.62500000015,
            "duration": 130.20833333334303,
            "noteNumber": 42,
            "velocity": 45,
            "programNumber": 1
        }, {
            "time": 218020.8333333335,
            "duration": 125,
            "noteNumber": 42,
            "velocity": 39,
            "programNumber": 1
        }, {
            "time": 218145.8333333335,
            "duration": 119.79166666665697,
            "noteNumber": 36,
            "velocity": 90,
            "programNumber": 1
        }, {
            "time": 218145.8333333335,
            "duration": 125,
            "noteNumber": 42,
            "velocity": 74,
            "programNumber": 1
        }, {
            "time": 218270.8333333335,
            "duration": 125,
            "noteNumber": 42,
            "velocity": 49,
            "programNumber": 1
        }, {
            "time": 218395.8333333335,
            "duration": 125,
            "noteNumber": 42,
            "velocity": 37,
            "programNumber": 1
        }, {
            "time": 218520.8333333335,
            "duration": 140.625,
            "noteNumber": 36,
            "velocity": 99,
            "programNumber": 1
        }, {
            "time": 218520.8333333335,
            "duration": 250,
            "noteNumber": 42,
            "velocity": 69,
            "programNumber": 1
        }, {
            "time": 218770.8333333335,
            "duration": 119.79166666665697,
            "noteNumber": 36,
            "velocity": 102,
            "programNumber": 1
        }, {
            "time": 218770.8333333335,
            "duration": 125,
            "noteNumber": 42,
            "velocity": 74,
            "programNumber": 1
        }, {
            "time": 218895.8333333335,
            "duration": 125,
            "noteNumber": 42,
            "velocity": 48,
            "programNumber": 1
        }, {
            "time": 219020.8333333335,
            "duration": 125,
            "noteNumber": 42,
            "velocity": 39,
            "programNumber": 1
        }, {
            "time": 219145.8333333335,
            "duration": 125,
            "noteNumber": 42,
            "velocity": 74,
            "programNumber": 1
        }, {
            "time": 219145.8333333335,
            "duration": 151.04166666665697,
            "noteNumber": 38,
            "velocity": 115,
            "programNumber": 1
        }, {
            "time": 219270.8333333335,
            "duration": 145.83333333331393,
            "noteNumber": 36,
            "velocity": 101,
            "programNumber": 1
        }, {
            "time": 219270.8333333335,
            "duration": 249.9999999999709,
            "noteNumber": 42,
            "velocity": 69,
            "programNumber": 1
        }, {
            "time": 219520.83333333346,
            "duration": 119.79166666665697,
            "noteNumber": 36,
            "velocity": 105,
            "programNumber": 1
        }, {
            "time": 219520.83333333346,
            "duration": 125,
            "noteNumber": 42,
            "velocity": 61,
            "programNumber": 1
        }, {
            "time": 219645.83333333346,
            "duration": 125,
            "noteNumber": 42,
            "velocity": 40,
            "programNumber": 1
        }, {
            "time": 219770.83333333346,
            "duration": 57.291666666656965,
            "noteNumber": 38,
            "velocity": 48,
            "programNumber": 1
        }, {
            "time": 219770.83333333346,
            "duration": 125,
            "noteNumber": 42,
            "velocity": 45,
            "programNumber": 1
        }, {
            "time": 219895.83333333346,
            "duration": 125,
            "noteNumber": 42,
            "velocity": 80,
            "programNumber": 1
        }, {
            "time": 219895.83333333346,
            "duration": 125,
            "noteNumber": 36,
            "velocity": 104,
            "programNumber": 1
        }, {
            "time": 220020.83333333346,
            "duration": 125,
            "noteNumber": 42,
            "velocity": 58,
            "programNumber": 1
        }, {
            "time": 220145.83333333346,
            "duration": 125,
            "noteNumber": 42,
            "velocity": 55,
            "programNumber": 1
        }, {
            "time": 220270.83333333346,
            "duration": 125,
            "noteNumber": 42,
            "velocity": 99,
            "programNumber": 1
        }, {
            "time": 220270.83333333346,
            "duration": 130.20833333334303,
            "noteNumber": 36,
            "velocity": 87,
            "programNumber": 1
        }, {
            "time": 220395.83333333346,
            "duration": 67.70833333334303,
            "noteNumber": 38,
            "velocity": 56,
            "programNumber": 1
        }, {
            "time": 220395.83333333346,
            "duration": 125,
            "noteNumber": 42,
            "velocity": 73,
            "programNumber": 1
        }, {
            "time": 220520.83333333346,
            "duration": 119.79166666665697,
            "noteNumber": 36,
            "velocity": 127,
            "programNumber": 1
        }, {
            "time": 220520.83333333346,
            "duration": 151.04166666665697,
            "noteNumber": 38,
            "velocity": 125,
            "programNumber": 1
        }, {
            "time": 220520.83333333346,
            "duration": 2213.541666666657,
            "noteNumber": 42,
            "velocity": 127,
            "programNumber": 1
        }]
    ]
}
